<svg width="100" height="100" viewBox="0 0 100 100" fill="none" xmlns="http://www.w3.org/2000/svg">
<rect width="100" height="100" rx="20" fill="url(#paint0_linear_3247_2963)"/>
<g clip-path="url(#clip0_3247_2963)">
<path d="M67.6229 57.7925C71.9288 48.0573 67.5275 36.6747 57.7923 32.3688C48.0572 28.0629 36.6747 32.4642 32.3688 42.1994C28.0629 51.9346 32.4642 63.3172 42.1993 67.6231C51.9345 71.929 63.317 67.5277 67.6229 57.7925Z" fill="#F7941D"/>
<path d="M49.9964 31.4582C53.6653 31.4582 57.2517 32.5461 60.3022 34.5844C63.3527 36.6227 65.7303 39.5198 67.1343 42.9094C68.5383 46.2989 68.9056 50.0287 68.1899 53.627C67.4741 57.2254 65.7074 60.5306 63.1132 63.1249C60.5189 65.7192 57.2137 67.4859 53.6153 68.2016C50.017 68.9174 46.2873 68.55 42.8977 67.146C39.5082 65.742 36.6111 63.3644 34.5728 60.3139C32.5345 57.2634 31.4466 53.677 31.4466 50.0081C31.4472 45.0886 33.4018 40.3707 36.8804 36.892C40.3591 33.4134 45.0769 31.4588 49.9964 31.4582ZM49.9964 30.0093C46.0412 30.0097 42.1748 31.183 38.8864 33.3808C35.5979 35.5786 33.035 38.7021 31.5217 42.3565C30.0084 46.0108 29.6126 50.0319 30.3846 53.9111C31.1565 57.7904 33.0614 61.3536 35.8583 64.1503C38.6553 66.9469 42.2187 68.8514 46.098 69.6229C49.9774 70.3943 53.9983 69.9982 57.6525 68.4844C61.3066 66.9707 64.4299 64.4074 66.6273 61.1186C68.8247 57.8299 69.9975 53.9634 69.9975 50.0081C69.9914 44.7056 67.8821 39.622 64.1324 35.8727C60.3828 32.1235 55.299 30.0148 49.9964 30.0093Z" fill="#3C2415"/>
<g opacity="0.3">
<path d="M35.2089 51.9138C35.2101 48.681 36.1517 45.5183 37.9189 42.8112C39.6862 40.1042 42.2027 37.9697 45.1619 36.6679C48.121 35.3661 51.395 34.9533 54.5847 35.4797C57.7743 36.0061 60.742 37.449 63.126 39.6326C61.7203 37.7956 59.9477 36.2714 57.9208 35.157C55.8938 34.0426 53.6571 33.3625 51.353 33.1598C49.0488 32.9571 46.7277 33.2364 44.5374 33.9799C42.3471 34.7233 40.3355 35.9147 38.6308 37.4781C36.9261 39.0414 35.5656 40.9426 34.6358 43.0606C33.7061 45.1786 33.2275 47.4669 33.2305 49.78C33.2335 52.093 33.718 54.3801 34.6533 56.4957C35.5886 58.6112 36.954 60.5089 38.6628 62.0678C36.4189 59.159 35.2041 55.5876 35.2089 51.9138Z" fill="white"/>
</g>
<g style="mix-blend-mode:multiply" opacity="0.75">
<path d="M61.9866 35.8419C64.9953 39.3936 66.5588 43.9466 66.3668 48.5974C66.1748 53.2482 64.2413 57.6569 60.95 60.9484C57.6588 64.24 53.2503 66.1739 48.5996 66.3663C43.9488 66.5587 39.3957 64.9956 35.8438 61.9872C37.5017 63.9443 39.5476 65.5363 41.852 66.6627C44.1565 67.789 46.6696 68.4252 49.2324 68.531C51.7952 68.6368 54.3521 68.2099 56.7416 67.2774C59.1311 66.3448 61.3012 64.9269 63.1148 63.1131C64.9285 61.2992 66.3463 59.129 67.2786 56.7394C68.2109 54.3498 68.6376 51.7929 68.5315 49.23C68.4255 46.6672 67.7891 44.1542 66.6626 41.8498C65.536 39.5454 63.9438 37.4997 61.9866 35.8419Z" fill="#F7941D"/>
</g>
<path d="M43.2494 50.7257C42.0369 50.7257 40.8517 50.3662 39.8436 49.6926C38.8355 49.019 38.0498 48.0616 37.5858 46.9414C37.1218 45.8212 37.0004 44.5887 37.2369 43.3995C37.4735 42.2104 38.0573 41.118 38.9146 40.2607C39.772 39.4034 40.8643 38.8195 42.0534 38.583C43.2426 38.3465 44.4751 38.4679 45.5953 38.9318C46.7154 39.3958 47.6728 40.1816 48.3464 41.1897C49.02 42.1978 49.3796 43.383 49.3796 44.5955C49.3777 46.2207 48.7313 47.7789 47.582 48.9282C46.4328 50.0774 44.8746 50.7239 43.2494 50.7257Z" fill="white"/>
<path d="M43.2501 38.8413C44.3909 38.8413 45.5061 39.1796 46.4546 39.8134C47.4031 40.4472 48.1424 41.348 48.579 42.402C49.0156 43.4559 49.1298 44.6157 48.9072 45.7346C48.6847 46.8535 48.1353 47.8812 47.3287 48.6879C46.522 49.4946 45.4942 50.0439 44.3754 50.2665C43.2565 50.489 42.0967 50.3748 41.0428 49.9382C39.9888 49.5017 39.088 48.7624 38.4542 47.8138C37.8204 46.8653 37.4821 45.7501 37.4821 44.6093C37.4821 43.0795 38.0898 41.6124 39.1715 40.5307C40.2532 39.449 41.7203 38.8413 43.2501 38.8413ZM43.2501 38.096C41.9637 38.096 40.7062 38.4775 39.6367 39.1922C38.5671 39.9068 37.7335 40.9226 37.2412 42.1111C36.7489 43.2995 36.6201 44.6073 36.8711 45.8689C37.122 47.1306 37.7415 48.2895 38.6511 49.1991C39.5607 50.1087 40.7196 50.7281 41.9812 50.9791C43.2429 51.23 44.5506 51.1012 45.739 50.609C46.9275 50.1167 47.9433 49.2831 48.6579 48.2135C49.3726 47.1439 49.7541 45.8864 49.7541 44.6001C49.7534 42.8748 49.0682 41.2204 47.8487 40.0001C46.6292 38.7797 44.9753 38.0933 43.2501 38.0914V38.096Z" fill="#3C2415"/>
<path d="M45.9635 39.5149C47.0367 40.4348 47.7347 41.7168 47.9251 43.1174C48.1154 44.518 47.7849 45.9397 46.9961 47.1127C46.2074 48.2856 45.0155 49.1282 43.6466 49.4803C42.2777 49.8324 40.8271 49.6697 39.5703 49.0229C40.1884 49.5527 40.9117 49.9458 41.6926 50.1761C42.4735 50.4064 43.2943 50.4687 44.101 50.3591C44.9077 50.2495 45.6821 49.9703 46.3732 49.5399C47.0643 49.1096 47.6565 48.5378 48.1108 47.8622C48.5651 47.1865 48.8712 46.4224 49.009 45.62C49.1468 44.8176 49.1132 43.9951 48.9104 43.2067C48.7075 42.4182 48.3401 41.6816 47.8322 41.0453C47.3243 40.409 46.6875 39.8874 45.9635 39.5149Z" fill="#D1D3D4"/>
<path d="M46.7981 44.5954C46.7981 45.2972 46.59 45.9832 46.2001 46.5668C45.8102 47.1503 45.256 47.6051 44.6076 47.8737C43.9592 48.1423 43.2457 48.2126 42.5574 48.0757C41.869 47.9387 41.2368 47.6008 40.7405 47.1045C40.2442 46.6082 39.9063 45.976 39.7694 45.2876C39.6324 44.5993 39.7027 43.8858 39.9713 43.2374C40.2399 42.589 40.6947 42.0348 41.2782 41.6449C41.8618 41.255 42.5478 41.0469 43.2496 41.0469C44.1907 41.0469 45.0933 41.4207 45.7588 42.0862C46.4242 42.7517 46.7981 43.6542 46.7981 44.5954Z" fill="#00A79D"/>
<path d="M46.7981 44.5954C46.7981 45.2972 46.59 45.9832 46.2001 46.5668C45.8102 47.1503 45.256 47.6051 44.6076 47.8737C43.9592 48.1423 43.2457 48.2126 42.5574 48.0757C41.869 47.9387 41.2368 47.6008 40.7405 47.1045C40.2442 46.6082 39.9063 45.976 39.7694 45.2876C39.6324 44.5993 39.7027 43.8858 39.9713 43.2374C40.2399 42.589 40.6947 42.0348 41.2782 41.6449C41.8618 41.255 42.5478 41.0469 43.2496 41.0469C44.1907 41.0469 45.0933 41.4207 45.7588 42.0862C46.4242 42.7517 46.7981 43.6542 46.7981 44.5954Z" fill="#8DC63F"/>
<path d="M45.2086 44.5954C45.2091 44.9829 45.0946 45.3619 44.8796 45.6843C44.6647 46.0067 44.3589 46.2582 44.001 46.4068C43.6431 46.5554 43.2492 46.5945 42.8691 46.5192C42.489 46.4439 42.1397 46.2575 41.8656 45.9836C41.5914 45.7098 41.4046 45.3608 41.3288 44.9807C41.2531 44.6007 41.2917 44.2067 41.4399 43.8487C41.5881 43.4906 41.8392 43.1845 42.1613 42.9692C42.4835 42.7539 42.8623 42.6389 43.2498 42.6389C43.7689 42.6389 44.2668 42.845 44.6341 43.2118C45.0014 43.5787 45.208 44.0763 45.2086 44.5954Z" fill="#3C2415"/>
<path d="M43.3928 42.4336C43.3914 42.7317 43.3018 43.0227 43.1351 43.27C42.9685 43.5172 42.7324 43.7095 42.4565 43.8227C42.1807 43.9358 41.8775 43.9647 41.5853 43.9057C41.2931 43.8467 41.0248 43.7025 40.8145 43.4912C40.6042 43.2799 40.4612 43.011 40.4035 42.7185C40.3458 42.426 40.3761 42.1229 40.4905 41.8476C40.6049 41.5723 40.7983 41.337 41.0463 41.1716C41.2943 41.0061 41.5858 40.9177 41.8839 40.9177C42.0826 40.9177 42.2794 40.957 42.4629 41.0332C42.6464 41.1095 42.8131 41.2213 42.9533 41.3621C43.0935 41.503 43.2045 41.6701 43.2799 41.854C43.3553 42.0379 43.3937 42.2348 43.3928 42.4336Z" fill="white"/>
<path d="M45.3313 46.1482C45.3313 46.2774 45.2929 46.4038 45.2211 46.5112C45.1492 46.6186 45.0471 46.7023 44.9277 46.7516C44.8082 46.801 44.6768 46.8138 44.5501 46.7884C44.4234 46.763 44.307 46.7006 44.2158 46.6091C44.1246 46.5175 44.0626 46.401 44.0377 46.2741C44.0127 46.1473 44.026 46.016 44.0758 45.8967C44.1255 45.7774 44.2096 45.6756 44.3173 45.6042C44.4249 45.5327 44.5514 45.4948 44.6806 45.4952C44.8534 45.4959 45.0189 45.5649 45.1408 45.6873C45.2628 45.8097 45.3313 45.9754 45.3313 46.1482Z" fill="white"/>
<path d="M56.7454 50.7257C55.533 50.7257 54.3478 50.3662 53.3397 49.6926C52.3316 49.019 51.5459 48.0616 51.0819 46.9414C50.6179 45.8212 50.4965 44.5887 50.733 43.3995C50.9696 42.2104 51.5534 41.118 52.4107 40.2607C53.2681 39.4034 54.3604 38.8195 55.5495 38.583C56.7386 38.3465 57.9712 38.4679 59.0914 38.9318C60.2115 39.3958 61.1689 40.1816 61.8425 41.1897C62.5161 42.1978 62.8757 43.383 62.8757 44.5955C62.8738 46.2207 62.2274 47.7789 61.0781 48.9282C59.9289 50.0774 58.3707 50.7239 56.7454 50.7257Z" fill="white"/>
<path d="M56.7446 38.8413C57.8854 38.8413 59.0005 39.1796 59.9491 39.8134C60.8976 40.4472 61.6369 41.348 62.0735 42.402C62.5101 43.4559 62.6243 44.6157 62.4017 45.7346C62.1792 46.8535 61.6298 47.8812 60.8231 48.6879C60.0165 49.4946 58.9887 50.0439 57.8698 50.2665C56.751 50.489 55.5912 50.3748 54.5373 49.9382C53.4833 49.5017 52.5825 48.7624 51.9487 47.8138C51.3149 46.8653 50.9766 45.7501 50.9766 44.6093C50.9766 43.0795 51.5843 41.6124 52.666 40.5307C53.7477 39.449 55.2148 38.8413 56.7446 38.8413ZM56.7446 38.096C55.4579 38.0956 54.2 38.4768 53.13 39.1914C52.0601 39.906 51.2261 40.9219 50.7336 42.1105C50.2411 43.2992 50.1122 44.6073 50.3633 45.8692C50.6144 47.1311 51.2341 48.2902 52.1441 49.1999C53.054 50.1095 54.2134 50.7289 55.4754 50.9795C56.7374 51.2301 58.0454 51.1008 59.2339 50.6079C60.4224 50.115 61.438 49.2806 62.1522 48.2104C62.8664 47.1401 63.2472 45.8821 63.2462 44.5954C63.2444 42.8714 62.5589 41.2185 61.3401 39.9992C60.1212 38.78 58.4686 38.0939 56.7446 38.0914V38.096Z" fill="#3C2415"/>
<path d="M59.4563 39.5149C60.5237 40.4357 61.217 41.7155 61.4052 43.1126C61.5933 44.5098 61.2633 45.9274 60.4775 47.0978C59.6916 48.2682 58.5044 49.1102 57.14 49.4649C55.7756 49.8196 54.3286 49.6624 53.0723 49.0229C53.6904 49.5527 54.4137 49.9458 55.1946 50.1761C55.9755 50.4064 56.7962 50.4687 57.603 50.3591C58.4097 50.2495 59.1841 49.9703 59.8752 49.5399C60.5663 49.1096 61.1584 48.5378 61.6127 47.8622C62.067 47.1865 62.3731 46.4224 62.5109 45.62C62.6488 44.8176 62.6151 43.9951 62.4123 43.2067C62.2095 42.4182 61.842 41.6816 61.3341 41.0453C60.8262 40.409 60.1894 39.8874 59.4655 39.5149H59.4563Z" fill="#D1D3D4"/>
<path d="M60.2903 44.5954C60.2903 45.2973 60.0821 45.9834 59.6921 46.567C59.3021 47.1506 58.7478 47.6054 58.0992 47.8739C57.4507 48.1425 56.7371 48.2126 56.0487 48.0755C55.3603 47.9384 54.728 47.6002 54.2319 47.1037C53.7357 46.6072 53.3979 45.9747 53.2613 45.2862C53.1246 44.5977 53.1952 43.8842 53.4641 43.2358C53.7331 42.5875 54.1882 42.0334 54.7721 41.6438C55.3559 41.2541 56.0422 41.0464 56.7441 41.0469C57.21 41.0469 57.6713 41.1387 58.1017 41.317C58.5321 41.4954 58.9231 41.7568 59.2525 42.0863C59.5818 42.4159 59.8429 42.8071 60.021 43.2376C60.1991 43.6681 60.2906 44.1295 60.2903 44.5954Z" fill="#00A79D"/>
<path d="M60.2903 44.5954C60.2903 45.2973 60.0821 45.9834 59.6921 46.567C59.3021 47.1506 58.7478 47.6054 58.0992 47.8739C57.4507 48.1425 56.7371 48.2126 56.0487 48.0755C55.3603 47.9384 54.728 47.6002 54.2319 47.1037C53.7357 46.6072 53.3979 45.9747 53.2613 45.2862C53.1246 44.5977 53.1952 43.8842 53.4641 43.2358C53.7331 42.5875 54.1882 42.0334 54.7721 41.6438C55.3559 41.2541 56.0422 41.0464 56.7441 41.0469C57.21 41.0469 57.6713 41.1387 58.1017 41.317C58.5321 41.4954 58.9231 41.7568 59.2525 42.0863C59.5818 42.4159 59.8429 42.8071 60.021 43.2376C60.1991 43.6681 60.2906 44.1295 60.2903 44.5954Z" fill="#8DC63F"/>
<path d="M58.7008 44.5954C58.7013 44.983 58.5867 45.3621 58.3717 45.6846C58.1566 46.007 57.8507 46.2585 57.4927 46.407C57.1347 46.5555 56.7406 46.5945 56.3604 46.519C55.9802 46.4435 55.631 46.2569 55.3569 45.9828C55.0828 45.7087 54.8962 45.3595 54.8207 44.9793C54.7452 44.5991 54.7842 44.2051 54.9327 43.8471C55.0813 43.489 55.3327 43.1831 55.6552 42.9681C55.9777 42.753 56.3567 42.6385 56.7443 42.6389C57.2632 42.6389 57.7609 42.845 58.1278 43.212C58.4947 43.5789 58.7008 44.0765 58.7008 44.5954Z" fill="#3C2415"/>
<path d="M56.885 42.4336C56.8836 42.7318 56.7939 43.0229 56.6272 43.2702C56.4604 43.5175 56.2242 43.7098 55.9482 43.8229C55.6722 43.936 55.3689 43.9647 55.0766 43.9055C54.7843 43.8463 54.5161 43.7019 54.3059 43.4903C54.0956 43.2788 53.9528 43.0097 53.8954 42.7171C53.838 42.4244 53.8686 42.1213 53.9834 41.846C54.0981 41.5707 54.2919 41.3356 54.5402 41.1704C54.7885 41.0052 55.0801 40.9173 55.3784 40.9177C55.5769 40.918 55.7735 40.9575 55.9567 41.0339C56.14 41.1103 56.3063 41.2221 56.4463 41.3629C56.5863 41.5038 56.6971 41.6708 56.7723 41.8545C56.8476 42.0383 56.8859 42.235 56.885 42.4336Z" fill="white"/>
<path d="M58.8234 46.1482C58.8234 46.2774 58.7851 46.4038 58.7132 46.5112C58.6414 46.6186 58.5393 46.7023 58.4198 46.7516C58.3004 46.801 58.169 46.8138 58.0423 46.7884C57.9156 46.763 57.7992 46.7006 57.708 46.6091C57.6168 46.5175 57.5548 46.401 57.5298 46.2741C57.5049 46.1473 57.5182 46.016 57.5679 45.8967C57.6177 45.7774 57.7018 45.6756 57.8094 45.6042C57.9171 45.5327 58.0436 45.4948 58.1728 45.4952C58.3456 45.4959 58.5111 45.5649 58.633 45.6873C58.755 45.8097 58.8234 45.9754 58.8234 46.1482Z" fill="white"/>
<path d="M50.014 61.6548C44.7767 61.6548 40.5176 58.5424 40.5176 54.7148C40.5176 54.2164 40.5176 52.7006 41.8857 52.7006C42.421 52.7006 43.0832 52.9313 43.9207 53.2428C45.3511 53.7596 47.3076 54.4679 49.8571 54.4679C52.4065 54.4679 54.423 53.7757 55.8973 53.2566C56.7948 52.9451 57.5124 52.7006 58.073 52.7006C59.5081 52.7006 59.5081 54.2164 59.5081 54.7148C59.5081 58.5424 55.249 61.6548 50.014 61.6548Z" fill="#F7B9D4"/>
<path d="M58.0735 53.1943C58.6987 53.1943 59.0148 53.582 59.0148 54.7148C59.0148 58.2748 54.9842 61.1611 50.0168 61.1611C45.0494 61.1611 41.0187 58.2748 41.0187 54.7148C41.0187 53.582 41.3071 53.1943 41.8932 53.1943C43.1483 53.1943 45.7692 54.9617 49.8645 54.9617C53.9598 54.9617 56.7446 53.1943 58.0804 53.1943M58.0804 52.2069C57.4298 52.2069 56.6846 52.463 55.7432 52.7906C54.3012 53.2889 52.3263 53.9742 49.8645 53.9742C47.4027 53.9742 45.4924 53.282 44.0965 52.779C43.2129 52.4583 42.5138 52.2069 41.8932 52.2069C41.0441 52.2069 40.0312 52.6406 40.0312 54.7148C40.0312 56.789 41.1064 58.6693 43.0744 60.0675C44.9386 61.4034 47.405 62.144 50.0145 62.144C52.6239 62.144 55.0903 61.408 56.9545 60.0675C58.9202 58.6601 60.0023 56.7544 60.0023 54.7056C60.0023 53.9396 59.8754 53.3905 59.6055 52.9775C59.4399 52.7256 59.2115 52.5212 58.9429 52.3845C58.6742 52.2477 58.3746 52.1833 58.0735 52.1976L58.0804 52.2069Z" fill="#3C2415"/>
<path d="M50.0152 56.9343C49.586 56.9512 49.1619 56.8369 48.7993 56.6067C48.514 56.7525 48.1968 56.8247 47.8765 56.8167C47.7693 56.8169 47.6623 56.8115 47.5558 56.8005C47.1262 56.7709 46.7162 56.6098 46.3814 56.3391C46.1651 56.4257 45.9338 56.4688 45.7008 56.466C45.5042 56.4644 45.3085 56.4412 45.117 56.3968C44.6914 56.3196 44.2994 56.1143 43.9934 55.8084C43.8433 55.8509 43.688 55.8718 43.532 55.8707C43.2565 55.8671 42.9835 55.8172 42.7245 55.7231C42.4664 55.6553 42.2251 55.5348 42.0159 55.3692C41.8066 55.2037 41.6339 54.9965 41.5086 54.761C41.4263 54.5668 41.3862 54.3574 41.391 54.1466C41.3958 53.9358 41.4453 53.7284 41.5363 53.5381C41.6326 53.3162 41.7558 53.107 41.9031 52.9152C41.9493 52.8543 42.009 52.8049 42.0774 52.7709C42.1459 52.7369 42.2212 52.7192 42.2977 52.7191C42.331 52.7196 42.3643 52.7235 42.3969 52.7306C42.9156 52.8573 43.4252 53.0192 43.9219 53.2151C45.3524 53.7319 47.3089 54.4403 49.8583 54.4403C52.4078 54.4403 54.4243 53.7481 55.8986 53.229C56.4642 53.012 57.0458 52.8392 57.6382 52.7122C57.6658 52.7099 57.6936 52.7099 57.7212 52.7122C57.7966 52.7117 57.8711 52.7288 57.9387 52.762C58.0064 52.7952 58.0654 52.8437 58.1112 52.9037C58.2638 53.0986 58.3916 53.3117 58.4918 53.5381C58.5829 53.7288 58.6324 53.9365 58.6372 54.1477C58.642 54.3589 58.6019 54.5687 58.5195 54.7633C58.3953 55.0004 58.2233 55.2093 58.0145 55.3769C57.8056 55.5444 57.5644 55.667 57.306 55.7369C57.0466 55.8292 56.7737 55.8783 56.4984 55.8823C56.3425 55.8832 56.1871 55.8623 56.037 55.82C55.7314 56.1264 55.3393 56.3317 54.9134 56.4083C54.722 56.453 54.5262 56.4762 54.3297 56.4775C54.0967 56.4804 53.8654 56.4373 53.649 56.3506C53.3142 56.6213 52.9042 56.7824 52.4747 56.8121C52.3681 56.8231 52.2611 56.8285 52.154 56.8282C51.8337 56.836 51.5165 56.7638 51.2311 56.6183C50.8694 56.8484 50.446 56.9627 50.0175 56.9459L50.0152 56.9343Z" fill="white"/>
<path d="M57.7213 53.1944C57.8475 53.3571 57.9537 53.5345 58.0374 53.7227C58.365 54.4956 57.8874 55.0055 57.1468 55.257C56.9386 55.3317 56.7197 55.3722 56.4985 55.377C56.267 55.3847 56.0401 55.3113 55.8571 55.1693C55.721 55.5592 55.3126 55.8015 54.805 55.9145C54.6491 55.9504 54.4897 55.969 54.3298 55.9699C54.1845 55.9793 54.039 55.9588 53.902 55.9096C53.7651 55.8604 53.6397 55.7835 53.5338 55.6838C53.3584 56.0576 52.9293 56.2514 52.4148 56.3091C52.3259 56.3182 52.2365 56.3228 52.1471 56.3229C51.9686 56.3384 51.7889 56.312 51.6223 56.246C51.4557 56.1799 51.3068 56.0759 51.1874 55.9422C50.9728 56.2929 50.5252 56.4406 50.0084 56.4406C49.4916 56.4406 49.044 56.2929 48.8294 55.9422C48.71 56.0759 48.5611 56.1799 48.3945 56.246C48.2279 56.312 48.0482 56.3384 47.8696 56.3229C47.781 56.3229 47.6924 56.3182 47.6043 56.3091C47.0898 56.2514 46.6583 56.0576 46.483 55.6838C46.3778 55.7827 46.2536 55.859 46.1179 55.9082C45.9823 55.9574 45.838 55.9784 45.6939 55.9699C45.537 55.9683 45.3808 55.9497 45.2279 55.9145C44.7203 55.8015 44.305 55.5592 44.1758 55.1693C43.9932 55.312 43.766 55.3855 43.5344 55.377C43.3132 55.3722 43.0943 55.3317 42.8861 55.257C42.1478 55.0055 41.6679 54.4956 41.9955 53.7227C42.0766 53.5394 42.1797 53.3667 42.3024 53.2082C43.6867 53.492 46.1692 54.9294 49.863 54.9294C53.6514 54.9294 56.2839 53.4366 57.7259 53.1944M57.7259 52.2069C57.671 52.2068 57.6162 52.2114 57.5621 52.2207C56.9424 52.3519 56.3338 52.5308 55.7418 52.756C54.2998 53.2567 52.3248 53.9419 49.863 53.9419C47.4012 53.9419 45.4794 53.2497 44.095 52.7445C43.5757 52.5406 43.043 52.3726 42.5008 52.2415C42.3185 52.2033 42.1291 52.2178 41.9546 52.2831C41.7802 52.3485 41.628 52.4621 41.5156 52.6106C41.3396 52.8306 41.1915 53.0717 41.0749 53.3282C40.9567 53.5803 40.8933 53.8546 40.8889 54.133C40.8845 54.4114 40.9393 54.6875 41.0495 54.9432C41.301 55.5039 41.8202 55.9307 42.5538 56.1799C42.8643 56.2907 43.191 56.3492 43.5206 56.3529C43.6247 56.353 43.7288 56.3461 43.832 56.3322C44.1738 56.5996 44.5737 56.783 44.9995 56.8674C45.2265 56.9196 45.4586 56.9466 45.6916 56.9482C45.89 56.9497 46.0877 56.9257 46.28 56.8767C46.6474 57.1041 47.063 57.2424 47.4935 57.2804C47.6177 57.2941 47.7424 57.301 47.8673 57.3012C48.1716 57.3037 48.4739 57.2521 48.7602 57.1489C49.1527 57.3253 49.5781 57.4164 50.0084 57.4164C50.4387 57.4164 50.8641 57.3253 51.2566 57.1489C51.542 57.2521 51.8436 57.3036 52.1471 57.3012C52.2728 57.301 52.3983 57.2941 52.5232 57.2804C52.9529 57.242 53.3677 57.1038 53.7345 56.8767C53.9267 56.9257 54.1245 56.9497 54.3228 56.9482C54.5558 56.9466 54.7879 56.9196 55.015 56.8674C55.4407 56.783 55.8406 56.5996 56.1824 56.3322C56.2857 56.3461 56.3897 56.353 56.4939 56.3529C56.8242 56.349 57.1516 56.2905 57.4629 56.1799C58.1943 55.9307 58.7157 55.5039 58.9649 54.9432C59.076 54.6878 59.1313 54.4117 59.1274 54.1332C59.1234 53.8547 59.0601 53.5803 58.9418 53.3282C58.8261 53.0629 58.6772 52.8132 58.4988 52.5853C58.4068 52.4653 58.2884 52.3682 58.1527 52.3014C58.0171 52.2346 57.8679 52.1999 57.7167 52.2L57.7259 52.2069Z" fill="#3C2415"/>
<path d="M44.5355 54.2164C44.1617 54.6433 43.8087 55.1047 43.3242 55.37C43.4704 55.3979 43.6207 55.395 43.7657 55.3617C43.9106 55.3283 44.0471 55.2652 44.1663 55.1762C44.2222 55.3145 44.3062 55.4397 44.4131 55.5438C44.5199 55.6478 44.6473 55.7285 44.787 55.7807C44.6052 55.2798 44.5199 54.7491 44.5355 54.2164Z" fill="#D1D3D4"/>
<path d="M46.7017 55.0747C46.5721 55.3483 46.4176 55.6093 46.2402 55.8545C46.3262 55.8111 46.4042 55.7533 46.471 55.6838C46.521 55.7896 46.5925 55.8839 46.6809 55.9607C46.6579 55.6654 46.6648 55.3686 46.7017 55.0747Z" fill="#D1D3D4"/>
<path d="M48.4316 56.2306C48.5895 56.1734 48.7285 56.0736 48.8331 55.9422C48.8886 56.0312 48.9597 56.1093 49.043 56.173C48.9969 55.8869 48.99 55.5892 48.9738 55.3354C48.8309 55.6552 48.6488 55.9559 48.4316 56.2306Z" fill="#D1D3D4"/>
<path d="M51.0234 56.1453C51.09 56.0881 51.1475 56.0212 51.1942 55.9468C51.3278 56.1109 51.5119 56.2261 51.7179 56.2745C51.5265 55.9642 51.3928 55.6218 51.3234 55.2639C51.1889 55.5448 51.0882 55.8406 51.0234 56.1453Z" fill="#D1D3D4"/>
<path d="M53.1895 56.0668C53.3387 55.9751 53.4581 55.8421 53.5332 55.6838C53.6949 55.8427 53.9072 55.9398 54.1331 55.9584C53.9501 55.6973 53.7807 55.427 53.6255 55.1486C53.4709 55.4531 53.3371 55.7646 53.1895 56.0668Z" fill="#D1D3D4"/>
<path d="M55.7576 54.514C55.8202 54.8366 55.7898 55.1702 55.6699 55.4761C55.7532 55.3882 55.8169 55.2836 55.8568 55.1693C56.044 55.3151 56.2774 55.3888 56.5144 55.3769C56.196 55.137 55.8799 54.9063 55.7576 54.514Z" fill="#D1D3D4"/>
<path d="M50.0144 61.5234C48.0625 61.5234 45.8822 61.0158 44.4633 60.229C44.3987 60.1935 44.3464 60.1392 44.3135 60.0732C44.2806 60.0072 44.2686 59.9327 44.2791 59.8597C44.2896 59.7868 44.3222 59.7187 44.3724 59.6647C44.4227 59.6108 44.4882 59.5734 44.5602 59.5576C48.1612 58.8501 51.8654 58.8501 55.4663 59.5576C55.5384 59.5734 55.6039 59.6108 55.6541 59.6647C55.7043 59.7187 55.7369 59.7868 55.7474 59.8597C55.758 59.9327 55.746 60.0072 55.713 60.0732C55.6801 60.1392 55.6279 60.1935 55.5632 60.229C54.1443 61.0158 51.964 61.5234 50.0144 61.5234Z" fill="#F37F94"/>
<path d="M50.0154 59.3892C51.8163 59.3855 53.6131 59.5602 55.3796 59.9106C53.9814 60.6859 51.8565 61.1611 50.0061 61.1611C48.1558 61.1611 46.0285 60.6859 44.6304 59.9106C46.4006 59.5595 48.2014 59.3848 50.0061 59.3892M50.0061 58.6647C48.147 58.658 46.2919 58.8381 44.4689 59.2023C44.3249 59.2344 44.1942 59.3096 44.094 59.4178C43.9938 59.5259 43.9288 59.662 43.9078 59.808C43.8868 59.954 43.9107 60.1028 43.9762 60.2349C44.0418 60.367 44.1461 60.476 44.2751 60.5474C45.7447 61.3596 47.9919 61.8879 50.0015 61.8879C52.0111 61.8879 54.256 61.3596 55.7257 60.5474C55.8547 60.476 55.9589 60.367 56.0245 60.2349C56.0901 60.1028 56.1139 59.954 56.0929 59.808C56.0719 59.662 56.0069 59.5259 55.9067 59.4178C55.8065 59.3096 55.6758 59.2344 55.5318 59.2023C53.7088 58.8379 51.8537 58.6578 49.9946 58.6647H50.0061Z" fill="#3C2415"/>
<g style="mix-blend-mode:multiply">
<path d="M50.1332 60.5452C50.0512 60.7572 49.9524 60.9625 49.8379 61.1589H50.2093C50.1418 60.9618 50.1159 60.7528 50.1332 60.5452Z" fill="#BCBEC0"/>
</g>
</g>
<defs>
<linearGradient id="paint0_linear_3247_2963" x1="1.86264e-07" y1="50" x2="100" y2="50" gradientUnits="userSpaceOnUse">
<stop offset="0.385417" stop-color="#54FA6B"/>
<stop offset="0.484375" stop-color="#7DFF88"/>
<stop offset="0.604454" stop-color="#5EFB67"/>
</linearGradient>
<clipPath id="clip0_3247_2963">
<rect width="39.9998" height="40" fill="white" transform="translate(30 30)"/>
</clipPath>
</defs>
</svg>
