<svg width="100" height="100" viewBox="0 0 100 100" fill="none" xmlns="http://www.w3.org/2000/svg">
<rect width="100" height="100" rx="20" fill="url(#paint0_linear_3247_2973)"/>
<g clip-path="url(#clip0_3247_2973)">
<path d="M50.1399 66.7029C60.0857 66.4546 67.9471 58.1907 67.6988 48.2449C67.4505 38.2992 59.1866 30.4378 49.2408 30.6861C39.2951 30.9343 31.4337 39.1983 31.682 49.144C31.9303 59.0898 40.1942 66.9512 50.1399 66.7029Z" fill="#27AAE1"/>
<path d="M49.6909 31.3628C53.1198 31.3628 56.4717 32.3796 59.3228 34.2846C62.1738 36.1897 64.396 38.8973 65.7081 42.0652C67.0203 45.2331 67.3637 48.719 66.6947 52.082C66.0258 55.4451 64.3746 58.5342 61.95 60.9588C59.5254 63.3834 56.4362 65.0346 53.0732 65.7036C49.7101 66.3725 46.2243 66.0292 43.0564 64.717C39.8884 63.4048 37.1808 61.1827 35.2758 58.3317C33.3708 55.4806 32.354 52.1287 32.354 48.6998C32.3546 44.1019 34.1813 39.6925 37.4325 36.4413C40.6837 33.1902 45.093 31.3634 49.6909 31.3628ZM49.6909 30.0087C45.9942 30.0091 42.3807 31.1057 39.3073 33.1597C36.2338 35.2138 33.8385 38.1331 32.4241 41.5485C31.0098 44.9639 30.6399 48.722 31.3614 52.3475C32.0828 55.9731 33.8631 59.3034 36.4772 61.9171C39.0913 64.5309 42.4217 66.3109 46.0474 67.0319C49.6731 67.7529 53.4311 67.3826 56.8463 65.9679C60.2616 64.5531 63.1806 62.1575 65.2343 59.0838C67.288 56.0101 68.3842 52.3964 68.3842 48.6998C68.3785 43.744 66.4071 38.9928 62.9026 35.4887C59.3981 31.9846 54.6467 30.0138 49.6909 30.0087Z" fill="#3C2415"/>
<g opacity="0.3">
<path d="M35.8706 50.4809C35.8717 47.4595 36.7517 44.5036 38.4034 41.9735C40.0551 39.4435 42.4071 37.4486 45.1727 36.2319C47.9384 35.0153 50.9983 34.6294 53.9794 35.1214C56.9605 35.6134 59.7341 36.962 61.9622 39.0027C60.6485 37.2859 58.9917 35.8614 57.0974 34.8198C55.203 33.7783 53.1125 33.1426 50.959 32.9532C48.8055 32.7638 46.6362 33.0248 44.5891 33.7197C42.542 34.4145 40.662 35.5279 39.0687 36.9891C37.4755 38.4503 36.2039 40.2271 35.335 42.2066C34.466 44.1861 34.0187 46.3248 34.0215 48.4866C34.0243 50.6484 34.4772 52.7859 35.3513 54.7632C36.2254 56.7404 37.5016 58.5139 39.0986 59.9709C37.0006 57.2528 35.8651 53.9146 35.8706 50.4809Z" fill="white"/>
</g>
<g style="mix-blend-mode:multiply" opacity="0.75">
<path d="M60.8983 35.4598C63.7103 38.7793 65.1715 43.0345 64.9921 47.3812C64.8126 51.7279 63.0056 55.8483 59.9295 58.9246C56.8535 62.0009 52.7333 63.8084 48.3866 63.9882C44.0399 64.168 39.7845 62.7071 36.4648 59.8954C38.0144 61.7246 39.9265 63.2125 42.0803 64.2652C44.2341 65.3179 46.5828 65.9125 48.978 66.0113C51.3733 66.1102 53.763 65.7113 55.9963 64.8397C58.2295 63.9682 60.2577 62.6429 61.9528 60.9477C63.6479 59.2525 64.9729 57.2241 65.8443 54.9908C66.7157 52.7575 67.1144 50.3677 67.0153 47.9725C66.9162 45.5773 66.3214 43.2286 65.2685 41.0749C64.2157 38.9212 62.7276 37.0092 60.8983 35.4598Z" fill="#27AAE1"/>
</g>
<path d="M43.4115 50.593C42.2732 50.593 41.1605 50.2555 40.2141 49.6231C39.2676 48.9907 38.5299 48.0919 38.0943 47.0402C37.6587 45.9886 37.5448 44.8314 37.7668 43.715C37.9889 42.5986 38.537 41.5731 39.3419 40.7682C40.1468 39.9633 41.1723 39.4152 42.2887 39.1931C43.4051 38.971 44.5623 39.085 45.614 39.5206C46.6656 39.9562 47.5644 40.6939 48.1968 41.6403C48.8292 42.5868 49.1668 43.6995 49.1668 44.8378C49.1651 46.3636 48.5581 47.8265 47.4792 48.9055C46.4003 49.9844 44.9374 50.5913 43.4115 50.593Z" fill="white"/>
<path d="M43.4112 39.4318C44.4804 39.4318 45.5256 39.7489 46.4146 40.3429C47.3036 40.9369 47.9965 41.7812 48.4057 42.769C48.8148 43.7568 48.9219 44.8437 48.7133 45.8924C48.5047 46.941 47.9898 47.9043 47.2338 48.6603C46.4778 49.4163 45.5145 49.9312 44.4659 50.1398C43.4172 50.3484 42.3303 50.2413 41.3425 49.8322C40.3547 49.423 39.5104 48.7301 38.9164 47.8411C38.3223 46.9521 38.0053 45.9069 38.0053 44.8377C38.0053 43.404 38.5748 42.029 39.5887 41.0152C40.6025 40.0014 41.9775 39.4318 43.4112 39.4318ZM43.4112 38.7332C42.2039 38.7332 41.0236 39.0912 40.0197 39.762C39.0158 40.4327 38.2334 41.3861 37.7713 42.5016C37.3093 43.6171 37.1884 44.8445 37.4239 46.0287C37.6595 47.2129 38.2409 48.3006 39.0946 49.1543C39.9484 50.0081 41.0361 50.5895 42.2203 50.825C43.4045 51.0606 44.6319 50.9397 45.7473 50.4776C46.8628 50.0156 47.8162 49.2332 48.487 48.2293C49.1578 47.2254 49.5158 46.0451 49.5158 44.8377C49.5141 43.2192 48.8704 41.6675 47.7259 40.523C46.5815 39.3786 45.0297 38.7349 43.4112 38.7332Z" fill="#3C2415"/>
<path d="M45.956 40.068C46.985 40.9238 47.6599 42.1309 47.8502 43.4556C48.0406 44.7804 47.7327 46.1286 46.9862 47.2395C46.2397 48.3504 45.1077 49.1448 43.8093 49.4691C42.5108 49.7935 41.1382 49.6246 39.957 48.9952C40.5386 49.4789 41.2151 49.8351 41.943 50.0409C42.6708 50.2467 43.4338 50.2974 44.1825 50.1899C44.9312 50.0823 45.649 49.8188 46.2894 49.4165C46.9299 49.0141 47.4788 48.4818 47.9007 47.854C48.3226 47.2262 48.608 46.5169 48.7385 45.7718C48.8691 45.0268 48.8418 44.2627 48.6585 43.5288C48.4752 42.795 48.14 42.1078 47.6745 41.5117C47.2089 40.9155 46.6235 40.4237 45.956 40.068Z" fill="#D1D3D4"/>
<path d="M45.192 45.7412C45.192 46.3997 44.9967 47.0434 44.6309 47.5909C44.265 48.1385 43.745 48.5652 43.1367 48.8172C42.5283 49.0692 41.8589 49.1351 41.2131 49.0067C40.5672 48.8782 39.974 48.5611 39.5084 48.0955C39.0427 47.6298 38.7256 47.0366 38.5972 46.3908C38.4687 45.7449 38.5346 45.0755 38.7866 44.4671C39.0386 43.8588 39.4654 43.3388 40.0129 42.973C40.5604 42.6071 41.2041 42.4119 41.8626 42.4119C42.7456 42.4119 43.5924 42.7626 44.2168 43.387C44.8412 44.0114 45.192 44.8582 45.192 45.7412Z" fill="#00A79D"/>
<path d="M45.192 45.7412C45.192 46.3997 44.9967 47.0434 44.6309 47.5909C44.265 48.1385 43.745 48.5652 43.1367 48.8172C42.5283 49.0692 41.8589 49.1351 41.2131 49.0067C40.5672 48.8782 39.974 48.5611 39.5084 48.0955C39.0427 47.6298 38.7256 47.0366 38.5972 46.3908C38.4687 45.7449 38.5346 45.0755 38.7866 44.4671C39.0386 43.8588 39.4654 43.3388 40.0129 42.973C40.5604 42.6071 41.2041 42.4119 41.8626 42.4119C42.7456 42.4119 43.5924 42.7626 44.2168 43.387C44.8412 44.0114 45.192 44.8582 45.192 45.7412Z" fill="#27AAE1"/>
<path d="M43.6998 45.7413C43.6998 46.1046 43.592 46.4598 43.3902 46.7619C43.1883 47.0641 42.9014 47.2995 42.5657 47.4386C42.23 47.5777 41.8606 47.614 41.5042 47.5431C41.1478 47.4723 40.8204 47.2973 40.5635 47.0403C40.3066 46.7834 40.1316 46.4561 40.0607 46.0997C39.9898 45.7433 40.0262 45.3739 40.1652 45.0382C40.3043 44.7025 40.5398 44.4156 40.8419 44.2137C41.144 44.0118 41.4992 43.9041 41.8626 43.9041C42.1039 43.9038 42.343 43.9511 42.566 44.0433C42.789 44.1356 42.9917 44.2709 43.1623 44.4415C43.333 44.6122 43.4683 44.8148 43.5605 45.0379C43.6527 45.2609 43.7001 45.4999 43.6998 45.7413Z" fill="#3C2415"/>
<path d="M41.9975 43.7121C41.9975 43.9923 41.9144 44.2662 41.7587 44.4992C41.6031 44.7322 41.3818 44.9138 41.1229 45.021C40.8641 45.1282 40.5792 45.1563 40.3044 45.1016C40.0296 45.0469 39.7771 44.912 39.579 44.7139C39.3809 44.5158 39.2459 44.2633 39.1913 43.9885C39.1366 43.7137 39.1647 43.4288 39.2719 43.17C39.3791 42.9111 39.5607 42.6898 39.7937 42.5342C40.0267 42.3785 40.3006 42.2954 40.5808 42.2954C40.7668 42.2954 40.951 42.3321 41.1229 42.4033C41.2948 42.4744 41.451 42.5788 41.5825 42.7104C41.7141 42.8419 41.8184 42.9981 41.8896 43.17C41.9608 43.3419 41.9975 43.5261 41.9975 43.7121Z" fill="white"/>
<path d="M43.8166 47.1989C43.8166 47.3201 43.7807 47.4385 43.7134 47.5392C43.6461 47.6399 43.5505 47.7184 43.4386 47.7647C43.3266 47.8111 43.2035 47.8232 43.0847 47.7996C42.9659 47.776 42.8568 47.7176 42.7712 47.632C42.6855 47.5463 42.6272 47.4372 42.6036 47.3184C42.5799 47.1996 42.5921 47.0765 42.6384 46.9646C42.6848 46.8527 42.7633 46.757 42.864 46.6898C42.9647 46.6225 43.0831 46.5865 43.2042 46.5865C43.3666 46.5865 43.5224 46.6511 43.6372 46.7659C43.7521 46.8808 43.8166 47.0365 43.8166 47.1989Z" fill="white"/>
<path d="M56.0756 50.593C54.9373 50.593 53.8246 50.2555 52.8781 49.6231C51.9317 48.9907 51.194 48.0919 50.7584 47.0402C50.3228 45.9886 50.2088 44.8314 50.4309 43.715C50.653 42.5986 51.2011 41.5731 52.006 40.7682C52.8109 39.9633 53.8364 39.4152 54.9528 39.1931C56.0692 38.971 57.2264 39.085 58.278 39.5206C59.3296 39.9562 60.2285 40.6939 60.8609 41.6403C61.4933 42.5868 61.8308 43.6995 61.8308 44.8378C61.8297 46.3638 61.223 47.827 60.1439 48.9061C59.0648 49.9852 57.6016 50.5919 56.0756 50.593Z" fill="white"/>
<path d="M56.0751 39.4318C57.1444 39.4314 58.1898 39.7481 59.0791 40.3418C59.9683 40.9356 60.6616 41.7797 61.0711 42.7675C61.4805 43.7552 61.5879 44.8423 61.3796 45.8911C61.1712 46.9398 60.6565 47.9033 59.9006 48.6595C59.1446 49.4158 58.1814 49.9309 57.1327 50.1396C56.084 50.3484 54.9969 50.2415 54.009 49.8324C53.0211 49.4233 52.1766 48.7304 51.5825 47.8413C50.9884 46.9523 50.6713 45.907 50.6713 44.8377C50.6713 43.4044 51.2406 42.0297 52.2539 41.0159C53.2673 40.0022 54.6417 39.4324 56.0751 39.4318ZM56.0751 38.7332C54.8678 38.7336 53.6878 39.092 52.6842 39.763C51.6805 40.434 50.8984 41.3876 50.4367 42.5031C49.975 43.6186 49.8544 44.846 50.0902 46.03C50.326 47.214 50.9076 48.3016 51.7614 49.1551C52.6152 50.0086 53.703 50.5898 54.8871 50.8252C56.0712 51.0605 57.2985 50.9395 58.4139 50.4774C59.5292 50.0153 60.4825 49.2329 61.1532 48.229C61.8239 47.2252 62.1818 46.045 62.1818 44.8377C62.1801 43.2189 61.5361 41.6668 60.3912 40.5223C59.2463 39.3778 57.694 38.7343 56.0751 38.7332Z" fill="#3C2415"/>
<path d="M58.6222 40.068C59.6528 40.9235 60.3291 42.1311 60.52 43.4568C60.711 44.7825 60.403 46.1319 59.6558 47.2435C58.9086 48.355 57.7753 49.1497 56.4756 49.4733C55.1759 49.7969 53.8023 49.6266 52.6211 48.9952C53.2027 49.478 53.8791 49.8335 54.6066 50.0386C55.3341 50.2438 56.0965 50.2941 56.8447 50.1863C57.5929 50.0786 58.3101 49.8151 58.9501 49.4129C59.5901 49.0108 60.1387 48.4789 60.5604 47.8516C60.9821 47.2242 61.2675 46.5155 61.3983 45.771C61.5291 45.0265 61.5023 44.2629 61.3197 43.5294C61.137 42.7959 60.8026 42.1089 60.3379 41.5127C59.8733 40.9164 59.2888 40.4243 58.6222 40.068Z" fill="#D1D3D4"/>
<path d="M60.1455 42.8539C60.1459 43.513 59.9508 44.1574 59.5849 44.7056C59.219 45.2538 58.6987 45.6812 58.0899 45.9336C57.481 46.186 56.811 46.2522 56.1645 46.1237C55.5181 45.9952 54.9243 45.6779 54.4582 45.2118C53.9922 44.7458 53.6748 44.152 53.5463 43.5055C53.4179 42.859 53.484 42.189 53.7364 41.5802C53.9889 40.9713 54.4162 40.451 54.9644 40.0851C55.5126 39.7192 56.157 39.5241 56.8161 39.5245C57.6991 39.5245 58.546 39.8753 59.1703 40.4997C59.7947 41.1241 60.1455 41.9709 60.1455 42.8539Z" fill="#27AAE1"/>
<path d="M58.6353 42.8539C58.6353 43.2174 58.5275 43.5727 58.3256 43.8748C58.1236 44.177 57.8365 44.4125 57.5007 44.5515C57.1649 44.6905 56.7954 44.7267 56.4389 44.6557C56.0825 44.5846 55.7551 44.4094 55.4983 44.1523C55.2414 43.8951 55.0666 43.5675 54.996 43.211C54.9253 42.8545 54.962 42.485 55.1014 42.1494C55.2408 41.8137 55.4766 41.5269 55.779 41.3253C56.0814 41.1237 56.4368 41.0163 56.8003 41.0167C57.2872 41.0173 57.7539 41.2111 58.098 41.5556C58.4421 41.9001 58.6353 42.367 58.6353 42.8539Z" fill="#3C2415"/>
<path d="M56.9408 40.8248C56.9408 41.105 56.8578 41.3789 56.7021 41.6119C56.5464 41.8449 56.3252 42.0264 56.0663 42.1337C55.8074 42.2409 55.5226 42.2689 55.2477 42.2143C54.9729 42.1596 54.7205 42.0247 54.5224 41.8266C54.3242 41.6284 54.1893 41.376 54.1346 41.1012C54.08 40.8264 54.108 40.5415 54.2153 40.2826C54.3225 40.0238 54.5041 39.8025 54.737 39.6468C54.97 39.4912 55.2439 39.4081 55.5241 39.4081C55.8999 39.4081 56.2602 39.5573 56.5259 39.823C56.7916 40.0887 56.9408 40.4491 56.9408 40.8248Z" fill="white"/>
<path d="M58.758 44.3116C58.758 44.4328 58.722 44.5513 58.6546 44.6521C58.5873 44.7528 58.4915 44.8313 58.3795 44.8776C58.2674 44.9239 58.1442 44.9359 58.0253 44.9121C57.9065 44.8883 57.7974 44.8297 57.7118 44.7439C57.6263 44.658 57.5681 44.5487 57.5447 44.4298C57.5213 44.3108 57.5338 44.1876 57.5804 44.0758C57.6271 43.9639 57.7059 43.8684 57.8069 43.8014C57.9079 43.7343 58.0265 43.6988 58.1478 43.6992C58.3098 43.6998 58.465 43.7646 58.5794 43.8794C58.6938 43.9941 58.758 44.1496 58.758 44.3116Z" fill="white"/>
<path d="M49.76 60.8507C44.8457 60.8507 40.8457 57.9289 40.8457 54.3364C40.8457 53.8685 40.8457 52.4453 42.1395 52.4453C42.6419 52.4453 43.263 52.6609 44.05 52.9542C45.3913 53.4415 47.2285 54.1057 49.622 54.1057C52.0155 54.1057 53.9066 53.448 55.2931 52.9671C56.1341 52.676 56.8026 52.4453 57.3352 52.4453C58.6807 52.4453 58.6807 53.8685 58.6807 54.3364C58.6721 57.9289 54.6743 60.8507 49.76 60.8507Z" fill="#F7B9D4"/>
<path d="M57.3273 52.909C57.9138 52.909 58.2092 53.2713 58.2092 54.3365C58.2092 57.6788 54.427 60.3872 49.7607 60.3872C45.0944 60.3872 41.3122 57.6702 41.3122 54.3365C41.3122 53.2713 41.5817 52.909 42.1316 52.909C43.309 52.909 45.7693 54.5694 49.6141 54.5694C53.4588 54.5694 56.0701 52.909 57.3273 52.909ZM57.3273 51.9818C56.7149 51.9818 56.0162 52.2233 55.1321 52.5295C53.778 52.9996 51.9235 53.6422 49.6141 53.6422C47.3046 53.6422 45.517 52.9952 44.1995 52.5187C43.3693 52.219 42.7138 51.9818 42.1316 51.9818C41.3338 51.9818 40.3828 52.3893 40.3828 54.3365C40.3828 56.2837 41.4006 58.0475 43.2464 59.3694C44.9974 60.6244 47.3111 61.3101 49.7607 61.3101C52.2103 61.3101 54.5219 60.6179 56.275 59.3694C58.1208 58.0475 59.1365 56.2599 59.1365 54.3365C59.1365 53.6163 59.0179 53.1009 58.7634 52.7128C58.608 52.4768 58.3939 52.2853 58.1421 52.1571C57.8903 52.029 57.6095 51.9685 57.3273 51.9818Z" fill="#3C2415"/>
<path d="M49.758 56.4194C49.356 56.4345 48.959 56.3269 48.6195 56.1111C48.3531 56.2484 48.0566 56.3166 47.757 56.3095C47.6569 56.3097 47.5568 56.3047 47.4572 56.2944C47.0541 56.2655 46.6691 56.1152 46.3532 55.8631C46.151 55.9439 45.9348 55.9842 45.7171 55.9817C45.532 55.9804 45.3476 55.9587 45.1672 55.917C44.768 55.8438 44.4004 55.6514 44.1128 55.365C43.9724 55.4045 43.8273 55.4241 43.6815 55.4232C43.4228 55.4196 43.1664 55.3737 42.9225 55.2874C42.6801 55.2219 42.4539 55.1069 42.2583 54.9495C42.0627 54.7921 41.9019 54.5958 41.7861 54.3731C41.7082 54.1912 41.67 53.9948 41.6741 53.7969C41.6782 53.5991 41.7245 53.4044 41.8098 53.2259C41.9011 53.0187 42.0169 52.8233 42.1548 52.6437C42.198 52.5868 42.2537 52.5407 42.3177 52.5089C42.3817 52.4771 42.4521 52.4605 42.5235 52.4604C42.5551 52.4572 42.5869 52.4572 42.6184 52.4604C43.1054 52.5796 43.5838 52.7316 44.0502 52.9154C45.3915 53.4006 47.2287 54.0647 49.6222 54.0647C52.0157 54.0647 53.9068 53.4178 55.2934 52.9283C55.8195 52.7285 56.3602 52.5692 56.9106 52.4518H56.9861C57.0573 52.4518 57.1276 52.4681 57.1915 52.4995C57.2554 52.5309 57.3113 52.5765 57.3548 52.6329C57.4981 52.8155 57.6176 53.0154 57.7106 53.2281C57.7962 53.4068 57.8428 53.6018 57.8472 53.7999C57.8517 53.9981 57.8139 54.1949 57.7365 54.3774C57.6202 54.6002 57.459 54.7965 57.2631 54.9539C57.0671 55.1112 56.8406 55.2263 56.5979 55.2917C56.3547 55.3778 56.0991 55.4237 55.8411 55.4275C55.6953 55.428 55.5502 55.4084 55.4098 55.3693C55.1229 55.6566 54.7549 55.8492 54.3553 55.9213C54.1757 55.9631 53.992 55.9848 53.8076 55.986C53.5863 55.9896 53.3664 55.9493 53.1607 55.8674C52.8463 56.1206 52.4617 56.2712 52.0589 56.2987C51.9593 56.309 51.8592 56.314 51.7591 56.3138C51.4595 56.3209 51.163 56.2527 50.8966 56.1154C50.5571 56.3312 50.16 56.4388 49.758 56.4237V56.4194Z" fill="white"/>
<path d="M56.9925 52.9089C57.1122 53.061 57.2122 53.2277 57.29 53.4049C57.5984 54.1316 57.1499 54.6081 56.4534 54.8453C56.2588 54.9151 56.0542 54.953 55.8475 54.9574C55.6296 54.9661 55.4157 54.8973 55.2437 54.7634C55.1165 55.1299 54.7326 55.3564 54.2582 55.462C54.1111 55.4962 53.9607 55.5143 53.8097 55.5159C53.6746 55.5237 53.5393 55.5038 53.4121 55.4575C53.2849 55.4111 53.1685 55.3393 53.0701 55.2464C52.9041 55.5957 52.5008 55.779 52.02 55.8329C51.9337 55.8329 51.8496 55.8458 51.7698 55.8458C51.6018 55.8599 51.4329 55.8349 51.2761 55.7728C51.1194 55.7107 50.9791 55.6132 50.8663 55.4879C50.6658 55.8178 50.2453 55.9558 49.7623 55.9558C49.2793 55.9558 48.8609 55.8178 48.6582 55.4879C48.5464 55.6138 48.4066 55.7118 48.2501 55.7739C48.0936 55.8361 47.9246 55.8607 47.7569 55.8458C47.6733 55.8458 47.5899 55.8415 47.5068 55.8329C47.0259 55.779 46.6205 55.5957 46.4566 55.2464C46.358 55.339 46.2416 55.4106 46.1144 55.4569C45.9873 55.5033 45.8521 55.5233 45.717 55.5159C45.566 55.5143 45.4156 55.4962 45.2685 55.462C44.7919 55.3564 44.4059 55.1299 44.2809 54.7634C44.1097 54.8974 43.8965 54.9661 43.6793 54.9574C43.4719 54.953 43.2665 54.9152 43.0712 54.8453C42.3768 54.6081 41.9262 54.1316 42.2345 53.4049C42.3108 53.2338 42.4071 53.0724 42.5213 52.924C43.8151 53.1871 46.1526 54.5369 49.62 54.5369C53.1758 54.5369 55.6577 53.1375 56.9989 52.9089M56.9989 51.9817C56.9469 51.9817 56.895 51.986 56.8437 51.9946C56.2628 52.1178 55.6925 52.2865 55.138 52.4992C53.7817 52.9671 51.9272 53.6097 49.6178 53.6097C47.3084 53.6097 45.5208 52.9628 44.2033 52.4884C43.7157 52.2966 43.2157 52.1381 42.7068 52.014C42.5355 51.9783 42.3576 51.9919 42.1938 52.0534C42.0301 52.1149 41.8871 52.2216 41.7817 52.3612C41.621 52.5698 41.4864 52.7972 41.3806 53.0383C41.2691 53.2759 41.2094 53.5345 41.2053 53.7969C41.2012 54.0594 41.2529 54.3197 41.3569 54.5607C41.5919 55.0868 42.0814 55.4879 42.7693 55.7229C43.0609 55.8264 43.3677 55.881 43.6771 55.8847C43.7745 55.8848 43.8717 55.8783 43.9682 55.8652C44.29 56.1158 44.6658 56.2878 45.0658 56.3677C45.2781 56.4161 45.495 56.4414 45.7127 56.4431C45.8986 56.4441 46.084 56.4223 46.2647 56.3785C46.61 56.5904 46.9997 56.7196 47.4033 56.7558C47.5193 56.7687 47.6359 56.7751 47.7526 56.7752C48.0377 56.7777 48.321 56.7295 48.5892 56.6329C48.9579 56.7978 49.3573 56.8831 49.7612 56.8831C50.1651 56.8831 50.5645 56.7978 50.9332 56.6329C51.2022 56.7293 51.4862 56.7775 51.772 56.7752C51.8895 56.7753 52.0069 56.7681 52.1235 56.7537C52.5264 56.7191 52.9156 56.5906 53.2599 56.3785C53.4405 56.4225 53.6259 56.4442 53.8119 56.4431C54.0296 56.4414 54.2465 56.4161 54.4588 56.3677C54.8581 56.2878 55.2332 56.1158 55.5542 55.8652C55.6514 55.8784 55.7494 55.8849 55.8475 55.8847C56.1569 55.881 56.4636 55.8264 56.7553 55.7229C57.0584 55.6382 57.3404 55.491 57.5833 55.2909C57.8261 55.0907 58.0244 54.842 58.1655 54.5607C58.2686 54.3218 58.3201 54.064 58.3168 53.8039C58.3134 53.5438 58.2553 53.2873 58.1461 53.0512C58.0366 52.8022 57.8968 52.5675 57.7299 52.3526C57.6431 52.2401 57.5317 52.149 57.4043 52.0862C57.2768 52.0234 57.1367 51.9906 56.9946 51.9903L56.9989 51.9817Z" fill="#3C2415"/>
<path d="M44.6188 53.8685C44.2673 54.2696 43.9353 54.703 43.4824 54.9467C43.6193 54.9728 43.7602 54.9701 43.896 54.939C44.0319 54.9078 44.1598 54.8487 44.2716 54.7656C44.3243 54.8952 44.4032 55.0124 44.5034 55.11C44.6036 55.2076 44.7229 55.2834 44.8538 55.3327C44.6845 54.8637 44.6048 54.367 44.6188 53.8685Z" fill="#D1D3D4"/>
<path d="M46.65 54.6729C46.5294 54.9301 46.385 55.1756 46.2188 55.406C46.299 55.3652 46.3719 55.3113 46.4344 55.2464C46.4805 55.3458 46.5474 55.434 46.6306 55.5052C46.6101 55.2278 46.6166 54.949 46.65 54.6729Z" fill="#D1D3D4"/>
<path d="M48.2852 55.7596C48.4339 55.7061 48.5646 55.612 48.6625 55.4879C48.7147 55.5715 48.782 55.6446 48.8609 55.7036C48.8178 55.434 48.8091 55.1559 48.794 54.9165C48.6604 55.2177 48.4894 55.501 48.2852 55.7596Z" fill="#D1D3D4"/>
<path d="M50.707 55.6733C50.7697 55.6204 50.8236 55.5578 50.8666 55.4879C50.9919 55.6422 51.1648 55.7506 51.3582 55.7962C51.1793 55.5055 51.0544 55.1848 50.9895 54.8496C50.8628 55.1119 50.7679 55.3885 50.707 55.6733Z" fill="#D1D3D4"/>
<path d="M52.7402 55.6066C52.8826 55.5208 52.9972 55.3958 53.0702 55.2464C53.2224 55.3948 53.4212 55.4862 53.633 55.5052C53.4609 55.26 53.3019 55.0059 53.1564 54.744C53.0055 55.0265 52.8804 55.3219 52.7402 55.6066Z" fill="#D1D3D4"/>
<path d="M55.1503 54.1488C55.2087 54.4517 55.1803 54.7649 55.0684 55.0523C55.1462 54.9693 55.2057 54.8709 55.243 54.7634C55.4189 54.8994 55.6376 54.9682 55.8597 54.9574C55.5622 54.7332 55.2667 54.5154 55.1503 54.1488Z" fill="#D1D3D4"/>
<path d="M53.6372 69.6593C52.2787 69.6593 51.2479 69.1073 50.8102 68.1499C50.3943 67.2685 50.0684 66.3474 49.8377 65.4005C49.7816 65.2043 49.7277 65.0102 49.6695 64.814C49.4517 63.9474 49.1134 63.1156 48.6647 62.3429C48.4575 62.0235 48.2159 61.7278 47.9444 61.4609C47.7951 61.3093 47.6382 61.1654 47.4744 61.0296C47.2027 60.7989 47.0431 60.6609 46.9978 60.4733C46.9583 60.337 46.9488 60.1937 46.97 60.0533C46.9912 59.913 47.0427 59.7789 47.1207 59.6604C47.4312 59.1795 48.1126 58.9854 48.6302 58.9057C48.9155 58.861 49.2039 58.8394 49.4927 58.841C49.6717 58.841 49.8161 58.841 49.9347 58.8539C50.118 58.5024 50.5687 58.3278 51.2803 58.3278C51.7319 58.3354 52.1821 58.3815 52.6258 58.4658L52.6733 58.4765C54.1094 58.9509 54.9396 61.379 55.2285 62.4011C55.4198 63.1499 55.7099 63.87 56.0911 64.5423L56.2657 64.9218C56.973 66.4593 57.6415 67.9127 56.2399 68.9089C55.4663 69.4124 54.5601 69.6737 53.6372 69.6593Z" fill="#F37F94"/>
<path d="M51.2728 58.6707C51.707 58.6778 52.1398 58.7218 52.5666 58.8022C53.8496 59.2335 54.6604 61.6508 54.8997 62.496C55.0942 63.2666 55.3908 64.0078 55.7817 64.6998C56.5601 66.4249 57.2911 67.7359 56.034 68.633C55.3192 69.0912 54.485 69.3282 53.6361 69.3144C52.5752 69.3144 51.5445 68.937 51.1197 68.0012C50.6021 67.0071 50.324 65.8448 49.9962 64.7127C49.7695 63.8147 49.4174 62.953 48.9504 62.1532C48.7278 61.8108 48.469 61.4935 48.1784 61.2065C47.8119 60.8313 47.359 60.5316 47.3288 60.3958C47.1391 59.6971 47.9197 59.3564 48.6787 59.24C48.9455 59.1989 49.2152 59.1787 49.4852 59.1796C49.7137 59.1697 49.9425 59.1878 50.1666 59.2335C50.2054 59.2076 50.0501 58.6664 51.2728 58.6664M51.2728 57.985C50.4426 57.985 49.9941 58.22 49.7633 58.5004H49.4938C49.187 58.4995 48.8806 58.5226 48.5773 58.5694C47.9995 58.6599 47.2232 58.8885 46.8415 59.4729C46.7374 59.6327 46.6688 59.813 46.6402 60.0015C46.6115 60.1901 46.6236 60.3826 46.6755 60.5661C46.7488 60.8551 46.9644 61.0384 47.262 61.2885C47.4022 61.4092 47.5639 61.5451 47.6933 61.6853L47.7127 61.7025C47.9651 61.953 48.1899 62.2299 48.3833 62.5284C48.8107 63.2714 49.1343 64.0695 49.345 64.9003C49.4011 65.0944 49.455 65.2906 49.511 65.4847C49.7492 66.4502 50.0836 67.3893 50.5094 68.288C51.0097 69.3661 52.1482 69.9828 53.6383 69.9828C54.6271 69.9949 55.5971 69.7119 56.4243 69.1699C56.7749 68.9418 57.0512 68.6162 57.219 68.233C57.3868 67.8498 57.4389 67.4259 57.3687 67.0136C57.2739 66.3171 56.9375 65.6012 56.5623 64.771L56.3962 64.4087C56.3921 64.3975 56.387 64.3867 56.3811 64.3764C56.011 63.7245 55.7317 63.0251 55.5509 62.2977C55.2469 61.2195 54.3671 58.6707 52.7757 58.1446L52.6787 58.1208C52.2156 58.034 51.746 57.9864 51.2749 57.9785L51.2728 57.985Z" fill="#3C2415"/>
<path d="M50.1328 59.2378C50.2105 59.2637 50.2862 59.2954 50.3592 59.3327C50.5505 59.4339 50.7298 59.5561 50.894 59.6971C51.0065 59.7887 51.1125 59.8881 51.211 59.9947C51.3188 60.1046 51.4266 60.2319 51.5258 60.3634C51.625 60.4949 51.7285 60.6373 51.8169 60.7947C51.9105 60.9454 51.9961 61.1008 52.0735 61.2604C52.1468 61.4243 52.2288 61.5817 52.2891 61.7478C52.3514 61.9073 52.4054 62.07 52.4509 62.2351C52.4983 62.3947 52.5371 62.5499 52.5695 62.6987C52.6018 62.8475 52.6212 62.9877 52.6406 63.1192C52.662 63.2374 52.675 63.3571 52.6794 63.4771C52.6794 63.585 52.6902 63.6798 52.6924 63.7553C52.6924 63.9106 52.6924 63.999 52.6924 63.999C52.6924 63.999 52.6536 63.917 52.5932 63.7833C52.5328 63.6497 52.4638 63.4362 52.3625 63.199C52.3129 63.0804 52.2611 62.951 52.2115 62.813C52.1619 62.675 52.0908 62.537 52.0347 62.3817C51.9786 62.2265 51.901 62.0885 51.8385 61.9354C51.7759 61.7823 51.6983 61.6335 51.6228 61.4825C51.5474 61.3316 51.4676 61.185 51.3964 61.0362C51.3253 60.8874 51.239 60.7515 51.1592 60.6049C51.0794 60.4583 51.0018 60.3397 50.9177 60.2232C50.8336 60.1068 50.7603 59.9904 50.687 59.8868C50.6137 59.7833 50.5404 59.6928 50.4714 59.613C50.4024 59.5332 50.3463 59.462 50.2967 59.3974C50.1975 59.3003 50.1328 59.2378 50.1328 59.2378Z" fill="#3C2415"/>
<path opacity="0.3" d="M49.7737 59.8027C49.3921 59.6129 47.7489 59.8394 48.3398 60.5445C48.9306 61.2496 50.205 62.565 50.3818 63.5418C50.5586 64.5186 51.7058 64.911 51.57 63.434C51.4341 61.9569 50.3581 60.0938 49.7737 59.8027Z" fill="white"/>
<g style="mix-blend-mode:multiply" opacity="0.2">
<path d="M50.4414 59.4598C50.4414 59.4598 51.3277 59.4598 52.0091 60.4151C52.6905 61.3703 52.5977 63.4922 52.5977 63.4922C52.5977 63.4922 52.2096 60.8809 50.4414 59.4598Z" fill="#F37F94"/>
</g>
</g>
<defs>
<linearGradient id="paint0_linear_3247_2973" x1="1.86264e-07" y1="50" x2="100" y2="50" gradientUnits="userSpaceOnUse">
<stop offset="0.385417" stop-color="#54FA6B"/>
<stop offset="0.484375" stop-color="#7DFF88"/>
<stop offset="0.604454" stop-color="#5EFB67"/>
</linearGradient>
<clipPath id="clip0_3247_2973">
<rect width="37.3844" height="40" fill="white" transform="translate(31 30)"/>
</clipPath>
</defs>
</svg>
