<svg width="100" height="100" viewBox="0 0 100 100" fill="none" xmlns="http://www.w3.org/2000/svg">
<rect width="100" height="100" rx="20" fill="url(#paint0_linear_3247_2978)"/>
<g clip-path="url(#clip0_3247_2978)">
<path d="M49.9994 69.2756C46.1867 69.2756 42.4596 68.1449 39.2896 66.0267C36.1195 63.9084 33.6487 60.8977 32.1898 57.3752C30.7309 53.8527 30.3492 49.9767 31.0932 46.2373C31.8372 42.4979 33.6734 39.0632 36.3695 36.3674C39.0656 33.6716 42.5006 31.8358 46.2401 31.0923C49.9795 30.3488 53.8555 30.7308 57.3778 32.1902C60.9001 33.6496 63.9106 36.1207 66.0285 39.291C68.1463 42.4613 69.2765 46.1885 69.2761 50.0012C69.2706 55.1118 67.2378 60.0114 63.6238 63.625C60.0099 67.2385 55.11 69.2707 49.9994 69.2756Z" fill="#EF5BA1"/>
<path d="M49.9992 31.4512C53.668 31.4512 57.2545 32.5392 60.305 34.5775C63.3555 36.6157 65.7331 39.5129 67.1371 42.9024C68.5411 46.292 68.9085 50.0217 68.1927 53.6201C67.4769 57.2184 65.7102 60.5237 63.116 63.1179C60.5217 65.7122 57.2165 67.4789 53.6181 68.1946C50.0198 68.9104 46.29 68.543 42.9005 67.139C39.5109 65.735 36.6138 63.3575 34.5755 60.3069C32.5372 57.2564 31.4493 53.67 31.4493 50.0012C31.449 47.5651 31.9286 45.1528 32.8607 42.9021C33.7928 40.6513 35.1592 38.6063 36.8818 36.8837C38.6043 35.1611 40.6494 33.7948 42.9001 32.8626C45.1508 31.9305 47.5631 31.4509 49.9992 31.4512ZM49.9992 30C46.0434 30 42.1763 31.173 38.8872 33.3708C35.598 35.5686 33.0344 38.6923 31.5206 42.347C30.0067 46.0018 29.6106 50.0233 30.3824 53.9032C31.1541 57.783 33.059 61.3469 35.8563 64.1441C38.6535 66.9413 42.2173 68.8462 46.0972 69.618C49.977 70.3897 53.9986 69.9937 57.6533 68.4798C61.3081 66.966 64.4318 64.4024 66.6296 61.1132C68.8273 57.824 70.0004 53.957 70.0004 50.0012C69.9943 44.6984 67.885 39.6146 64.1354 35.8649C60.3858 32.1153 55.302 30.0061 49.9992 30Z" fill="#3C2415"/>
<g opacity="0.3">
<path d="M35.2128 51.9139C35.2145 48.6812 36.1564 45.5188 37.9238 42.8121C39.6912 40.1054 42.2078 37.9713 45.1669 36.6698C48.126 35.3683 51.3997 34.9556 54.5892 35.4821C57.7787 36.0086 60.7462 37.4515 63.13 39.6349C61.7244 37.7979 59.9517 36.2737 57.9248 35.1594C55.8979 34.045 53.6611 33.3648 51.357 33.1621C49.0528 32.9594 46.7317 33.2387 44.5414 33.9822C42.351 34.7256 40.3395 35.917 38.6348 37.4804C36.9301 39.0438 35.5695 40.945 34.6398 43.0629C33.71 45.1809 33.2314 47.4693 33.2344 49.7823C33.2374 52.0954 33.7219 54.3825 34.6572 56.498C35.5925 58.6136 36.958 60.5112 38.6667 62.0702C36.4216 59.1611 35.2066 55.5885 35.2128 51.9139Z" fill="white"/>
</g>
<g style="mix-blend-mode:multiply" opacity="0.75">
<path d="M61.9906 35.8464C64.9962 39.3985 66.5571 43.9505 66.3637 48.5995C66.1703 53.2486 64.2368 57.6552 60.9466 60.9454C57.6564 64.2356 53.2498 66.1691 48.6007 66.3625C43.9517 66.5559 39.3997 64.995 35.8477 61.9894C37.505 63.9481 39.5508 65.5417 41.8555 66.6694C44.1602 67.7971 46.6739 68.4345 49.2375 68.5411C51.8011 68.6477 54.359 68.2214 56.7495 67.2889C59.1399 66.3565 61.3109 64.9383 63.1252 63.124C64.9395 61.3097 66.3577 59.1387 67.2902 56.7482C68.2226 54.3578 68.649 51.7999 68.5423 49.2363C68.4357 46.6727 67.7984 44.159 66.6706 41.8543C65.5429 39.5495 63.9493 37.5038 61.9906 35.8464Z" fill="#EC008C"/>
</g>
<path d="M38.6309 47.9247C38.6309 46.699 39.1177 45.5236 39.9844 44.6569C40.8511 43.7902 42.0265 43.3033 43.2522 43.3033C44.4778 43.3033 45.6533 43.7902 46.52 44.6569C47.3866 45.5236 47.8735 46.699 47.8735 47.9247" stroke="#3C2415" stroke-width="4.19" stroke-linecap="round" stroke-linejoin="round"/>
<path d="M51.8965 47.9247C51.8965 46.699 52.3834 45.5236 53.25 44.6569C54.1167 43.7902 55.2922 43.3033 56.5178 43.3033C57.7435 43.3033 58.9189 43.7902 59.7856 44.6569C60.6523 45.5236 61.1391 46.699 61.1391 47.9247" stroke="#3C2415" stroke-width="4.19" stroke-linecap="round" stroke-linejoin="round"/>
<path d="M50.0179 60.1898C43.9823 60.1898 40.5215 58.1964 40.5215 54.7217C40.5215 54.2233 40.5215 52.7075 41.8897 52.7075C42.4249 52.7075 43.0871 52.9382 43.9246 53.2497C45.3551 53.7665 47.3116 54.4748 49.861 54.4748C52.4105 54.4748 54.427 53.7827 55.9013 53.2636C56.7988 52.9521 57.5163 52.7075 58.077 52.7075C59.5121 52.7075 59.5121 54.2233 59.5121 54.7217C59.5121 58.1917 56.0513 60.1898 50.0179 60.1898Z" fill="#F7B9D4"/>
<path d="M58.0775 53.1966C58.7027 53.1966 59.0188 53.5843 59.0188 54.7171C59.0188 58.2771 54.9881 59.6891 50.0207 59.6891C45.0533 59.6891 41.0226 58.2771 41.0226 54.7171C41.0226 53.5843 41.311 53.1966 41.8971 53.1966C43.1522 53.1966 45.7732 54.964 49.8685 54.964C53.9638 54.964 56.7485 53.1966 58.0844 53.1966M58.0844 52.2092C57.4338 52.2092 56.7001 52.4653 55.7472 52.7929C54.3052 53.2912 52.3279 53.9765 49.8685 53.9765C47.409 53.9765 45.4963 53.2843 44.1005 52.7814C43.2168 52.4607 42.5177 52.2092 41.8971 52.2092C41.048 52.2092 40.0352 52.6429 40.0352 54.7171C40.0352 58.5055 43.6759 60.6789 50.0254 60.6789C56.3748 60.6789 60.0132 58.5055 60.0132 54.7171C60.0132 53.9511 59.8863 53.402 59.6164 52.989C59.451 52.737 59.2226 52.5325 58.9539 52.3957C58.6853 52.2589 58.3856 52.1946 58.0844 52.2092Z" fill="#3C2415"/>
<path d="M50.0162 56.9366C49.5878 56.9525 49.1647 56.8383 48.8026 56.609C48.5173 56.7552 48.2001 56.8281 47.8797 56.8213C47.7733 56.8207 47.667 56.8145 47.5613 56.8028C47.1322 56.771 46.7228 56.6102 46.3869 56.3414C46.1706 56.428 45.9393 56.4712 45.7063 56.4683C45.5098 56.4667 45.314 56.4435 45.1226 56.3991C44.6975 56.32 44.3061 56.115 43.999 55.8107C43.8489 55.8532 43.6935 55.8742 43.5375 55.873C43.262 55.8694 42.989 55.8195 42.73 55.7254C42.4715 55.6562 42.2302 55.5342 42.0213 55.367C41.8124 55.1998 41.6405 54.9911 41.5164 54.754C41.4341 54.5599 41.394 54.3505 41.3988 54.1396C41.4036 53.9288 41.4531 53.7214 41.5441 53.5312C41.6407 53.3102 41.7638 53.1018 41.9109 52.9106C41.9683 52.8374 42.0447 52.7814 42.1318 52.7488C42.219 52.7162 42.3134 52.7083 42.4047 52.726C42.9232 52.8547 43.4326 53.0173 43.9297 53.2128C45.3579 53.7296 47.3167 54.4379 49.8662 54.4379C52.4156 54.4379 54.4298 53.7458 55.9064 53.2267C56.4721 53.0097 57.0537 52.8369 57.6461 52.7098H57.7291C57.8045 52.7094 57.879 52.7265 57.9466 52.7597C58.0143 52.7929 58.0733 52.8414 58.1191 52.9013C58.2713 53.0966 58.3991 53.3096 58.4997 53.5358C58.5908 53.7265 58.6403 53.9342 58.6451 54.1454C58.6499 54.3566 58.6098 54.5664 58.5274 54.761C58.4034 54.998 58.2314 55.2068 58.0225 55.374C57.8136 55.5412 57.5723 55.6632 57.3138 55.7323C57.0548 55.8264 56.7819 55.8763 56.5063 55.88C56.3503 55.8809 56.195 55.8599 56.0449 55.8177C55.7381 56.1224 55.3465 56.3274 54.9213 56.406C54.7298 56.4506 54.5341 56.4738 54.3375 56.4752C54.1045 56.4781 53.8732 56.435 53.6569 56.3483C53.321 56.6171 52.9116 56.778 52.4826 56.8098C52.3768 56.8215 52.2705 56.8276 52.1642 56.8282C51.8437 56.835 51.5266 56.7621 51.2413 56.6159C50.8799 56.8451 50.4576 56.9594 50.03 56.9436L50.0162 56.9366Z" fill="white"/>
<path d="M57.7245 53.1967C57.8508 53.3594 57.9569 53.5368 58.0406 53.725C58.3682 54.4979 57.8884 55.0078 57.15 55.2593C56.9418 55.334 56.7229 55.3746 56.5017 55.3793C56.2702 55.3874 56.0431 55.3139 55.8603 55.1716C55.7242 55.5615 55.3158 55.8038 54.8082 55.9169C54.6523 55.9527 54.4929 55.9713 54.3329 55.9722C54.1889 55.9807 54.0446 55.9597 53.9089 55.9105C53.7733 55.8613 53.649 55.785 53.5439 55.6861C53.3685 56.0599 52.9371 56.2537 52.4249 56.3114C52.3367 56.3205 52.2482 56.3251 52.1596 56.3252C51.9807 56.34 51.8009 56.3133 51.634 56.2473C51.4672 56.1813 51.3178 56.0777 51.1975 55.9445C50.9829 56.2952 50.5353 56.4429 50.0208 56.4429C49.5063 56.4429 49.0587 56.2952 48.8441 55.9445C48.7239 56.0778 48.5745 56.1815 48.4076 56.2475C48.2407 56.3136 48.0609 56.3402 47.882 56.3252C47.7942 56.3251 47.7064 56.3205 47.619 56.3114C47.1022 56.2537 46.673 56.0599 46.4977 55.6861C46.3925 55.785 46.2683 55.8613 46.1326 55.9105C45.997 55.9597 45.8527 55.9807 45.7086 55.9722C45.5486 55.9713 45.3892 55.9527 45.2333 55.9169C44.7257 55.8038 44.3104 55.5615 44.1812 55.1716C43.9986 55.3143 43.7714 55.3878 43.5398 55.3793C43.3187 55.3746 43.0997 55.334 42.8915 55.2593C42.1532 55.0078 41.6733 54.4979 42.0009 53.725C42.0816 53.5415 42.1846 53.3687 42.3078 53.2105C43.6921 53.4943 46.1747 54.9317 49.8685 54.9317C53.6569 54.9317 56.2895 53.4389 57.7315 53.1967M57.7315 52.2092C57.677 52.2045 57.6222 52.2045 57.5676 52.2092C56.9482 52.3423 56.3397 52.522 55.7473 52.7468C54.3053 53.2474 52.328 53.9304 49.8685 53.9304C47.409 53.9304 45.4848 53.2382 44.1005 52.7352C43.5812 52.5314 43.0485 52.3633 42.5062 52.2323C42.3241 52.1944 42.135 52.2088 41.9608 52.2737C41.7865 52.3386 41.634 52.4514 41.521 52.5991C41.3502 52.8209 41.2068 53.0626 41.0942 53.3189C40.9749 53.5728 40.9109 53.8491 40.9065 54.1295C40.9021 54.4099 40.9575 54.6881 41.0688 54.9455C41.2198 55.2449 41.4315 55.5096 41.6906 55.7225C41.9496 55.9354 42.2502 56.092 42.5731 56.1822C42.8835 56.293 43.2102 56.3515 43.5398 56.3552C43.644 56.3553 43.7481 56.3484 43.8513 56.3345C44.1931 56.6019 44.593 56.7853 45.0188 56.8697C45.2458 56.9219 45.4779 56.9489 45.7109 56.9505C45.9092 56.951 46.1069 56.927 46.2993 56.879C46.6667 57.1064 47.0824 57.2447 47.5128 57.2827C47.6362 57.2963 47.7602 57.3033 47.8843 57.3035C48.1886 57.3062 48.491 57.2546 48.7772 57.1512C49.1697 57.3276 49.5951 57.4187 50.0254 57.4187C50.4557 57.4187 50.8811 57.3276 51.2736 57.1512C51.5607 57.2544 51.8637 57.306 52.1688 57.3035C52.2929 57.3033 52.4169 57.2963 52.5402 57.2827C52.9707 57.2447 53.3864 57.1064 53.7538 56.879C53.9463 56.927 54.1439 56.951 54.3422 56.9505C54.5752 56.9489 54.8073 56.9219 55.0343 56.8697C55.4601 56.7853 55.86 56.6019 56.2018 56.3345C56.305 56.3484 56.4091 56.3553 56.5133 56.3552C56.8436 56.3513 57.171 56.2928 57.4823 56.1822C58.2137 55.933 58.7351 55.5039 58.9843 54.9432C59.0958 54.6879 59.1514 54.4117 59.1474 54.1332C59.1434 53.8547 59.0799 53.5802 58.9612 53.3282C58.846 53.0619 58.6971 52.8114 58.5182 52.5829C58.4257 52.4637 58.3071 52.3672 58.1715 52.3008C58.036 52.2344 57.887 52.1999 57.7361 52.2L57.7315 52.2092Z" fill="#3C2415"/>
<path d="M44.5433 54.2188C44.1695 54.6456 43.8165 55.107 43.332 55.3724C43.4782 55.4002 43.6285 55.3974 43.7735 55.364C43.9185 55.3306 44.0549 55.2675 44.1742 55.1785C44.23 55.3168 44.3141 55.442 44.4209 55.5461C44.5277 55.6501 44.6551 55.7308 44.7948 55.783C44.6131 55.2821 44.5277 54.7514 44.5433 54.2188Z" fill="#D1D3D4"/>
<path d="M46.7038 55.077C46.5779 55.3501 46.4273 55.6112 46.2539 55.8569C46.3399 55.8134 46.4179 55.7557 46.4846 55.6861C46.5339 55.7924 46.6055 55.8868 46.6946 55.963C46.6677 55.6681 46.6708 55.3713 46.7038 55.077Z" fill="#D1D3D4"/>
<path d="M48.4355 56.233C48.5934 56.1758 48.7324 56.0759 48.837 55.9446C48.8927 56.0341 48.9647 56.1123 49.0493 56.1753C49.0108 55.8976 48.9869 55.618 48.9777 55.3378C48.8348 55.6575 48.6527 55.9582 48.4355 56.233Z" fill="#D1D3D4"/>
<path d="M51.0332 56.1406C51.1002 56.0848 51.1579 56.0186 51.2039 55.9445C51.3376 56.1064 51.5208 56.2199 51.7254 56.2675C51.5335 55.9574 51.3998 55.615 51.3308 55.257C51.1971 55.5387 51.0972 55.8354 51.0332 56.1406Z" fill="#D1D3D4"/>
<path d="M53.1914 56.0715C53.3429 55.9794 53.4646 55.8456 53.5421 55.6862C53.7038 55.845 53.9161 55.9422 54.142 55.9607C53.959 55.6997 53.7896 55.4294 53.6344 55.1509C53.4729 55.4508 53.3391 55.7669 53.1914 56.0715Z" fill="#D1D3D4"/>
<path d="M55.7595 54.5164C55.8221 54.8389 55.7917 55.1726 55.6719 55.4785C55.7551 55.3905 55.8188 55.2859 55.8588 55.1716C56.0465 55.3165 56.2795 55.3901 56.5163 55.3792C56.1979 55.1393 55.8772 54.9086 55.7595 54.5164Z" fill="#D1D3D4"/>
</g>
<defs>
<linearGradient id="paint0_linear_3247_2978" x1="1.86264e-07" y1="50" x2="100" y2="50" gradientUnits="userSpaceOnUse">
<stop offset="0.385417" stop-color="#54FA6B"/>
<stop offset="0.484375" stop-color="#7DFF88"/>
<stop offset="0.604454" stop-color="#5EFB67"/>
</linearGradient>
<clipPath id="clip0_3247_2978">
<rect width="40" height="40" fill="white" transform="translate(30 30)"/>
</clipPath>
</defs>
</svg>
