<svg width="249" height="283" viewBox="0 0 249 283" fill="none" xmlns="http://www.w3.org/2000/svg">
<g clip-path="url(#clip0_3247_2982)">
<path d="M129.096 204.449L85.0531 190.992L52.3256 158.583L96.3704 172.049L129.096 204.449Z" fill="#754C29" stroke="#3C2415" stroke-width="3.33325" stroke-linecap="round" stroke-linejoin="round"/>
<path d="M97.2041 211.172C88.7112 205.239 85.1239 197.064 81.954 189.399C74.7594 171.985 79.1037 149.395 105.286 156.153C113.08 158.167 120.951 163.947 121.173 170.686C121.399 177.606 113.224 179.134 105.341 177.01C84.5539 171.425 83.4233 147.809 90.9937 139.208C96.8253 132.568 107.522 129.628 119.261 131.364C125.71 132.332 133.607 133.823 139.73 137.725" stroke="#3C2415" stroke-width="4.86418" stroke-miterlimit="10" stroke-linecap="round"/>
<path d="M100.035 253.094L55.9926 239.637L23.265 207.229L67.3098 220.694L100.035 253.094Z" fill="#754C29" stroke="#3C2415" stroke-width="3.33325" stroke-linecap="round" stroke-linejoin="round"/>
<path d="M100.034 253.093L55.9914 239.637L85.0251 191.04L129.068 204.496L100.034 253.093Z" fill="white" stroke="#3C2415" stroke-width="3.33325" stroke-linecap="round" stroke-linejoin="round"/>
<path d="M98.5746 247.083L63.0689 236.23L86.4743 197.054L121.984 207.9L98.5746 247.083Z" fill="#00877F" stroke="#3C2415" stroke-width="3.33325" stroke-linecap="round" stroke-linejoin="round"/>
<path d="M23.2651 207.229L55.9927 239.637L85.0264 191.04L52.2988 158.631L23.2651 207.229Z" fill="#D1D3D4" stroke="#3C2415" stroke-width="3.33325" stroke-linecap="round" stroke-linejoin="round"/>
<path d="M29.8768 205.497L55.5978 230.963L78.4144 192.773L52.6934 167.306L29.8768 205.497Z" fill="#FAA61A" stroke="#3C2415" stroke-width="3.33325" stroke-linecap="round" stroke-linejoin="round"/>
<path d="M132.344 219.31L88.2956 205.85L85.0251 191.04L129.068 204.496L132.344 219.31Z" fill="#BE1E2D" stroke="#3C2415" stroke-width="3.33325" stroke-linecap="round" stroke-linejoin="round"/>
<g style="mix-blend-mode:multiply">
<path d="M48.6639 208.16C47.4382 195.504 49.6439 182.993 57.6795 173.016C58.5081 171.955 59.2974 170.919 60.0915 169.902L51.9766 161.884L25.095 206.879L55.5459 236.979L58.8686 231.418C53.5607 224.712 49.5497 217.152 48.6639 208.16Z" fill="#D1D3D4"/>
</g>
<path d="M37.7068 162.77L70.4284 195.176L85.0257 191.04L52.2981 158.631L37.7068 162.77Z" fill="#BE1E2D" stroke="#3C2415" stroke-width="3.33325" stroke-linecap="round" stroke-linejoin="round"/>
<path d="M47.9753 205.933C45.8785 204.681 45.6157 201.403 47.3716 198.464C49.1276 195.524 52.1349 194.208 54.2317 195.461C56.3285 196.714 56.5913 199.992 54.8389 202.925C53.0866 205.858 50.0661 207.182 47.9753 205.933Z" fill="#D1D3D4"/>
<path d="M53.6751 196.394C55.2223 197.318 55.3276 199.991 53.9072 202.369C52.4867 204.746 50.0794 205.926 48.5322 205.002C46.985 204.077 46.8797 201.404 48.3037 199.021C49.7277 196.637 52.1279 195.469 53.6751 196.394ZM54.7886 194.53C52.1721 192.966 48.5063 194.448 46.4399 197.907C44.3734 201.366 44.8021 205.302 47.4187 206.866C50.0352 208.429 53.701 206.947 55.771 203.482C57.841 200.017 57.4052 196.093 54.7886 194.53Z" fill="#3C2415"/>
<path d="M52.9079 182.439L51.7788 181.764C51.5677 181.638 51.2942 181.707 51.1681 181.918L42.5704 196.309C42.4442 196.52 42.5131 196.794 42.7243 196.92L43.8534 197.594C44.0645 197.721 44.3379 197.652 44.4641 197.44L53.0618 183.049C53.1879 182.838 53.119 182.565 52.9079 182.439Z" fill="#A7A9AC"/>
<path d="M52.6774 182.827L44.0833 197.212L42.9602 196.541L51.5544 182.156L52.6834 182.831M53.1438 182.06L52.0148 181.386C51.8104 181.264 51.5659 181.228 51.335 181.286C51.1041 181.344 50.9058 181.492 50.7837 181.696L42.1896 196.081C42.0675 196.285 42.0316 196.53 42.0898 196.761C42.148 196.992 42.2955 197.19 42.4998 197.312L43.6289 197.987C43.7298 198.047 43.8417 198.087 43.958 198.104C44.0744 198.12 44.1929 198.114 44.3068 198.085C44.4207 198.056 44.5276 198.004 44.6216 197.934C44.7155 197.863 44.7944 197.774 44.8539 197.673L53.4481 183.288C53.5092 183.187 53.5497 183.076 53.5675 182.96C53.5853 182.843 53.5798 182.725 53.5516 182.611C53.5233 182.497 53.4727 182.389 53.4027 182.295C53.3327 182.2 53.2447 182.121 53.1438 182.06Z" fill="#3C2415"/>
<path d="M44.1829 197.79C44.0815 197.73 44.0084 197.631 43.9795 197.517C43.9506 197.402 43.9685 197.281 44.029 197.18L52.6232 182.795C52.6837 182.693 52.7821 182.62 52.8966 182.591C53.0112 182.562 53.1325 182.58 53.2339 182.641L54.363 183.315C54.4644 183.376 54.5375 183.474 54.5664 183.589C54.5953 183.703 54.5775 183.825 54.5169 183.926L46.865 196.734L51.3991 199.443C51.5011 199.504 51.575 199.602 51.6049 199.717C51.6348 199.832 51.6183 199.954 51.559 200.057L50.8274 201.282C50.7971 201.333 50.757 201.377 50.7095 201.412C50.6619 201.447 50.6079 201.472 50.5505 201.486C50.4931 201.5 50.4335 201.503 50.3751 201.493C50.3168 201.484 50.2609 201.463 50.2106 201.432L44.1829 197.79Z" fill="#737577"/>
<path d="M54.1345 183.698L46.2827 196.841L51.1992 199.778L50.4676 201.003L44.422 197.391L53.0054 183.024L54.1345 183.698ZM54.5949 182.928L53.4658 182.253C53.3649 182.193 53.2531 182.153 53.1367 182.136C53.0204 182.119 52.9019 182.126 52.788 182.155C52.6741 182.184 52.5671 182.235 52.4732 182.306C52.3793 182.377 52.3003 182.465 52.2408 182.567L43.6467 196.952C43.5856 197.052 43.545 197.164 43.5272 197.28C43.5095 197.396 43.5149 197.515 43.5432 197.629C43.5715 197.743 43.6221 197.85 43.692 197.945C43.762 198.039 43.85 198.119 43.9509 198.179L49.9965 201.791C50.2009 201.913 50.4454 201.949 50.6762 201.891C50.9071 201.833 51.1054 201.685 51.2275 201.481L51.9591 200.256C52.0812 200.052 52.1172 199.807 52.059 199.576C52.0008 199.346 51.8533 199.147 51.6489 199.025L47.5031 196.548L54.9051 184.159C55.0272 183.954 55.0632 183.71 55.005 183.479C54.9468 183.248 54.7993 183.05 54.5949 182.928Z" fill="#3C2415"/>
<path d="M36.2133 179.339C36.0548 179.244 35.9405 179.09 35.8954 178.912C35.8503 178.733 35.8781 178.543 35.9728 178.385L38.3247 174.448C38.4194 174.289 38.5731 174.175 38.7521 174.13C38.931 174.085 39.1206 174.113 39.279 174.207L51.8241 181.702C51.903 181.75 51.9716 181.812 52.026 181.887C52.0804 181.961 52.1196 182.045 52.1412 182.135C52.2815 183.133 52.0452 184.148 51.4782 184.981C50.3647 186.845 49.2979 186.921 49.1093 186.897C48.9922 186.895 48.8776 186.863 48.7762 186.804L36.2133 179.339Z" fill="#6D6E71"/>
<path d="M51.432 182.278C51.5267 183.111 51.3139 183.949 50.8337 184.636C49.8737 186.243 49.08 186.215 49.08 186.215L36.5708 178.741L38.9227 174.805L51.4678 182.3M52.1816 181.105L39.6365 173.61C39.3196 173.421 38.9405 173.365 38.5826 173.455C38.2247 173.545 37.9173 173.774 37.728 174.091L35.376 178.028C35.1867 178.345 35.131 178.724 35.2212 179.082C35.3114 179.439 35.5401 179.747 35.857 179.936L48.402 187.431C48.6095 187.558 48.8458 187.629 49.0887 187.639C49.5744 187.653 50.8188 187.456 52.0679 185.366C52.7455 184.373 53.0185 183.159 52.8313 181.971C52.7878 181.791 52.7088 181.621 52.5988 181.472C52.4889 181.323 52.3503 181.197 52.1911 181.102L52.1816 181.105Z" fill="#3C2415"/>
<path d="M36.4402 179.449C35.4546 178.86 35.3502 177.298 36.1924 175.889C37.0347 174.479 38.4561 173.836 39.4417 174.425C40.4274 175.014 40.5294 176.567 39.6871 177.976C38.8449 179.386 37.42 180.035 36.4402 179.449Z" fill="#A7A9AC"/>
<path d="M39.0656 175.053C39.6988 175.431 39.7022 176.592 39.0705 177.649C38.4388 178.707 37.4111 179.26 36.7779 178.882C36.1446 178.503 36.1388 177.333 36.7705 176.275C37.4022 175.218 38.4264 174.671 39.0656 175.053ZM39.7794 173.858C38.4412 173.058 36.6358 173.787 35.5758 175.562C34.5158 177.336 34.7259 179.277 36.0641 180.077C37.4022 180.876 39.2053 180.137 40.2652 178.363C41.3252 176.589 41.1115 174.654 39.7794 173.858Z" fill="#3C2415"/>
<path d="M131.306 162.068C119.571 155.071 110.934 143.875 107.144 130.748C103.354 117.622 104.694 103.545 110.893 91.3697C117.092 79.1941 127.687 69.8295 140.532 65.1723C153.376 60.5151 167.511 60.9134 180.073 66.2866C192.635 71.6598 202.685 81.6062 208.189 94.1116C213.693 106.617 214.238 120.747 209.715 133.639C205.191 146.531 195.937 157.223 183.827 163.548C171.717 169.874 157.655 171.361 144.49 167.707C139.864 166.423 135.43 164.526 131.306 162.068Z" fill="#27AAE1"/>
<path d="M185.565 71.3694C196.863 78.1134 205.176 88.8992 208.82 101.542C212.464 114.186 211.168 127.741 205.192 139.464C199.217 151.187 189.01 160.201 176.638 164.681C164.266 169.16 150.654 168.771 138.559 163.591C126.463 158.411 116.788 148.828 111.493 136.783C106.198 124.738 105.679 111.13 110.04 98.7158C114.401 86.3017 123.318 76.009 134.983 69.9221C146.648 63.8351 160.191 62.4089 172.868 65.9323C177.319 67.1689 181.585 68.9951 185.553 71.3623M187.626 67.8915C177.599 61.8924 165.943 59.1886 154.298 60.1605C142.654 61.1324 131.607 65.7311 122.713 73.3095C113.819 80.8879 107.525 91.0644 104.717 102.407C101.909 113.749 102.728 125.687 107.059 136.539C111.391 147.392 119.016 156.613 128.862 162.906C138.708 169.198 150.279 172.244 161.947 171.616C173.615 170.988 184.793 166.717 193.907 159.405C203.02 152.092 209.612 142.106 212.753 130.851C216.021 119.053 215.333 106.509 210.796 95.1384C206.258 83.7681 198.119 74.1977 187.626 67.8915Z" fill="#3C2415"/>
<g opacity="0.3">
<path d="M117.737 109.897C120.163 101.193 125.07 93.3843 131.86 87.4228C138.649 81.4612 147.027 77.6047 155.971 76.3241C164.915 75.0435 174.038 76.394 182.228 80.2108C190.417 84.0277 197.319 90.1459 202.09 97.8187C199.675 91.8395 196.043 86.4275 191.426 81.9258C186.809 77.4242 181.306 73.9313 175.268 71.6685C169.229 69.4058 162.786 68.4227 156.348 68.7815C149.909 69.1403 143.615 70.8333 137.865 73.753C132.116 76.6727 127.035 80.7554 122.947 85.7422C118.858 90.729 115.851 96.511 114.115 102.722C112.379 108.932 111.953 115.436 112.863 121.82C113.773 128.204 116 134.329 119.403 139.807C115.552 130.296 114.966 119.776 117.737 109.897Z" fill="white"/>
</g>
<g style="mix-blend-mode:multiply" opacity="0.75">
<path d="M201.837 86.765C207.295 98.5827 208.104 112.022 204.103 124.409C200.103 136.796 191.586 147.223 180.247 153.616C168.908 160.01 155.578 161.9 142.908 158.911C130.239 155.923 119.159 148.275 111.872 137.488C114.865 143.995 119.175 149.81 124.529 154.567C129.883 159.324 136.165 162.919 142.978 165.125C149.792 167.331 156.989 168.101 164.115 167.386C171.241 166.67 178.142 164.485 184.38 160.968C190.619 157.451 196.061 152.678 200.363 146.952C204.664 141.226 207.731 134.67 209.371 127.698C211.011 120.726 211.187 113.49 209.889 106.447C208.591 99.4038 205.847 92.7062 201.83 86.777L201.837 86.765Z" fill="#27AAE1"/>
</g>
<path d="M135.139 114.474C132.551 112.928 130.415 110.729 128.945 108.098C127.475 105.467 126.722 102.495 126.762 99.4815C126.803 96.4676 127.634 93.5173 129.174 90.9262C130.714 88.3351 132.908 86.1943 135.536 84.7184C137.506 83.6006 139.678 82.886 141.927 82.6165C144.176 82.3469 146.455 82.5276 148.633 83.1482C150.811 83.7525 152.847 84.7805 154.627 86.1734C156.406 87.5662 157.893 89.2965 159.002 91.265C160.112 93.2335 160.822 95.4017 161.092 97.6451C161.362 99.8885 161.186 102.163 160.575 104.339C159.969 106.515 158.939 108.549 157.546 110.327C156.152 112.105 154.422 113.591 152.454 114.7C150.486 115.809 148.319 116.519 146.077 116.791C143.834 117.062 141.56 116.889 139.385 116.281C137.895 115.871 136.467 115.263 135.139 114.474Z" fill="white"/>
<path d="M152.267 85.8456C155.786 87.9485 158.374 91.3101 159.507 95.2495C160.64 99.1889 160.233 103.412 158.369 107.062C156.506 110.713 153.324 113.519 149.469 114.912C145.614 116.305 141.373 116.181 137.606 114.565C133.839 112.948 130.828 109.961 129.181 106.207C127.534 102.453 127.376 98.2137 128.737 94.3474C130.099 90.4812 132.88 87.277 136.515 85.3839C140.151 83.4907 144.37 83.0501 148.319 84.1513C149.705 84.5377 151.033 85.1075 152.267 85.8456ZM153.338 84.0535C149.188 81.6829 144.274 81.0345 139.651 82.2476C135.029 83.4607 131.066 86.4384 128.615 90.5412C126.164 94.644 125.42 99.5446 126.542 104.19C127.665 108.836 130.565 112.856 134.619 115.386C136.017 116.218 137.518 116.862 139.085 117.301C143.342 118.492 147.887 118.097 151.875 116.189C155.863 114.281 159.023 110.991 160.767 106.929C162.511 102.866 162.721 98.3091 161.358 94.1037C159.995 89.8983 157.152 86.3308 153.356 84.0642L153.338 84.0535Z" fill="#3C2415"/>
<path d="M155.13 88.0265C157.408 91.3157 158.384 95.3333 157.869 99.3009C157.354 103.269 155.384 106.904 152.342 109.503C149.3 112.101 145.402 113.478 141.403 113.367C137.403 113.256 133.588 111.664 130.695 108.9C131.981 110.757 133.642 112.324 135.571 113.499C137.5 114.674 139.654 115.431 141.894 115.722C144.134 116.013 146.41 115.83 148.575 115.187C150.74 114.543 152.746 113.453 154.463 111.985C156.181 110.518 157.571 108.707 158.545 106.669C159.519 104.631 160.055 102.412 160.118 100.154C160.181 97.8962 159.769 95.6502 158.91 93.5613C158.051 91.4724 156.763 89.5869 155.13 88.0265Z" fill="#D1D3D4"/>
<path d="M148.377 103.739C147.852 105.636 146.776 107.335 145.284 108.621C143.793 109.906 141.954 110.721 140 110.961C138.046 111.201 136.065 110.856 134.307 109.97C132.549 109.083 131.093 107.695 130.124 105.982C129.155 104.268 128.716 102.305 128.863 100.342C129.01 98.3785 129.736 96.5029 130.949 94.9523C132.162 93.4017 133.808 92.2458 135.678 91.6308C137.549 91.0159 139.559 90.9695 141.456 91.4976C143.996 92.2049 146.151 93.8912 147.449 96.1863C148.747 98.4813 149.08 101.198 148.377 103.739Z" fill="#00A79D"/>
<path d="M148.377 103.739C147.852 105.636 146.776 107.335 145.284 108.621C143.793 109.906 141.954 110.721 140 110.961C138.046 111.201 136.065 110.856 134.307 109.97C132.549 109.083 131.093 107.695 130.124 105.982C129.155 104.268 128.716 102.305 128.863 100.342C129.01 98.3785 129.736 96.5029 130.949 94.9523C132.162 93.4017 133.808 92.2458 135.678 91.6308C137.549 91.0159 139.559 90.9695 141.456 91.4976C143.996 92.2049 146.151 93.8912 147.449 96.1863C148.747 98.4813 149.08 101.198 148.377 103.739Z" fill="#27AAE1"/>
<path d="M144.081 102.542C143.79 103.588 143.195 104.525 142.371 105.233C141.548 105.941 140.533 106.388 139.455 106.52C138.377 106.651 137.284 106.459 136.315 105.969C135.346 105.479 134.544 104.713 134.01 103.767C133.476 102.821 133.235 101.739 133.317 100.656C133.399 99.5728 133.8 98.5385 134.47 97.6835C135.139 96.8286 136.047 96.1915 137.079 95.8527C138.111 95.514 139.22 95.4888 140.266 95.7804C141.669 96.1713 142.858 97.1033 143.574 98.3713C144.289 99.6394 144.472 101.14 144.081 102.542Z" fill="#3C2415"/>
<path d="M140.811 95.3348C140.585 96.1403 140.126 96.8609 139.49 97.4054C138.855 97.95 138.073 98.294 137.243 98.3941C136.412 98.4942 135.571 98.3458 134.824 97.9678C134.078 97.5897 133.461 96.9989 133.05 96.27C132.639 95.5411 132.454 94.7069 132.518 93.8727C132.581 93.0386 132.89 92.242 133.406 91.5836C133.922 90.9252 134.622 90.4345 135.417 90.1736C136.212 89.9128 137.066 89.8934 137.872 90.1179C138.953 90.421 139.869 91.1405 140.42 92.1186C140.971 93.0966 141.112 94.2533 140.811 95.3348Z" fill="white"/>
<path d="M143.246 106.833C143.149 107.182 142.951 107.494 142.677 107.731C142.402 107.967 142.064 108.117 141.705 108.161C141.346 108.205 140.981 108.141 140.658 107.978C140.335 107.815 140.067 107.56 139.889 107.245C139.711 106.93 139.63 106.569 139.657 106.208C139.684 105.847 139.818 105.502 140.041 105.216C140.264 104.931 140.566 104.719 140.91 104.606C141.254 104.493 141.624 104.484 141.973 104.581C142.44 104.711 142.837 105.021 143.075 105.444C143.314 105.866 143.375 106.366 143.246 106.833Z" fill="white"/>
<path d="M171.6 124.649C168.844 123.004 166.603 120.621 165.13 117.77C163.658 114.919 163.011 111.712 163.265 108.513C163.518 105.314 164.661 102.249 166.564 99.6651C168.467 97.0812 171.055 95.081 174.036 93.8904C177.016 92.6999 180.27 92.3664 183.43 92.9277C186.589 93.4889 189.529 94.9226 191.917 97.0667C194.305 99.2108 196.046 101.98 196.943 105.061C197.84 108.143 197.858 111.413 196.994 114.504C195.767 118.897 192.847 122.623 188.874 124.863C184.902 127.103 180.202 127.674 175.809 126.45C174.333 126.038 172.917 125.432 171.6 124.649Z" fill="white"/>
<path d="M188.73 96.0146C192.256 98.1156 194.852 101.478 195.991 105.421C197.131 109.364 196.73 113.592 194.868 117.25C193.007 120.908 189.825 123.722 185.967 125.122C182.109 126.522 177.863 126.404 174.089 124.79C170.315 123.177 167.295 120.19 165.641 116.434C163.987 112.678 163.823 108.433 165.181 104.56C166.539 100.687 169.318 97.4748 172.955 95.574C176.593 93.6732 180.817 93.2259 184.772 94.3227C186.161 94.7078 187.492 95.2768 188.73 96.0146ZM189.801 94.2225C185.651 91.8519 180.737 91.2035 176.114 92.4166C171.492 93.6297 167.529 96.6074 165.078 100.71C162.627 104.813 161.882 109.714 163.005 114.359C164.128 119.005 167.027 123.025 171.082 125.555C172.478 126.385 173.977 127.028 175.541 127.466C179.798 128.657 184.343 128.262 188.33 126.355C192.318 124.448 195.478 121.159 197.223 117.097C198.967 113.036 199.178 108.479 197.817 104.274C196.455 100.069 193.613 96.5009 189.819 94.2332L189.801 94.2225Z" fill="#3C2415"/>
<path d="M191.585 98.198C193.863 101.487 194.839 105.505 194.324 109.472C193.809 113.44 191.84 117.075 188.797 119.674C185.755 122.273 181.857 123.65 177.858 123.538C173.858 123.427 170.043 121.836 167.15 119.072C168.436 120.929 170.097 122.495 172.026 123.67C173.955 124.845 176.109 125.603 178.349 125.893C180.589 126.184 182.865 126.002 185.03 125.358C187.195 124.715 189.201 123.624 190.918 122.157C192.636 120.69 194.026 118.879 195 116.841C195.974 114.803 196.51 112.583 196.573 110.325C196.636 108.068 196.224 105.822 195.365 103.733C194.506 101.644 193.218 99.7583 191.585 98.198Z" fill="#D1D3D4"/>
<path d="M193.704 107.433C193.179 109.33 192.103 111.029 190.612 112.315C189.121 113.6 187.282 114.415 185.328 114.655C183.374 114.895 181.392 114.55 179.634 113.664C177.876 112.778 176.421 111.39 175.452 109.676C174.483 107.962 174.044 105.999 174.191 104.036C174.337 102.073 175.063 100.197 176.276 98.6465C177.49 97.0958 179.135 95.9399 181.006 95.325C182.876 94.71 184.887 94.6637 186.783 95.1918C189.324 95.8974 191.481 97.5834 192.779 99.879C194.077 102.175 194.41 104.892 193.704 107.433Z" fill="#27AAE1"/>
<path d="M189.413 106.23C189.122 107.277 188.527 108.213 187.703 108.921C186.88 109.629 185.865 110.077 184.787 110.208C183.709 110.339 182.616 110.147 181.647 109.657C180.678 109.168 179.876 108.401 179.342 107.455C178.808 106.51 178.567 105.427 178.649 104.344C178.731 103.261 179.132 102.227 179.802 101.372C180.471 100.517 181.379 99.8797 182.411 99.541C183.443 99.2022 184.552 99.177 185.598 99.4686C187.001 99.8595 188.19 100.791 188.906 102.06C189.621 103.328 189.804 104.828 189.413 106.23Z" fill="#3C2415"/>
<path d="M186.141 99.0228C185.916 99.8306 185.457 100.554 184.821 101.1C184.185 101.647 183.401 101.992 182.569 102.093C181.736 102.194 180.893 102.046 180.145 101.668C179.396 101.289 178.777 100.697 178.366 99.9663C177.954 99.2357 177.769 98.3994 177.833 97.5633C177.897 96.7272 178.207 95.9289 178.725 95.2694C179.243 94.6099 179.945 94.1188 180.742 93.8582C181.539 93.5977 182.395 93.5795 183.203 93.8059C184.283 94.109 185.2 94.8285 185.751 95.8066C186.302 96.7847 186.442 97.9413 186.141 99.0228Z" fill="white"/>
<path d="M188.576 110.521C188.479 110.87 188.281 111.183 188.007 111.419C187.733 111.655 187.394 111.805 187.035 111.849C186.676 111.893 186.311 111.83 185.988 111.667C185.665 111.503 185.397 111.248 185.219 110.933C185.041 110.618 184.96 110.257 184.987 109.896C185.014 109.535 185.148 109.19 185.371 108.905C185.594 108.62 185.897 108.407 186.24 108.294C186.584 108.181 186.954 108.172 187.303 108.269C187.77 108.399 188.167 108.71 188.405 109.132C188.644 109.554 188.705 110.054 188.576 110.521Z" fill="white"/>
<path d="M140.704 147.207C131.505 141.711 126.785 132.787 128.961 124.992C129.429 123.326 130.182 121.32 131.874 120.645C133.409 120.03 135.024 120.8 136.219 121.514C137.121 122.053 138.104 122.754 139.248 123.567C140.741 124.637 142.441 125.847 144.46 127.054C147.554 128.926 150.887 130.372 154.368 131.352C161.24 133.268 167.225 132.897 171.604 132.635C174.972 132.426 177.405 132.275 179.006 133.231C181.533 134.741 180.611 138.049 180.253 139.286C177.364 149.63 163.507 154.832 149.358 150.877C146.323 150.043 143.413 148.809 140.704 147.207Z" fill="#F7B9D4"/>
<path d="M178.307 134.436C179.383 135.079 179.643 136.393 178.934 138.937C176.253 148.554 163.184 153.319 149.756 149.568C146.829 148.761 144.023 147.567 141.412 146.018C132.953 140.964 128.228 132.808 130.291 125.366C131.429 121.304 132.943 121.171 135.53 122.717C137.525 123.909 140.163 126.101 143.765 128.253C146.968 130.183 150.417 131.671 154.019 132.677C166.044 136.035 175.323 132.621 178.322 134.412M179.749 132.023C177.784 130.849 175.169 131.005 171.551 131.227C167.275 131.493 161.446 131.861 154.77 129.996C151.397 129.058 148.167 127.669 145.168 125.864C143.202 124.69 141.526 123.494 140.054 122.444C138.919 121.629 137.882 120.896 136.932 120.328C135.433 119.432 133.433 118.505 131.336 119.343C129.077 120.248 128.155 122.631 127.608 124.606C125.261 133.012 130.23 142.564 139.974 148.385C142.803 150.067 145.843 151.366 149.015 152.246C156.061 154.21 163.28 154.081 169.331 151.876C175.703 149.555 180.067 145.223 181.615 139.687C182.647 135.991 182.003 133.434 179.727 132.074L179.749 132.023Z" fill="#3C2415"/>
<path d="M139.746 132.798C138.813 132.277 138.044 131.506 137.525 130.572C136.494 130.537 135.492 130.219 134.629 129.652L134.158 129.371C133.511 128.988 132.951 128.475 132.514 127.865C132.076 127.254 131.77 126.56 131.615 125.825C131.539 125.239 131.589 124.643 131.76 124.078C131.932 123.513 132.221 122.99 132.61 122.545C133.038 122.021 133.528 121.552 134.069 121.147C134.278 120.99 134.526 120.895 134.786 120.873C135.046 120.85 135.307 120.901 135.539 121.02C135.766 121.156 136.005 121.298 136.262 121.452C137.164 121.991 138.148 122.692 139.285 123.501C140.784 124.575 142.478 125.782 144.498 126.988C147.589 128.86 150.92 130.304 154.399 131.282C161.277 133.203 167.256 132.827 171.636 132.566C173.329 132.408 175.032 132.379 176.729 132.48C176.927 132.502 177.118 132.567 177.289 132.669C177.551 132.823 177.754 133.059 177.869 133.34C178.132 133.979 178.315 134.649 178.413 135.334C178.515 135.914 178.493 136.508 178.349 137.079C178.205 137.649 177.942 138.183 177.577 138.645C177.064 139.192 176.443 139.627 175.753 139.922C175.063 140.217 174.32 140.367 173.57 140.36C172.376 140.477 171.176 140.232 170.124 139.656L170.076 139.627C169.019 140.225 167.803 140.483 166.594 140.368C165.568 140.345 164.563 140.07 163.667 139.568C163.507 139.488 163.353 139.396 163.207 139.293C162.1 139.759 160.876 139.877 159.699 139.629C158.864 139.507 158.059 139.23 157.327 138.811C157.012 138.636 156.719 138.426 156.453 138.184C155.3 138.532 154.069 138.52 152.923 138.15C152.302 137.984 151.705 137.737 151.149 137.414C150.67 137.135 150.244 136.774 149.89 136.346C148.704 136.568 147.479 136.424 146.376 135.933C145.99 135.781 145.616 135.599 145.259 135.387C144.577 134.995 143.991 134.454 143.546 133.804C142.34 133.899 141.134 133.62 140.092 133.005L139.746 132.798Z" fill="white"/>
<path d="M176.583 133.851C176.807 134.386 176.962 134.947 177.044 135.521C177.35 137.86 175.67 138.866 173.479 138.992C172.563 139.085 171.641 138.908 170.824 138.484C170.521 138.309 170.26 138.07 170.059 137.784C169.401 138.736 168.128 139.062 166.666 138.999C165.863 138.982 165.076 138.773 164.371 138.39C163.97 138.161 163.64 137.826 163.417 137.423C162.664 138.303 161.354 138.501 159.924 138.262C159.259 138.173 158.618 137.958 158.034 137.627C157.52 137.34 157.116 136.89 156.884 136.349C156.032 137.137 154.717 137.195 153.32 136.806C152.817 136.673 152.333 136.474 151.882 136.214C151.227 135.868 150.732 135.282 150.501 134.578C149.575 135.273 148.255 135.19 146.91 134.646C146.59 134.521 146.281 134.372 145.985 134.199C145.577 133.992 145.22 133.698 144.938 133.338C144.656 132.977 144.456 132.559 144.354 132.113C143.355 132.7 142.049 132.471 140.764 131.785L140.46 131.603C139.337 130.932 138.552 130.034 138.488 128.974C137.96 129.152 137.398 129.2 136.848 129.115C136.297 129.031 135.775 128.815 135.326 128.487L134.931 128.251C133.121 127.008 132.208 125.279 133.669 123.444C134.025 123.011 134.434 122.623 134.886 122.29C135.089 122.412 135.304 122.54 135.531 122.676C137.526 123.868 140.168 126.054 143.77 128.206C146.967 130.143 150.412 131.639 154.009 132.654C164.237 135.521 172.486 133.463 176.558 133.893M177.986 131.503C177.641 131.299 177.257 131.169 176.859 131.122C175.09 131.011 173.315 131.034 171.549 131.192C167.272 131.458 161.443 131.826 154.767 129.961C151.409 129.008 148.195 127.606 145.212 125.793C143.24 124.615 141.57 123.422 140.091 122.369C138.957 121.554 137.926 120.824 136.976 120.256C136.689 120.085 136.427 119.928 136.176 119.778C135.711 119.541 135.189 119.438 134.669 119.483C134.149 119.528 133.653 119.718 133.236 120.032C132.608 120.502 132.04 121.048 131.544 121.656C131.031 122.252 130.65 122.949 130.427 123.703C130.203 124.456 130.141 125.248 130.245 126.027C130.428 126.951 130.801 127.827 131.341 128.598C131.88 129.37 132.575 130.021 133.38 130.51L133.923 130.835C134.779 131.364 135.734 131.714 136.73 131.863C137.348 132.717 138.14 133.43 139.054 133.957L139.472 134.206C140.53 134.804 141.713 135.147 142.926 135.208C143.409 135.741 143.971 136.197 144.591 136.56C145.013 136.809 145.452 137.025 145.906 137.208C147.017 137.681 148.223 137.888 149.428 137.812C149.753 138.105 150.105 138.364 150.481 138.587C151.144 138.974 151.855 139.271 152.596 139.47C153.751 139.823 154.973 139.897 156.163 139.687C156.318 139.793 156.48 139.889 156.646 139.976C157.529 140.484 158.499 140.821 159.505 140.971C160.695 141.198 161.922 141.139 163.085 140.8C164.156 141.387 165.351 141.712 166.572 141.748C167.789 141.845 169.012 141.657 170.143 141.198C171.274 141.657 172.496 141.846 173.712 141.75C174.653 141.748 175.582 141.55 176.442 141.169C177.302 140.789 178.073 140.233 178.706 139.537C179.197 138.929 179.555 138.223 179.755 137.467C179.955 136.711 179.994 135.921 179.868 135.149C179.751 134.343 179.537 133.553 179.23 132.798C179.001 132.239 178.596 131.769 178.076 131.46L177.986 131.503Z" fill="#3C2415"/>
<path d="M140.198 126.681C138.869 127.549 137.569 128.531 136.065 128.864C136.439 129.048 136.848 129.152 137.265 129.171C137.681 129.19 138.098 129.123 138.488 128.974C138.532 129.385 138.66 129.781 138.864 130.14C139.068 130.499 139.343 130.812 139.673 131.061C139.577 129.581 139.755 128.096 140.198 126.681Z" fill="#D1D3D4"/>
<path d="M145.395 130.628C144.849 131.271 144.246 131.863 143.593 132.397C143.862 132.345 144.121 132.247 144.357 132.108C144.413 132.432 144.534 132.742 144.714 133.017C144.863 132.201 145.091 131.401 145.395 130.628Z" fill="#D1D3D4"/>
<path d="M149.196 135.055C149.669 135.024 150.124 134.857 150.505 134.573C150.586 134.858 150.721 135.126 150.901 135.361C151.007 134.581 151.153 133.808 151.337 133.043C150.71 133.8 149.99 134.476 149.196 135.055Z" fill="#D1D3D4"/>
<path d="M156.273 136.762C156.495 136.657 156.699 136.52 156.881 136.355C157.114 136.901 157.524 137.352 158.046 137.635C157.765 136.653 157.664 135.628 157.745 134.61C157.17 135.266 156.676 135.989 156.273 136.762Z" fill="#D1D3D4"/>
<path d="M162.175 138.198C162.661 138.077 163.1 137.814 163.437 137.443C163.759 137.992 164.259 138.414 164.854 138.639C164.553 137.797 164.3 136.94 164.095 136.07C163.402 136.742 162.805 137.496 162.175 138.198Z" fill="#D1D3D4"/>
<path d="M170.305 135.921C170.228 136.837 169.892 137.714 169.338 138.448C169.629 138.274 169.88 138.039 170.073 137.76C170.472 138.293 171.046 138.667 171.695 138.818C171.001 137.958 170.326 137.093 170.305 135.921Z" fill="#D1D3D4"/>
<path d="M150.438 178.103C149.433 177.563 148.564 176.803 147.896 175.879C147.228 174.954 146.779 173.891 146.581 172.767C146.09 169.893 145.89 166.977 145.986 164.063C145.987 163.463 145.986 162.855 145.978 162.258C146.046 159.582 145.732 156.91 145.044 154.324C144.709 153.231 144.248 152.18 143.672 151.193C143.363 150.642 143.025 150.107 142.659 149.591C142.061 148.707 141.69 148.202 141.732 147.603C141.729 147.178 141.818 146.759 141.992 146.372C142.166 145.985 142.421 145.639 142.739 145.359C144.029 144.233 146.14 144.213 147.689 144.401C148.975 144.558 150.239 144.859 151.457 145.299C151.695 145.054 151.983 144.864 152.301 144.741C153.739 144.165 156.039 144.672 159.528 146.335L159.647 146.406C163.507 148.996 163.838 157.275 163.84 159.741C163.783 162.054 164.039 164.363 164.601 166.608L164.796 167.842C165.598 172.837 166.355 177.553 161.521 179.293C159.689 179.853 157.762 180.036 155.858 179.832C153.953 179.627 152.109 179.039 150.438 178.103Z" fill="#F37F94"/>
<path d="M159.09 147.257C162.448 149.506 162.834 157.137 162.846 159.762C162.783 162.137 163.04 164.51 163.608 166.817C164.473 172.383 165.539 176.773 161.184 178.338C159.492 178.849 157.715 179.015 155.959 178.824C154.202 178.634 152.501 178.092 150.959 177.23C150.085 176.763 149.328 176.105 148.744 175.306C148.159 174.506 147.762 173.585 147.582 172.611C146.898 169.333 147.014 165.787 146.993 162.24C147.063 159.473 146.741 156.709 146.036 154.032C145.665 152.879 145.17 151.768 144.562 150.72C143.774 149.325 142.738 148.114 142.766 147.701C142.785 145.54 145.309 145.168 147.575 145.459C149.045 145.623 150.482 146.008 151.837 146.603C151.866 146.621 151.878 146.628 151.872 146.624C152.039 146.562 151.981 143.893 159.109 147.292M160.152 145.548L159.99 145.452C156.173 143.633 153.692 143.131 151.942 143.821C151.706 143.917 151.479 144.037 151.266 144.179C150.143 143.815 148.988 143.559 147.816 143.415C146.085 143.191 143.659 143.249 142.092 144.624C141.664 144.999 141.321 145.462 141.087 145.981C140.854 146.501 140.735 147.064 140.74 147.634C140.71 148.524 141.191 149.225 141.84 150.188C142.149 150.648 142.503 151.168 142.783 151.676L142.822 151.747C143.352 152.668 143.777 153.645 144.089 154.66C144.734 157.146 145.025 159.71 144.953 162.277C144.961 162.874 144.956 163.479 144.961 164.082C144.865 167.066 145.071 170.052 145.578 172.994C145.804 174.254 146.311 175.447 147.061 176.484C147.811 177.521 148.784 178.377 149.91 178.987C153.303 181.014 158.328 181.584 161.893 180.285C167.522 178.258 166.663 172.897 165.829 167.713L165.643 166.532C165.641 166.498 165.634 166.463 165.622 166.431C165.085 164.257 164.842 162.021 164.901 159.782C164.892 156.446 164.414 148.386 160.245 145.595L160.152 145.548Z" fill="#3C2415"/>
<path d="M151.756 146.563C151.951 146.693 152.134 146.841 152.303 147.004C152.776 147.445 153.196 147.941 153.553 148.48C153.803 148.835 154.027 149.208 154.225 149.595C154.448 149.995 154.636 150.44 154.838 150.901C155.041 151.363 155.197 151.861 155.334 152.365C155.471 152.868 155.613 153.391 155.695 153.918C155.795 154.438 155.868 154.964 155.914 155.492C155.953 156.01 156.005 156.519 155.993 157.014C155.981 157.51 155.982 157.997 155.952 158.441C155.921 158.885 155.864 159.32 155.816 159.713C155.784 160.071 155.726 160.427 155.642 160.777C155.577 161.094 155.513 161.364 155.45 161.586C155.345 162.034 155.261 162.283 155.261 162.283C155.261 162.283 155.215 162.021 155.156 161.564C155.096 161.107 155.057 160.467 154.955 159.701C154.909 159.317 154.865 158.902 154.832 158.469L154.66 157.102C154.624 156.634 154.522 156.152 154.459 155.66C154.396 155.169 154.299 154.681 154.214 154.184C154.13 153.688 153.974 153.23 153.918 152.727C153.862 152.223 153.678 151.772 153.574 151.321C153.471 150.871 153.338 150.427 153.187 150.029C153.036 149.63 152.92 149.228 152.79 148.875C152.661 148.522 152.523 148.197 152.4 147.913C152.278 147.629 152.16 147.38 152.039 147.162C151.882 146.8 151.756 146.563 151.756 146.563Z" fill="#3C2415"/>
<path opacity="0.3" d="M150.264 147.893C149.323 147.039 144.411 146.374 145.54 148.88C146.669 151.387 149.276 156.195 149.017 159.153C148.758 162.11 151.71 164.142 152.521 159.787C153.331 155.432 151.717 149.206 150.264 147.893Z" fill="white"/>
<g style="mix-blend-mode:multiply" opacity="0.2">
<path d="M152.455 147.443C153.338 147.791 154.133 148.333 154.781 149.027C155.429 149.721 155.914 150.551 156.201 151.456C157.411 154.724 155.391 160.805 155.391 160.805C155.391 160.805 156.413 152.961 152.455 147.443Z" fill="#F37F94"/>
</g>
<path d="M137.038 37.092C137.158 37.0674 137.273 37.0192 137.374 36.9502C137.476 36.8812 137.563 36.7927 137.631 36.6899C137.698 36.587 137.745 36.4718 137.768 36.3509C137.79 36.2301 137.789 36.1059 137.764 35.9855L137.109 32.9435C137.057 32.7039 136.914 32.4942 136.709 32.3597C136.504 32.2252 136.254 32.1767 136.014 32.2248C135.894 32.2494 135.779 32.2976 135.677 32.3666C135.575 32.4356 135.488 32.5241 135.421 32.6269C135.353 32.7298 135.307 32.845 135.284 32.9658C135.261 33.0867 135.263 33.2109 135.288 33.3313L135.94 36.3792C135.995 36.6166 136.141 36.8233 136.345 36.9561C136.55 37.0889 136.798 37.1376 137.038 37.092Z" fill="#3C2415"/>
<path d="M138.497 48.3893L137.222 42.3829C137.195 42.2632 137.192 42.1394 137.213 42.0186C137.235 41.8978 137.28 41.7826 137.347 41.6797C137.414 41.5768 137.501 41.4883 137.602 41.4194C137.704 41.3506 137.818 41.3028 137.938 41.2788C138.18 41.231 138.43 41.2799 138.636 41.415C138.842 41.5501 138.987 41.7605 139.039 42.0011L140.318 48.0016C140.369 48.243 140.322 48.4947 140.187 48.7016C140.053 48.9085 139.842 49.0538 139.601 49.1057C139.36 49.1566 139.108 49.1098 138.901 48.9755C138.694 48.8413 138.549 48.6305 138.497 48.3893Z" fill="#3C2415"/>
<path d="M87.4657 70.8256C87.5863 70.802 87.7011 70.7546 87.8032 70.6862C87.9053 70.6178 87.9928 70.5297 88.0605 70.4271C88.1276 70.3238 88.1735 70.2083 88.1958 70.0872C88.218 69.9661 88.216 69.8418 88.1899 69.7215C88.1638 69.6011 88.1142 69.4871 88.0438 69.3861C87.9735 69.2851 87.8838 69.1989 87.78 69.1327L85.1763 67.4394C85.0735 67.3727 84.9586 67.3269 84.8381 67.3046C84.7176 67.2822 84.5939 67.2839 84.474 67.3094C84.3542 67.3349 84.2405 67.3837 84.1395 67.4531C84.0386 67.5226 83.9523 67.6112 83.8855 67.714C83.8188 67.8167 83.773 67.9317 83.7507 68.0521C83.7283 68.1726 83.73 68.2963 83.7555 68.4162C83.781 68.5361 83.8298 68.6497 83.8992 68.7507C83.9687 68.8517 84.0573 68.938 84.1601 69.0047L86.7637 70.6981C86.8663 70.7651 86.9813 70.8109 87.1018 70.8328C87.2224 70.8547 87.3461 70.8522 87.4657 70.8256Z" fill="#3C2415"/>
<path d="M97.0785 77.3793L91.9237 74.0403C91.7162 73.9055 91.5706 73.6938 91.5191 73.4518C91.4677 73.2097 91.5144 72.9571 91.6492 72.7495C91.784 72.542 91.9957 72.3964 92.2377 72.3449C92.4798 72.2935 92.7324 72.3402 92.94 72.475L98.0947 75.814C98.3009 75.9499 98.4454 76.1615 98.4968 76.4031C98.5481 76.6446 98.5023 76.8967 98.3692 77.1048C98.2308 77.3159 98.0144 77.4635 97.7673 77.5153C97.5288 77.563 97.281 77.5141 97.0785 77.3793Z" fill="#3C2415"/>
<path d="M195.941 48.2894C196.185 48.2326 196.398 48.0845 196.537 47.8754L198.224 45.2681C198.359 45.0616 198.406 44.8103 198.355 44.5691C198.305 44.328 198.161 44.1165 197.956 43.9809C197.747 43.8475 197.494 43.8011 197.252 43.8517C197.01 43.9024 196.797 44.0461 196.659 44.2519L194.954 46.889C194.887 46.9915 194.841 47.1061 194.819 47.2263C194.797 47.3465 194.799 47.4699 194.825 47.5894C194.851 47.7088 194.9 47.822 194.97 47.9223C195.04 48.0226 195.129 48.1081 195.232 48.1738C195.444 48.3048 195.699 48.3464 195.941 48.2894Z" fill="#3C2415"/>
<path d="M188.555 58.4676C188.453 58.4011 188.364 58.315 188.295 58.2141C188.226 58.1133 188.178 57.9997 188.153 57.88C188.128 57.7603 188.127 57.6369 188.15 57.5168C188.173 57.3967 188.219 57.2824 188.287 57.1805L191.626 52.0257C191.693 51.9229 191.779 51.8343 191.88 51.7649C191.981 51.6955 192.094 51.6466 192.214 51.6211C192.334 51.5956 192.458 51.594 192.578 51.6163C192.699 51.6386 192.814 51.6845 192.917 51.7512C193.019 51.8179 193.108 51.9042 193.177 52.0052C193.247 52.1062 193.296 52.2198 193.321 52.3397C193.347 52.4596 193.348 52.5833 193.326 52.7038C193.304 52.8243 193.258 52.9392 193.191 53.0419L189.852 58.1967C189.713 58.4017 189.5 58.5447 189.257 58.5952C189.138 58.6235 189.014 58.6267 188.893 58.6048C188.772 58.5828 188.657 58.5361 188.555 58.4676Z" fill="#3C2415"/>
<path d="M110.052 48.2559C110.202 48.2259 110.342 48.1594 110.459 48.0623C110.577 47.9652 110.669 47.8406 110.727 47.6995C110.785 47.5583 110.807 47.4051 110.791 47.2534C110.775 47.1017 110.722 46.9562 110.637 46.8298L108.94 44.2433C108.8 44.0436 108.587 43.9066 108.348 43.8616C108.108 43.8166 107.861 43.8672 107.658 44.0025C107.455 44.1379 107.314 44.3472 107.263 44.5857C107.213 44.8242 107.258 45.0729 107.389 45.2786L109.09 47.8591C109.193 48.0128 109.34 48.1325 109.511 48.2031C109.682 48.2737 109.871 48.2921 110.052 48.2559Z" fill="#3C2415"/>
<path d="M115.873 58.1052L112.458 52.968C112.39 52.8658 112.343 52.7513 112.319 52.6309C112.295 52.5105 112.296 52.3867 112.32 52.2664C112.345 52.1462 112.392 52.032 112.461 51.9303C112.53 51.8286 112.618 51.7415 112.72 51.6738C112.821 51.6049 112.935 51.5568 113.055 51.5325C113.175 51.5081 113.299 51.508 113.419 51.5321C113.539 51.5563 113.653 51.6041 113.754 51.6729C113.855 51.7417 113.942 51.8301 114.008 51.9328L117.424 57.07C117.491 57.1716 117.538 57.2856 117.561 57.4052C117.584 57.5249 117.583 57.6479 117.558 57.7673C117.534 57.8867 117.486 58 117.417 58.1008C117.349 58.2015 117.261 58.2878 117.159 58.3546C117.063 58.426 116.952 58.4733 116.834 58.4924C116.653 58.53 116.466 58.5133 116.295 58.4443C116.124 58.3754 115.977 58.2574 115.873 58.1052Z" fill="#3C2415"/>
<path d="M168.966 37.1028C169.146 37.0645 169.31 36.975 169.44 36.8451C169.569 36.7152 169.658 36.5505 169.695 36.371L170.308 33.3242C170.343 33.2007 170.351 33.0713 170.334 32.9442C170.316 32.8172 170.273 32.6951 170.206 32.5856C170.139 32.4762 170.05 32.3817 169.945 32.3082C169.839 32.2346 169.72 32.1836 169.595 32.1582C169.469 32.1328 169.339 32.1337 169.214 32.1607C169.088 32.1878 168.97 32.2404 168.866 32.3153C168.761 32.3903 168.674 32.4859 168.608 32.5962C168.543 32.7066 168.501 32.8292 168.485 32.9565L167.863 36.0057C167.815 36.2481 167.865 36.4994 168.002 36.7053C168.138 36.9112 168.35 37.0551 168.592 37.1059C168.716 37.127 168.843 37.1259 168.966 37.1028Z" fill="#3C2415"/>
<path d="M166.149 49.1345C165.909 49.0824 165.699 48.9384 165.564 48.7335C165.429 48.5286 165.379 48.2789 165.426 48.0379L166.645 42.0219C166.694 41.7784 166.838 41.5643 167.045 41.4265C167.252 41.2888 167.505 41.2387 167.749 41.2871C167.869 41.3114 167.983 41.3591 168.085 41.4276C168.186 41.496 168.273 41.5839 168.341 41.686C168.409 41.7882 168.456 41.9027 168.479 42.0231C168.503 42.1434 168.502 42.2671 168.478 42.3872L167.255 48.4092C167.218 48.5878 167.13 48.7518 167.001 48.8808C166.872 49.0098 166.708 49.0982 166.529 49.1349C166.404 49.1634 166.274 49.1632 166.149 49.1345Z" fill="#3C2415"/>
</g>
<defs>
<clipPath id="clip0_3247_2982">
<rect width="145" height="242.437" fill="white" transform="translate(124.34) rotate(30.8556)"/>
</clipPath>
</defs>
</svg>
