<svg width="174" height="174" viewBox="0 0 174 174" fill="none" xmlns="http://www.w3.org/2000/svg">
<g clip-path="url(#clip0_3247_2913)">
<path d="M86.6809 170.23C70.1558 170.23 54.0019 165.33 40.262 156.149C26.522 146.968 15.8132 133.918 9.4898 118.651C3.16639 103.384 1.51242 86.5839 4.73702 70.3765C7.96163 54.1691 15.92 39.282 27.6057 27.5977C39.2913 15.9134 54.1795 7.95685 70.3872 4.73418C86.595 1.51152 103.394 3.16751 118.661 9.49274C133.928 15.818 146.976 26.5283 156.155 40.2694C165.334 54.0104 170.233 70.165 170.231 86.69C170.207 108.841 161.397 130.077 145.733 145.739C130.069 161.401 108.831 170.209 86.6809 170.23Z" fill="#EF5BA1"/>
<path d="M86.6803 6.29001C102.582 6.29001 118.126 11.0054 131.348 19.8398C144.57 28.6743 154.875 41.2311 160.96 55.9223C167.045 70.6134 168.638 86.7792 165.535 102.375C162.433 117.971 154.776 132.297 143.532 143.541C132.288 154.786 117.962 162.443 102.366 165.545C86.7695 168.647 70.6037 167.055 55.9125 160.97C41.2214 154.885 28.6646 144.58 19.8301 131.358C10.9957 118.136 6.28027 102.592 6.28027 86.69C6.27895 76.1314 8.35767 65.6759 12.3977 55.9207C16.4377 46.1655 22.3599 37.3018 29.826 29.8357C37.292 22.3696 46.1558 16.4474 55.911 12.4074C65.6661 8.3674 76.1216 6.28869 86.6803 6.29001ZM86.6803 0C69.5346 0 52.774 5.08429 38.5179 14.6099C24.2618 24.1355 13.1505 37.6746 6.58915 53.5152C0.0277901 69.3557 -1.68895 86.7862 1.656 103.602C5.00095 120.419 13.2574 135.865 25.3812 147.989C37.505 160.113 52.9517 168.369 69.7679 171.714C86.5841 175.059 104.015 173.342 119.855 166.781C135.696 160.22 149.235 149.108 158.76 134.852C168.286 120.596 173.37 103.836 173.37 86.69C173.344 63.7065 164.202 41.6719 147.95 25.4202C131.698 9.16836 109.664 0.0264665 86.6803 0Z" fill="#3C2415"/>
<g opacity="0.3">
<path d="M22.5908 94.98C22.5978 80.9689 26.6804 67.2623 34.3408 55.5308C42.0012 43.7992 52.9088 34.5493 65.7342 28.9083C78.5595 23.2672 92.7489 21.4787 106.573 23.7606C120.397 26.0425 133.259 32.2964 143.591 41.76C137.498 33.7981 129.815 27.1919 121.03 22.3618C112.245 17.5317 102.55 14.5837 92.5635 13.7053C82.5766 12.8268 72.5163 14.0373 63.0229 17.2596C53.5295 20.482 44.8109 25.6456 37.4223 32.4217C30.0336 39.1978 24.1367 47.4381 20.1069 56.6179C16.0771 65.7977 14.0027 75.716 14.0157 85.7414C14.0287 95.7667 16.1289 105.68 20.1826 114.849C24.2362 124.018 30.1545 132.243 37.5608 139C27.8298 126.391 22.5639 110.907 22.5908 94.98Z" fill="white"/>
</g>
<g style="mix-blend-mode:multiply" opacity="0.75">
<path d="M138.65 25.34C151.677 40.7357 158.442 60.4649 157.604 80.6151C156.766 100.765 148.386 119.864 134.125 134.125C119.864 148.386 100.765 156.766 80.6149 157.604C60.4648 158.442 40.7355 151.677 25.3398 138.65C32.5234 147.14 41.39 154.047 51.3794 158.935C61.3687 163.822 72.2634 166.585 83.3748 167.047C94.4862 167.509 105.573 165.661 115.933 161.62C126.294 157.578 135.704 151.431 143.568 143.568C151.431 135.704 157.578 126.294 161.62 115.934C165.661 105.573 167.509 94.4864 167.047 83.375C166.585 72.2635 163.822 61.3688 158.934 51.3795C154.047 41.3902 147.139 32.5235 138.65 25.34Z" fill="#EC008C"/>
</g>
<path d="M37.4102 77.69C37.4102 72.3777 39.5204 67.283 43.2768 63.5267C47.0331 59.7703 52.1279 57.66 57.4402 57.66C62.7524 57.66 67.8472 59.7703 71.6035 63.5267C75.3599 67.283 77.4702 72.3777 77.4702 77.69" stroke="#3C2415" stroke-width="4.19" stroke-linecap="round" stroke-linejoin="round"/>
<path d="M94.9004 77.69C94.9004 72.3777 97.0107 67.283 100.767 63.5267C104.523 59.7703 109.618 57.66 114.93 57.66C120.243 57.66 125.337 59.7703 129.094 63.5267C132.85 67.283 134.96 72.3777 134.96 77.69" stroke="#3C2415" stroke-width="4.19" stroke-linecap="round" stroke-linejoin="round"/>
<path d="M86.7596 130.85C60.5996 130.85 45.5996 122.21 45.5996 107.15C45.5996 104.99 45.5996 98.42 51.5296 98.42C53.8496 98.42 56.7196 99.42 60.3496 100.77C66.5496 103.01 75.0296 106.08 86.0796 106.08C97.1296 106.08 105.87 103.08 112.26 100.83C116.15 99.48 119.26 98.42 121.69 98.42C127.91 98.42 127.91 104.99 127.91 107.15C127.91 122.19 112.91 130.85 86.7596 130.85Z" fill="#F7B9D4"/>
<path d="M121.69 100.54C124.4 100.54 125.77 102.22 125.77 107.13C125.77 122.56 108.3 128.68 86.7702 128.68C65.2402 128.68 47.7702 122.56 47.7702 107.13C47.7702 102.22 49.0202 100.54 51.5602 100.54C57.0002 100.54 68.3603 108.2 86.1103 108.2C103.86 108.2 115.93 100.54 121.72 100.54M121.72 96.26C118.9 96.26 115.72 97.37 111.59 98.79C105.34 100.95 96.7703 103.92 86.1103 103.92C75.4503 103.92 67.1603 100.92 61.1103 98.74C57.2803 97.35 54.2502 96.26 51.5602 96.26C47.8802 96.26 43.4902 98.14 43.4902 107.13C43.4902 123.55 59.2703 132.97 86.7903 132.97C114.31 132.97 130.08 123.55 130.08 107.13C130.08 103.81 129.53 101.43 128.36 99.64C127.643 98.5476 126.653 97.6613 125.489 97.0685C124.324 96.4757 123.025 96.197 121.72 96.26Z" fill="#3C2415"/>
<path d="M86.7498 116.75C84.8933 116.819 83.0595 116.324 81.4897 115.33C80.2533 115.964 78.8787 116.28 77.4898 116.25C77.0287 116.247 76.5681 116.221 76.1098 116.17C74.2502 116.032 72.4757 115.335 71.0198 114.17C70.0821 114.546 69.0797 114.732 68.0698 114.72C67.218 114.713 66.3695 114.613 65.5398 114.42C63.6976 114.077 62.0009 113.189 60.6698 111.87C60.0192 112.054 59.3458 112.145 58.6698 112.14C57.4755 112.124 56.2923 111.908 55.1698 111.5C54.0494 111.2 53.0034 110.672 52.098 109.947C51.1926 109.222 50.4475 108.318 49.9098 107.29C49.5531 106.449 49.3794 105.541 49.4001 104.627C49.4208 103.713 49.6354 102.815 50.0298 101.99C50.4483 101.032 50.9822 100.129 51.6198 99.3C51.8683 98.9826 52.1996 98.74 52.5772 98.5989C52.9548 98.4577 53.364 98.4235 53.7598 98.5C56.007 99.0578 58.215 99.7626 60.3698 100.61C66.5598 102.85 75.0498 105.92 86.0998 105.92C97.1498 105.92 105.88 102.92 112.28 100.67C114.731 99.7295 117.252 98.9806 119.82 98.43H120.18C120.506 98.4281 120.829 98.502 121.122 98.6461C121.416 98.7901 121.672 99.0003 121.87 99.26C122.53 100.106 123.084 101.03 123.52 102.01C123.914 102.836 124.129 103.737 124.15 104.652C124.17 105.567 123.997 106.477 123.64 107.32C123.102 108.348 122.357 109.252 121.451 109.977C120.546 110.702 119.5 111.23 118.38 111.53C117.257 111.938 116.074 112.154 114.88 112.17C114.204 112.174 113.53 112.083 112.88 111.9C111.55 113.221 109.853 114.11 108.01 114.45C107.18 114.643 106.332 114.744 105.48 114.75C104.47 114.762 103.467 114.576 102.53 114.2C101.074 115.365 99.2994 116.062 97.4398 116.2C96.9815 116.251 96.5208 116.277 96.0598 116.28C94.6708 116.31 93.2962 115.994 92.0598 115.36C90.4936 116.353 88.6631 116.848 86.8098 116.78L86.7498 116.75Z" fill="white"/>
<path d="M120.16 100.54C120.707 101.245 121.167 102.014 121.53 102.83C122.95 106.18 120.87 108.39 117.67 109.48C116.768 109.804 115.819 109.98 114.86 110C113.857 110.035 112.873 109.717 112.08 109.1C111.49 110.79 109.72 111.84 107.52 112.33C106.844 112.485 106.154 112.566 105.46 112.57C104.836 112.607 104.211 112.516 103.623 112.302C103.034 112.089 102.496 111.758 102.04 111.33C101.28 112.95 99.4103 113.79 97.1903 114.04C96.8082 114.079 96.4244 114.099 96.0403 114.1C95.2652 114.164 94.4857 114.048 93.7625 113.762C93.0393 113.476 92.3918 113.027 91.8703 112.45C90.9403 113.97 89.0003 114.61 86.7703 114.61C84.5403 114.61 82.6003 113.97 81.6703 112.45C81.1493 113.028 80.5018 113.477 79.7785 113.763C79.0551 114.049 78.2755 114.165 77.5003 114.1C77.1195 114.099 76.739 114.079 76.3603 114.04C74.1203 113.79 72.2603 112.95 71.5003 111.33C71.0445 111.758 70.5061 112.089 69.9181 112.302C69.33 112.516 68.7047 112.607 68.0803 112.57C67.3869 112.566 66.6961 112.485 66.0203 112.33C63.8203 111.84 62.0203 110.79 61.4603 109.1C60.6687 109.718 59.6841 110.037 58.6803 110C57.7217 109.98 56.7727 109.804 55.8703 109.48C52.6703 108.39 50.5903 106.18 52.0103 102.83C52.3597 102.035 52.8065 101.286 53.3403 100.6C59.3403 101.83 70.1003 108.06 86.1103 108.06C102.53 108.06 113.94 101.59 120.19 100.54M120.19 96.26C119.954 96.2398 119.717 96.2398 119.48 96.26C116.795 96.8372 114.158 97.616 111.59 98.59C105.34 100.76 96.7703 103.72 86.1103 103.72C75.4503 103.72 67.1103 100.72 61.1103 98.54C58.8594 97.6566 56.5507 96.9282 54.2003 96.36C53.4111 96.196 52.5915 96.2583 51.8361 96.5396C51.0807 96.8209 50.4201 97.3098 49.9303 97.95C49.1897 98.9113 48.5685 99.959 48.0803 101.07C47.563 102.17 47.2856 103.368 47.2667 104.583C47.2477 105.799 47.4875 107.004 47.9703 108.12C48.6246 109.418 49.5424 110.565 50.665 111.488C51.7877 112.41 53.0905 113.089 54.4903 113.48C55.8357 113.96 57.2517 114.214 58.6803 114.23C59.1318 114.231 59.5828 114.2 60.0303 114.14C61.5118 115.299 63.2451 116.094 65.0903 116.46C66.0745 116.686 67.0805 116.803 68.0903 116.81C68.9498 116.812 69.8063 116.708 70.6403 116.5C72.233 117.486 74.0344 118.085 75.9003 118.25C76.4349 118.309 76.9724 118.339 77.5103 118.34C78.8293 118.352 80.1397 118.128 81.3803 117.68C83.0815 118.444 84.9253 118.84 86.7903 118.84C88.6553 118.84 90.4991 118.444 92.2003 117.68C93.4445 118.127 94.7581 118.351 96.0803 118.34C96.6182 118.339 97.1556 118.309 97.6903 118.25C99.5562 118.085 101.358 117.486 102.95 116.5C103.784 116.708 104.641 116.812 105.5 116.81C106.51 116.803 107.516 116.686 108.5 116.46C110.345 116.094 112.079 115.299 113.56 114.14C114.008 114.2 114.459 114.231 114.91 114.23C116.342 114.213 117.761 113.96 119.11 113.48C122.28 112.4 124.54 110.54 125.62 108.11C126.104 107.004 126.345 105.806 126.327 104.599C126.31 103.392 126.035 102.202 125.52 101.11C125.021 99.9557 124.376 98.8702 123.6 97.88C123.199 97.3631 122.685 96.9449 122.098 96.6571C121.51 96.3694 120.865 96.2199 120.21 96.22L120.19 96.26Z" fill="#3C2415"/>
<path d="M63.0312 104.97C61.4113 106.82 59.8812 108.82 57.7812 109.97C58.4146 110.091 59.0662 110.078 59.6946 109.934C60.3229 109.789 60.9143 109.515 61.4312 109.13C61.6734 109.729 62.0376 110.272 62.5007 110.723C62.9638 111.174 63.5157 111.524 64.1212 111.75C63.3336 109.579 62.9637 107.279 63.0312 104.97Z" fill="#D1D3D4"/>
<path d="M72.4012 108.69C71.8555 109.874 71.2028 111.005 70.4512 112.07C70.8239 111.882 71.162 111.631 71.4512 111.33C71.6649 111.791 71.9753 112.2 72.3612 112.53C72.2448 111.252 72.2582 109.965 72.4012 108.69Z" fill="#D1D3D4"/>
<path d="M79.9004 113.7C80.5847 113.452 81.187 113.019 81.6404 112.45C81.8818 112.838 82.1938 113.177 82.5604 113.45C82.3935 112.246 82.29 111.035 82.2504 109.82C81.6308 111.206 80.8414 112.509 79.9004 113.7Z" fill="#D1D3D4"/>
<path d="M91.1602 113.3C91.4506 113.058 91.7005 112.771 91.9001 112.45C92.4796 113.152 93.2737 113.644 94.1602 113.85C93.3287 112.506 92.7492 111.022 92.4502 109.47C91.8706 110.691 91.4376 111.977 91.1602 113.3Z" fill="#D1D3D4"/>
<path d="M100.52 113C101.176 112.601 101.704 112.021 102.04 111.33C102.74 112.019 103.66 112.44 104.64 112.52C103.846 111.389 103.112 110.217 102.44 109.01C101.74 110.31 101.16 111.68 100.52 113Z" fill="#D1D3D4"/>
<path d="M111.65 106.26C111.921 107.658 111.789 109.104 111.27 110.43C111.63 110.049 111.906 109.596 112.08 109.1C112.893 109.728 113.903 110.047 114.93 110C113.55 108.96 112.16 107.96 111.65 106.26Z" fill="#D1D3D4"/>
</g>
<defs>
<clipPath id="clip0_3247_2913">
<rect width="173.37" height="173.37" fill="white"/>
</clipPath>
</defs>
</svg>
