<svg width="174" height="174" viewBox="0 0 174 174" fill="none" xmlns="http://www.w3.org/2000/svg">
<g clip-path="url(#clip0_3247_2933)">
<path d="M86.6809 170.23C70.1558 170.23 54.0019 165.33 40.262 156.149C26.522 146.968 15.8132 133.918 9.4898 118.651C3.1664 103.384 1.51241 86.5839 4.73702 70.3765C7.96162 54.1691 15.92 39.282 27.6057 27.5977C39.2913 15.9134 54.1795 7.95685 70.3872 4.73418C86.595 1.51152 103.394 3.16751 118.661 9.49274C133.928 15.818 146.976 26.5283 156.155 40.2694C165.334 54.0104 170.233 70.165 170.231 86.69C170.207 108.841 161.397 130.077 145.733 145.739C130.069 161.401 108.831 170.209 86.6809 170.23Z" fill="#8DC63F"/>
<path d="M86.6803 6.29001C102.582 6.29001 118.126 11.0054 131.348 19.8398C144.57 28.6743 154.875 41.2311 160.96 55.9223C167.045 70.6134 168.638 86.7792 165.535 102.375C162.433 117.971 154.776 132.297 143.532 143.541C132.288 154.786 117.962 162.443 102.366 165.545C86.7695 168.647 70.6037 167.055 55.9125 160.97C41.2213 154.885 28.6646 144.58 19.8301 131.358C10.9957 118.136 6.28027 102.592 6.28027 86.69C6.28027 65.3666 14.751 44.9165 29.8289 29.8386C44.9068 14.7607 65.3569 6.29001 86.6803 6.29001ZM86.6803 0C69.5346 0 52.774 5.08429 38.5179 14.6099C24.2618 24.1355 13.1505 37.6746 6.58916 53.5152C0.0277958 69.3557 -1.68896 86.7862 1.656 103.602C5.00095 120.419 13.2574 135.865 25.3812 147.989C37.505 160.113 52.9517 168.369 69.7679 171.714C86.5841 175.059 104.015 173.342 119.855 166.781C135.696 160.22 149.235 149.108 158.76 134.852C168.286 120.596 173.37 103.836 173.37 86.69C173.344 63.7065 164.202 41.6719 147.95 25.4202C131.698 9.16836 109.664 0.0264665 86.6803 0Z" fill="#3C2415"/>
<g opacity="0.3">
<path d="M22.5908 94.98C22.5979 80.9689 26.6804 67.2623 34.3408 55.5308C42.0012 43.7992 52.9088 34.5493 65.7342 28.9083C78.5595 23.2672 92.7489 21.4787 106.573 23.7606C120.397 26.0425 133.259 32.2964 143.591 41.76C137.498 33.7981 129.815 27.1919 121.03 22.3618C112.245 17.5317 102.55 14.5837 92.5635 13.7053C82.5767 12.8268 72.5163 14.0373 63.0229 17.2596C53.5295 20.482 44.811 25.6456 37.4223 32.4217C30.0336 39.1978 24.1367 47.4381 20.1069 56.6179C16.0771 65.7977 14.0027 75.716 14.0157 85.7414C14.0287 95.7667 16.1289 105.68 20.1826 114.849C24.2362 124.018 30.1546 132.243 37.5608 139C27.8338 126.389 22.5685 110.906 22.5908 94.98Z" fill="white"/>
</g>
<g style="mix-blend-mode:multiply" opacity="0.75">
<path d="M138.65 25.34C151.677 40.7357 158.442 60.4649 157.604 80.6151C156.766 100.765 148.386 119.864 134.125 134.125C119.864 148.386 100.765 156.766 80.6149 157.604C60.4647 158.442 40.7355 151.677 25.3398 138.65C32.5234 147.14 41.39 154.047 51.3794 158.935C61.3687 163.822 72.2634 166.585 83.3748 167.047C94.4862 167.509 105.573 165.661 115.933 161.62C126.294 157.578 135.704 151.431 143.568 143.568C151.431 135.704 157.578 126.294 161.62 115.934C165.661 105.573 167.509 94.4864 167.047 83.375C166.585 72.2636 163.822 61.3688 158.934 51.3795C154.047 41.3902 147.139 32.5236 138.65 25.34Z" fill="#27AAE1"/>
</g>
<path d="M57.6409 90.15C52.4182 90.1559 47.3111 88.6126 42.9657 85.7154C38.6203 82.8181 35.2319 78.6971 33.2291 73.8736C31.2264 69.0502 30.6993 63.7411 31.7146 58.618C32.7298 53.495 35.2418 48.7881 38.9327 45.093C42.6236 41.3979 47.3276 38.8806 52.4495 37.8595C57.5714 36.8384 62.8811 37.3594 67.7068 39.3567C72.5326 41.354 76.6575 44.7377 79.5597 49.0798C82.4619 53.4219 84.0109 58.5273 84.0109 63.75C84.0057 70.7449 81.2267 77.4522 76.2833 82.4012C71.34 87.3501 64.6358 90.1367 57.6409 90.15Z" fill="white"/>
<path d="M57.6406 38.97C62.5441 38.97 67.3374 40.4242 71.4143 43.1486C75.4912 45.873 78.6686 49.7452 80.5446 54.2756C82.4206 58.806 82.9109 63.7909 81.9536 68.6C80.9962 73.409 78.6342 77.8262 75.1663 81.2927C71.6983 84.7593 67.2802 87.1195 62.4708 88.0749C57.6614 89.0303 52.6766 88.5379 48.147 86.6601C43.6174 84.7823 39.7464 81.6033 37.0236 77.5253C34.3009 73.4473 32.8487 68.6534 32.8506 63.75C32.8506 60.495 33.4919 57.2719 34.7379 54.2648C35.9838 51.2577 37.81 48.5255 40.1121 46.2244C42.4142 43.9232 45.1471 42.0981 48.1547 40.8534C51.1623 39.6087 54.3856 38.9687 57.6406 38.97ZM57.6406 35.76C52.1028 35.76 46.6893 37.4022 42.0847 40.4789C37.4801 43.5555 33.8913 47.9285 31.772 53.0449C29.6528 58.1612 29.0983 63.7911 30.1786 69.2225C31.259 74.654 33.9258 79.6431 37.8416 83.559C41.7575 87.4749 46.7466 90.1416 52.1781 91.222C57.6096 92.3024 63.2394 91.7479 68.3558 89.6286C73.4721 87.5094 77.8451 83.9206 80.9218 79.316C83.9985 74.7114 85.6406 69.2979 85.6406 63.76C85.6406 56.3339 82.6907 49.212 77.4396 43.961C72.1886 38.71 65.0667 35.76 57.6406 35.76Z" fill="#3C2415"/>
<path d="M69.3108 41.85C74.1109 45.7488 77.2805 51.3009 78.1975 57.4165C79.1145 63.5321 77.7126 69.7697 74.2671 74.9048C70.8215 80.04 65.5811 83.7019 59.5743 85.1719C53.5676 86.6419 47.2283 85.8137 41.8008 82.85C44.4754 85.0224 47.5736 86.6134 50.8976 87.5214C54.2215 88.4294 57.6983 88.6345 61.1059 88.1235C64.5136 87.6126 67.7773 86.3968 70.6888 84.5539C73.6003 82.7109 76.0956 80.2813 78.0155 77.4199C79.9354 74.5586 81.2377 71.3284 81.8392 67.9356C82.4408 64.5428 82.3285 61.0618 81.5094 57.7148C80.6904 54.3678 79.1825 51.2283 77.0822 48.4967C74.9818 45.7651 72.335 43.5014 69.3108 41.85Z" fill="#D1D3D4"/>
<path d="M115.73 90.15C110.508 90.152 105.403 88.6053 101.061 85.7057C96.7178 82.806 93.3325 78.6836 91.3328 73.8598C89.3331 69.036 88.8089 63.7275 89.8264 58.6058C90.8439 53.484 93.3575 48.7791 97.0492 45.0859C100.741 41.3928 105.445 38.8775 110.566 37.858C115.688 36.8386 120.996 37.3608 125.821 39.3587C130.645 41.3565 134.769 44.7402 137.67 49.0819C140.572 53.4236 142.12 58.5282 142.12 63.75C142.112 70.7476 139.33 77.4564 134.383 82.4053C129.436 87.3543 122.728 90.1394 115.73 90.15Z" fill="white"/>
<path d="M115.73 38.97C120.634 38.97 125.427 40.4242 129.504 43.1486C133.581 45.873 136.758 49.7452 138.634 54.2756C140.51 58.806 141.001 63.7909 140.043 68.6C139.086 73.409 136.724 77.8262 133.256 81.2927C129.788 84.7593 125.37 87.1195 120.561 88.0749C115.751 89.0303 110.766 88.5379 106.237 86.6601C101.707 84.7823 97.8362 81.6033 95.1135 77.5253C92.3907 73.4473 90.9385 68.6534 90.9405 63.75C90.9392 60.4946 91.5796 57.2709 92.825 54.2632C94.0705 51.2556 95.8966 48.5229 98.199 46.2214C100.501 43.92 103.235 42.095 106.243 40.8507C109.251 39.6065 112.475 38.9674 115.73 38.97ZM115.73 35.76C110.193 35.76 104.779 37.4022 100.175 40.4789C95.5699 43.5555 91.9811 47.9285 89.8619 53.0449C87.7426 58.1612 87.1881 63.7911 88.2685 69.2225C89.3489 74.654 92.0156 79.6431 95.9315 83.559C99.8474 87.4749 104.836 90.1416 110.268 91.222C115.699 92.3024 121.329 91.7479 126.446 89.6286C131.562 87.5094 135.935 83.9206 139.012 79.316C142.088 74.7114 143.73 69.2979 143.73 63.76C143.73 56.3339 140.78 49.212 135.529 43.961C130.278 38.71 123.157 35.76 115.73 35.76Z" fill="#3C2415"/>
<path d="M127.401 41.85C132.209 45.747 135.386 51.3017 136.307 57.4222C137.227 63.5426 135.825 69.7861 132.376 74.9251C128.926 80.0641 123.679 83.7268 117.666 85.1933C111.653 86.6598 105.309 85.8239 99.8809 82.85C102.556 85.0179 105.653 86.6048 108.975 87.5096C112.297 88.4144 115.772 88.6171 119.176 88.105C122.581 87.5929 125.842 86.3772 128.751 84.5352C131.66 82.6932 134.154 80.2654 136.073 77.4066C137.991 74.5477 139.294 71.3205 139.897 67.9305C140.499 64.5405 140.389 61.0621 139.573 57.717C138.758 54.3719 137.254 51.2334 135.158 48.5016C133.062 45.7697 130.42 43.5044 127.401 41.85Z" fill="#D1D3D4"/>
<path d="M57.4101 65.25C57.4101 64.35 58.3201 64.65 58.9201 64.35C59.2201 64.35 59.8301 64.65 59.8301 64.95C60.0031 65.8283 59.8537 66.7395 59.4092 67.5164C58.9647 68.2934 58.2549 68.8841 57.4101 69.18C57.0963 69.373 56.7461 69.4993 56.3813 69.5509C56.0166 69.6025 55.6451 69.5784 55.2901 69.48C54.4199 69.159 53.6382 68.6365 53.0089 67.9551C52.3797 67.2737 51.9209 66.4529 51.6701 65.56C51.5232 64.7061 51.5481 63.8316 51.7431 62.9874C51.9381 62.1433 52.2994 61.3465 52.8059 60.6435C53.3124 59.9406 53.9539 59.3457 54.6929 58.8935C55.4319 58.4413 56.2536 58.141 57.1101 58.01C58.8701 57.8372 60.6439 58.1484 62.2401 58.91C64.9601 60.12 66.1701 63.14 66.1701 65.86C66.1701 67.06 66.4701 68.27 65.8601 69.48C65.4397 70.5796 64.8268 71.5954 64.0501 72.48C62.9407 73.6687 61.5756 74.5898 60.0581 75.1736C58.5405 75.7574 56.9101 75.9887 55.2901 75.85C53.3661 75.5498 51.543 74.7894 49.9761 73.6333C48.4091 72.4772 47.1446 70.9597 46.2901 69.21C45.4234 67.1034 45.134 64.8039 45.4519 62.5483C45.7698 60.2927 46.6834 58.1627 48.0985 56.3777C49.5137 54.5927 51.3792 53.2174 53.5028 52.3934C55.6264 51.5694 57.9314 51.3266 60.1801 51.69C61.6036 51.944 62.9999 52.3324 64.3501 52.85C66.3818 53.8212 68.1461 55.2731 69.4901 57.08C71.9279 60.2601 73.0066 64.2764 72.4901 68.25C72.1864 70.6054 71.3564 72.8622 70.0615 74.853C68.7666 76.8438 67.0401 78.5175 65.0101 79.75C57.4601 83.97 48.4001 82.46 43.0101 75.52C41.2469 72.9709 40.0125 70.0942 39.3801 67.06C39.2301 65.3533 39.2301 63.6367 39.3801 61.93C39.6671 59.8479 40.2778 57.8235 41.1901 55.93C42.3663 53.6165 44.0111 51.5731 46.0201 49.93C55.3801 41.78 70.4801 45.4 76.2201 56.27" stroke="#3C2415" stroke-width="3.12" stroke-miterlimit="10" stroke-linecap="round"/>
<path d="M115.49 65.25C115.49 64.35 116.4 64.65 117 64.35C117.3 64.35 117.9 64.65 117.9 64.95C118.078 65.8273 117.932 66.7394 117.489 67.5172C117.046 68.295 116.336 68.8857 115.49 69.18C115.178 69.3728 114.83 69.4989 114.466 69.5506C114.103 69.6022 113.733 69.5782 113.38 69.48C112.51 69.1576 111.727 68.6346 111.097 67.9536C110.466 67.2726 110.005 66.4525 109.75 65.56C109.605 64.7063 109.63 63.8322 109.826 62.9886C110.022 62.145 110.383 61.3487 110.889 60.646C111.396 59.9434 112.037 59.3485 112.775 58.896C113.513 58.4434 114.334 58.1423 115.19 58.01C116.95 57.8372 118.724 58.1484 120.32 58.91C123.04 60.12 124.25 63.14 124.25 65.86C124.25 67.06 124.55 68.27 123.94 69.48C123.52 70.5796 122.907 71.5954 122.13 72.48C121.018 73.6589 119.652 74.5702 118.137 75.1453C116.621 75.7203 114.995 75.9442 113.38 75.8C111.445 75.5089 109.61 74.7526 108.032 73.5961C106.454 72.4395 105.18 70.9173 104.32 69.16C103.565 67.2552 103.253 65.2032 103.41 63.16C103.854 59.6768 105.662 56.512 108.436 54.3599C111.211 52.2077 114.726 51.244 118.21 51.68C119.655 51.9483 121.072 52.3535 122.44 52.89C124.467 53.8639 126.228 55.3155 127.57 57.12C130.008 60.3001 131.087 64.3164 130.57 68.29C130.252 70.6454 129.407 72.8988 128.098 74.8828C126.789 76.8668 125.05 78.5304 123.01 79.75C115.46 83.97 106.4 82.46 101.01 75.52C99.2469 72.9709 98.0125 70.0942 97.3801 67.06C97.2301 65.3533 97.2301 63.6367 97.3801 61.93C97.6719 59.8489 98.2823 57.8252 99.1901 55.93C100.367 53.6139 102.015 51.57 104.03 49.93C113.39 41.78 128.48 45.4 134.22 56.27" stroke="#3C2415" stroke-width="3.12" stroke-miterlimit="10" stroke-linecap="round"/>
<path d="M68.6102 136.5C64.2686 136.5 60.1049 134.775 57.0349 131.705C53.9649 128.635 52.2402 124.472 52.2402 120.13C52.2402 115.788 53.9649 111.625 57.0349 108.555C60.1049 105.485 64.2686 103.76 68.6102 103.76H103.52C107.862 103.76 112.026 105.485 115.096 108.555C118.166 111.625 119.89 115.788 119.89 120.13C119.89 124.472 118.166 128.635 115.096 131.705C112.026 134.775 107.862 136.5 103.52 136.5H68.6102Z" fill="#F7B9D4"/>
<path d="M103.52 105.85C107.308 105.85 110.94 107.355 113.618 110.033C116.296 112.711 117.8 116.343 117.8 120.13C117.8 123.917 116.296 127.549 113.618 130.228C110.94 132.906 107.308 134.41 103.52 134.41H68.6104C64.8231 134.41 61.1909 132.906 58.5129 130.228C55.8349 127.549 54.3304 123.917 54.3304 120.13C54.3304 116.343 55.8349 112.711 58.5129 110.033C61.1909 107.355 64.8231 105.85 68.6104 105.85H103.52ZM103.52 101.67H68.6104C63.7145 101.67 59.0191 103.615 55.5572 107.077C52.0953 110.539 50.1504 115.234 50.1504 120.13C50.1504 125.026 52.0953 129.721 55.5572 133.183C59.0191 136.645 63.7145 138.59 68.6104 138.59H103.52C108.416 138.59 113.112 136.645 116.574 133.183C120.035 129.721 121.98 125.026 121.98 120.13C121.98 115.234 120.035 110.539 116.574 107.077C113.112 103.615 108.416 101.67 103.52 101.67Z" fill="#3C2415"/>
<path d="M116.591 117.07C115.122 117.133 113.665 116.787 112.381 116.07C111.101 116.787 109.647 117.134 108.181 117.07C106.636 117.133 105.107 116.733 103.791 115.92C102.453 116.674 100.942 117.069 99.4062 117.069C97.8701 117.069 96.3599 116.674 95.0212 115.92C93.6826 116.674 92.1723 117.069 90.6362 117.069C89.1001 117.069 87.5899 116.674 86.2512 115.92C84.9126 116.674 83.4023 117.069 81.8662 117.069C80.3301 117.069 78.8199 116.674 77.4812 115.92C76.1426 116.674 74.6323 117.069 73.0962 117.069C71.5601 117.069 70.0499 116.674 68.7112 115.92C67.3695 116.67 65.8582 117.063 64.3212 117.063C62.7843 117.063 61.2729 116.67 59.9312 115.92C58.6185 116.731 57.0932 117.132 55.5512 117.07H55.2112C54.8803 117.059 54.5569 116.969 54.268 116.807C53.9792 116.645 53.7334 116.417 53.5512 116.14C53.366 115.862 53.2502 115.543 53.2137 115.211C53.1771 114.878 53.2209 114.542 53.3412 114.23C54.513 111.167 56.5822 108.528 59.2782 106.66C61.9742 104.792 65.1713 103.781 68.4512 103.76H68.6712C68.7543 103.751 68.8381 103.751 68.9212 103.76H103.501H103.801H104.071C107.279 103.867 110.385 104.916 113 106.776C115.616 108.636 117.627 111.225 118.781 114.22C118.899 114.532 118.942 114.868 118.905 115.2C118.869 115.532 118.754 115.851 118.571 116.13C118.388 116.408 118.141 116.637 117.85 116.799C117.559 116.961 117.234 117.051 116.901 117.06L116.591 117.07Z" fill="white"/>
<path d="M103.551 105.85C103.641 106.053 103.721 106.259 103.791 106.47C103.861 106.26 103.941 106.06 104.021 105.86C106.817 105.957 109.524 106.873 111.805 108.494C114.085 110.115 115.84 112.371 116.851 114.98H116.591C115.802 115.051 115.007 114.931 114.274 114.63C113.541 114.329 112.892 113.855 112.381 113.25C111.871 113.854 111.223 114.326 110.492 114.628C109.761 114.929 108.968 115.05 108.181 114.98C106.301 114.98 104.661 114.43 103.791 112.98C102.921 114.44 101.281 114.98 99.4007 114.98C97.5207 114.98 95.8908 114.43 95.0208 112.98C94.1508 114.44 92.5108 114.98 90.6308 114.98C88.7508 114.98 87.1207 114.43 86.2507 112.98C85.3707 114.44 83.7407 114.98 81.8607 114.98C79.9807 114.98 78.3508 114.43 77.4808 112.98C76.6008 114.44 74.9708 114.98 73.0908 114.98C71.2108 114.98 69.5807 114.43 68.7107 112.98C67.8307 114.44 66.2007 114.98 64.3207 114.98C62.4407 114.98 60.8107 114.43 59.9307 112.98C59.0607 114.44 57.4307 114.98 55.5507 114.98H55.2907C56.3215 112.314 58.1287 110.018 60.4785 108.391C62.8282 106.763 65.6124 105.878 68.4707 105.85L68.7107 106.47C68.7807 106.26 68.8608 106.05 68.9408 105.85H77.2408L77.4808 106.47C77.5503 106.259 77.6304 106.053 77.7207 105.85H86.0107C86.1007 106.05 86.1707 106.26 86.2507 106.47C86.3207 106.26 86.4007 106.05 86.4808 105.85H94.7807L95.0208 106.47C95.0903 106.259 95.1704 106.053 95.2607 105.85H103.551ZM103.551 101.67H68.4307C64.739 101.698 61.1416 102.84 58.1087 104.945C55.0758 107.05 52.7485 110.021 51.4307 113.47C51.1926 114.093 51.1065 114.763 51.1795 115.426C51.2526 116.089 51.4827 116.724 51.8507 117.28C52.216 117.834 52.7092 118.293 53.2888 118.616C53.8683 118.94 54.5172 119.12 55.1807 119.14H55.5908C57.0964 119.169 58.5906 118.873 59.9707 118.27C62.7791 119.43 65.9324 119.43 68.7408 118.27C71.5525 119.43 74.709 119.43 77.5208 118.27C80.3291 119.43 83.4824 119.43 86.2907 118.27C89.0991 119.43 92.2524 119.43 95.0608 118.27C97.8691 119.43 101.022 119.43 103.831 118.27C105.214 118.873 106.712 119.17 108.221 119.14C109.659 119.164 111.087 118.899 112.421 118.36C113.758 118.899 115.189 119.165 116.631 119.14H117.031C117.697 119.12 118.348 118.94 118.93 118.616C119.512 118.292 120.007 117.832 120.375 117.277C120.742 116.721 120.971 116.085 121.042 115.423C121.112 114.76 121.023 114.091 120.781 113.47C119.482 110.095 117.218 107.176 114.271 105.079C111.325 102.983 107.825 101.8 104.211 101.68H103.931H103.591L103.551 101.67Z" fill="#3C2415"/>
<path d="M68.6105 136.5C65.5047 136.493 62.4646 135.605 59.8431 133.939C57.2217 132.274 55.1264 129.899 53.8005 127.09C53.6435 126.772 53.5706 126.419 53.5886 126.064C53.6066 125.71 53.715 125.366 53.9034 125.065C54.0918 124.765 54.354 124.517 54.6651 124.347C54.9761 124.176 55.3257 124.088 55.6805 124.09C57.0795 124.058 58.4614 124.403 59.6805 125.09C60.9653 124.376 62.4219 124.03 63.8905 124.09C65.4358 124.027 66.9647 124.427 68.2805 125.24C69.6191 124.487 71.1294 124.091 72.6655 124.091C74.2016 124.091 75.7118 124.487 77.0505 125.24C78.3891 124.487 79.8994 124.091 81.4355 124.091C82.9716 124.091 84.4818 124.487 85.8205 125.24C87.1591 124.487 88.6694 124.091 90.2055 124.091C91.7416 124.091 93.2518 124.487 94.5905 125.24C95.9291 124.487 97.4394 124.091 98.9755 124.091C100.512 124.091 102.022 124.487 103.36 125.24C104.699 124.487 106.209 124.091 107.745 124.091C109.282 124.091 110.792 124.487 112.13 125.24C113.396 124.456 114.862 124.057 116.35 124.09C116.704 124.095 117.051 124.189 117.359 124.364C117.667 124.539 117.925 124.789 118.11 125.09C118.301 125.385 118.412 125.723 118.435 126.073C118.458 126.423 118.391 126.773 118.24 127.09C116.912 129.899 114.815 132.273 112.192 133.939C109.569 135.604 106.527 136.492 103.42 136.5H68.6105Z" fill="white"/>
<path d="M107.821 126.2C109.701 126.2 111.331 126.75 112.201 128.2C112.671 127.522 113.311 126.981 114.057 126.63C114.803 126.278 115.629 126.13 116.451 126.2C115.297 128.654 113.468 130.729 111.178 132.181C108.889 133.633 106.232 134.403 103.521 134.4H68.6106C65.8995 134.401 63.2442 133.63 60.9547 132.178C58.6652 130.726 56.836 128.653 55.6806 126.2C56.448 126.146 57.2175 126.273 57.9264 126.572C58.6354 126.871 59.2638 127.333 59.7606 127.92C60.2701 127.315 60.9179 126.842 61.649 126.541C62.3801 126.24 63.173 126.12 63.9606 126.19C65.8406 126.19 67.4806 126.74 68.3506 128.19C69.2206 126.73 70.8506 126.19 72.7306 126.19C74.6106 126.19 76.2506 126.74 77.1206 128.19C77.9906 126.73 79.6306 126.19 81.5006 126.19C83.3706 126.19 85.0206 126.74 85.8906 128.19C86.7606 126.73 88.4006 126.19 90.2706 126.19C92.1406 126.19 93.7906 126.74 94.6606 128.19C95.5306 126.73 97.1706 126.19 99.0506 126.19C100.931 126.19 102.561 126.74 103.431 128.19C104.301 126.73 105.941 126.19 107.821 126.19M107.821 122.02C106.312 121.992 104.815 122.289 103.431 122.89C100.622 121.731 97.469 121.731 94.6606 122.89C91.8523 121.731 88.699 121.731 85.8906 122.89C83.0823 121.731 79.929 121.731 77.1206 122.89C74.3123 121.731 71.159 121.731 68.3506 122.89C66.9665 122.289 65.4694 121.992 63.9606 122.02C62.5192 121.995 61.0875 122.261 59.7506 122.8C58.479 122.288 57.1214 122.023 55.7506 122.02H55.6906C54.9889 122.023 54.2991 122.202 53.685 122.542C53.0708 122.881 52.552 123.37 52.1764 123.963C51.8009 124.556 51.5805 125.233 51.5358 125.934C51.4911 126.634 51.6235 127.334 51.9206 127.97C53.4192 131.134 55.7827 133.81 58.738 135.687C61.6932 137.565 65.1194 138.568 68.6206 138.58H103.531C107.033 138.568 110.461 137.566 113.418 135.689C116.375 133.811 118.74 131.135 120.241 127.97C120.538 127.334 120.67 126.632 120.625 125.931C120.58 125.23 120.359 124.552 119.982 123.959C119.605 123.366 119.085 122.877 118.47 122.538C117.854 122.199 117.163 122.021 116.461 122.02H116.401C114.959 122.02 113.533 122.316 112.211 122.89C110.83 122.288 109.336 121.991 107.831 122.02H107.821Z" fill="#3C2415"/>
</g>
<defs>
<clipPath id="clip0_3247_2933">
<rect width="173.37" height="173.37" fill="white"/>
</clipPath>
</defs>
</svg>
