<svg width="174" height="174" viewBox="0 0 174 174" fill="none" xmlns="http://www.w3.org/2000/svg">
<g clip-path="url(#clip0_3247_2875)">
<path d="M163.079 120.459C181.742 78.2647 162.666 28.9298 120.471 10.2669C78.2763 -8.39601 28.9414 10.6803 10.2785 52.8751C-8.38439 95.0699 10.6919 144.405 52.8867 163.068C95.0815 181.731 144.416 162.654 163.079 120.459Z" fill="#F7941D"/>
<path d="M86.6798 6.32001C102.581 6.32001 118.126 11.0354 131.348 19.8699C144.569 28.7043 154.874 41.2611 160.96 55.9523C167.045 70.6434 168.637 86.8092 165.535 102.405C162.433 118.001 154.775 132.327 143.531 143.571C132.287 154.816 117.961 162.473 102.365 165.575C86.769 168.677 70.6032 167.085 55.9121 161C41.2209 154.915 28.6641 144.61 19.8296 131.388C10.9952 118.166 6.2798 102.622 6.2798 86.72C6.28246 65.3974 14.754 44.9489 29.8313 29.8716C44.9087 14.7942 65.3572 6.32266 86.6798 6.32001ZM86.6798 0.0400085C69.5365 0.0419863 52.7788 5.12736 38.5257 14.6531C24.2726 24.1788 13.1641 37.7171 6.60506 53.5559C0.0459867 69.3948 -1.66914 86.823 1.67656 103.637C5.02225 120.45 13.2785 135.894 25.4013 148.016C37.5241 160.137 52.969 168.391 69.7831 171.735C86.5971 175.079 104.025 173.362 119.863 166.801C135.701 160.24 149.238 149.13 158.762 134.876C168.286 120.622 173.37 103.863 173.37 86.72C173.343 63.7374 164.201 41.7039 147.949 25.4537C131.697 9.20349 109.662 0.0638287 86.6798 0.0400085Z" fill="#3C2415"/>
<g opacity="0.3">
<path d="M22.5908 94.98C22.5959 80.968 26.677 67.2601 34.3367 55.5271C41.9964 43.794 52.9038 34.5426 65.7296 28.9003C78.5554 23.258 92.7455 21.4686 106.57 23.7502C120.395 26.0318 133.258 32.2858 143.591 41.75C137.498 33.7881 129.815 27.1819 121.03 22.3518C112.245 17.5217 102.55 14.5737 92.5635 13.6952C82.5767 12.8168 72.5163 14.0273 63.0229 17.2496C53.5295 20.472 44.811 25.6355 37.4223 32.4117C30.0336 39.1878 24.1367 47.4281 20.1069 56.6079C16.0771 65.7877 14.0027 75.706 14.0157 85.7313C14.0287 95.7567 16.1289 105.67 20.1826 114.839C24.2362 124.008 30.1546 132.233 37.5608 138.99C27.8353 126.382 22.5699 110.903 22.5908 94.98Z" fill="white"/>
</g>
<g style="mix-blend-mode:multiply" opacity="0.75">
<path d="M138.65 25.32C151.691 40.7138 158.467 60.4477 157.635 80.6055C156.803 100.763 148.422 119.871 134.157 134.138C119.892 148.404 100.785 156.786 80.627 157.62C60.4693 158.454 40.7348 151.679 25.3398 138.64C32.5259 147.123 41.3932 154.023 51.3814 158.905C61.3697 163.787 72.2618 166.544 83.3698 167.003C94.4778 167.461 105.56 165.611 115.917 161.569C126.273 157.527 135.679 151.381 143.54 143.52C151.401 135.658 157.546 126.252 161.587 115.895C165.628 105.538 167.477 94.4554 167.018 83.3475C166.558 72.2395 163.8 61.3476 158.917 51.3598C154.034 41.372 147.133 32.5053 138.65 25.32Z" fill="#F7941D"/>
</g>
<path d="M57.4411 89.83C52.1861 89.83 47.049 88.2717 42.6796 85.3522C38.3102 82.4326 34.9046 78.283 32.8936 73.4279C30.8826 68.5729 30.3564 63.2305 31.3816 58.0765C32.4069 52.9224 34.9374 48.1881 38.6533 44.4722C42.3692 40.7563 47.1035 38.2258 52.2576 37.2006C57.4116 36.1753 62.754 36.7015 67.609 38.7125C72.464 40.7236 76.6137 44.1291 79.5333 48.4985C82.4528 52.8679 84.0111 58.005 84.0111 63.26C84.0032 70.3044 81.2013 77.0579 76.2202 82.0391C71.239 87.0202 64.4855 89.8221 57.4411 89.83Z" fill="white"/>
<path d="M57.44 38.32C62.3845 38.32 67.218 39.7862 71.3293 42.5333C75.4405 45.2803 78.6448 49.1848 80.537 53.7529C82.4292 58.3211 82.9243 63.3477 81.9596 68.1973C80.995 73.0468 78.614 77.5014 75.1177 80.9977C71.6214 84.494 67.1668 86.875 62.3173 87.8396C57.4677 88.8043 52.4411 88.3092 47.8729 86.417C43.3048 84.5248 39.4003 81.3205 36.6533 77.2093C33.9062 73.098 32.44 68.2645 32.44 63.32C32.44 56.6896 35.0739 50.3307 39.7623 45.6423C44.4507 40.9539 50.8096 38.32 57.44 38.32ZM57.44 35.09C51.8646 35.09 46.4143 36.7433 41.7785 39.8409C37.1427 42.9384 33.5295 47.3411 31.3959 52.4922C29.2622 57.6432 28.704 63.3113 29.7917 68.7796C30.8794 74.2479 33.5642 79.2709 37.5067 83.2133C41.4491 87.1558 46.4721 89.8406 51.9404 90.9283C57.4087 92.0161 63.0768 91.4578 68.2279 89.3242C73.3789 87.1905 77.7816 83.5774 80.8791 78.9415C83.9767 74.3057 85.63 68.8555 85.63 63.28C85.6274 55.8025 82.6572 48.6318 77.3716 43.3425C72.0861 38.0533 64.9175 35.078 57.44 35.07V35.09Z" fill="#3C2415"/>
<path d="M69.2002 41.24C73.8516 45.2272 76.8769 50.7834 77.702 56.854C78.527 62.9245 77.0943 69.0867 73.6758 74.1706C70.2573 79.2546 65.0911 82.9063 59.1579 84.4325C53.2247 85.9588 46.9376 85.2533 41.4902 82.45C44.1693 84.7465 47.3043 86.4499 50.6888 87.4481C54.0734 88.4463 57.631 88.7167 61.1275 88.2415C64.6241 87.7663 67.9805 86.5562 70.9759 84.6909C73.9713 82.8257 76.5379 80.3474 78.5069 77.4191C80.4759 74.4908 81.8027 71.1789 82.4 67.7011C82.9973 64.2233 82.8516 60.6585 81.9725 57.241C81.0934 53.8236 79.5008 50.631 77.2995 47.8731C75.0981 45.1152 72.3379 42.8547 69.2002 41.24Z" fill="#D1D3D4"/>
<path d="M72.8206 63.26C72.8206 66.3019 71.9185 69.2755 70.2286 71.8047C68.5386 74.3339 66.1366 76.3052 63.3262 77.4693C60.5159 78.6334 57.4235 78.9379 54.4401 78.3445C51.4566 77.751 48.7162 76.2862 46.5653 74.1353C44.4143 71.9844 42.9495 69.2439 42.3561 66.2605C41.7626 63.2771 42.0672 60.1847 43.2313 57.3743C44.3954 54.564 46.3667 52.162 48.8959 50.472C51.4251 48.782 54.3987 47.88 57.4406 47.88C61.5196 47.88 65.4316 49.5004 68.3159 52.3847C71.2002 55.269 72.8206 59.181 72.8206 63.26Z" fill="#00A79D"/>
<path d="M72.8206 63.26C72.8206 66.3019 71.9185 69.2755 70.2286 71.8047C68.5386 74.3339 66.1366 76.3052 63.3262 77.4693C60.5159 78.6334 57.4235 78.9379 54.4401 78.3445C51.4566 77.751 48.7162 76.2862 46.5653 74.1353C44.4143 71.9844 42.9495 69.2439 42.3561 66.2605C41.7626 63.2771 42.0672 60.1847 43.2313 57.3743C44.3954 54.564 46.3667 52.162 48.8959 50.472C51.4251 48.782 54.3987 47.88 57.4406 47.88C61.5196 47.88 65.4316 49.5004 68.3159 52.3847C71.2002 55.269 72.8206 59.181 72.8206 63.26Z" fill="#8DC63F"/>
<path d="M65.9312 63.26C65.9331 64.9396 65.4369 66.582 64.5052 67.9795C63.5735 69.377 62.2483 70.4667 60.6971 71.1109C59.1459 71.755 57.4385 71.9245 55.791 71.5981C54.1434 71.2716 52.6297 70.4638 51.4414 69.2769C50.253 68.0899 49.4434 66.5772 49.115 64.93C48.7866 63.2828 48.9542 61.5753 49.5965 60.0233C50.2388 58.4714 51.327 57.1449 52.7233 56.2115C54.1197 55.2782 55.7616 54.78 57.4412 54.78C59.6911 54.78 61.8491 55.6731 63.441 57.2631C65.0329 58.8532 65.9285 61.01 65.9312 63.26Z" fill="#3C2415"/>
<path d="M58.0604 53.89C58.0545 55.1822 57.6659 56.4437 56.9437 57.5152C56.2214 58.5868 55.198 59.4204 54.0024 59.9108C52.8069 60.4012 51.4929 60.5264 50.2262 60.2707C48.9596 60.0149 47.7971 59.3897 46.8854 58.4739C45.9738 57.5581 45.3539 56.3927 45.104 55.1249C44.854 53.8571 44.9853 52.5437 45.4812 51.3504C45.977 50.1571 46.8153 49.1375 47.8901 48.4202C48.9649 47.7028 50.2282 47.32 51.5204 47.32C52.3818 47.32 53.2347 47.4901 54.0301 47.8207C54.8255 48.1512 55.5478 48.6356 56.1555 49.2461C56.7632 49.8566 57.2443 50.5811 57.5712 51.378C57.8981 52.175 58.0644 53.0286 58.0604 53.89Z" fill="white"/>
<path d="M66.4608 69.99C66.4608 70.5501 66.2946 71.0977 65.9831 71.5633C65.6717 72.0289 65.2291 72.3916 64.7115 72.6055C64.1938 72.8194 63.6242 72.8749 63.075 72.7649C62.5258 72.6549 62.0215 72.3843 61.6261 71.9875C61.2308 71.5908 60.962 71.0856 60.8539 70.5359C60.7459 69.9863 60.8034 69.417 61.0191 68.9C61.2348 68.3831 61.5991 67.9418 62.0658 67.6321C62.5325 67.3223 63.0806 67.158 63.6408 67.16C64.3896 67.1626 65.1069 67.462 65.6354 67.9924C66.164 68.5229 66.4608 69.2412 66.4608 69.99Z" fill="white"/>
<path d="M115.931 89.83C110.676 89.83 105.539 88.2717 101.17 85.3522C96.8004 82.4326 93.3949 78.283 91.3839 73.4279C89.3728 68.5729 88.8467 63.2305 89.8719 58.0765C90.8971 52.9224 93.4276 48.1881 97.1435 44.4722C100.859 40.7563 105.594 38.2258 110.748 37.2006C115.902 36.1753 121.244 36.7015 126.099 38.7125C130.954 40.7236 135.104 44.1291 138.023 48.4985C140.943 52.8679 142.501 58.005 142.501 63.26C142.493 70.3044 139.692 77.0579 134.71 82.0391C129.729 87.0202 122.976 89.8221 115.931 89.83Z" fill="white"/>
<path d="M115.93 38.32C120.875 38.32 125.708 39.7862 129.82 42.5333C133.931 45.2803 137.135 49.1848 139.027 53.7529C140.92 58.3211 141.415 63.3477 140.45 68.1973C139.485 73.0468 137.104 77.5014 133.608 80.9977C130.112 84.494 125.657 86.875 120.808 87.8396C115.958 88.8043 110.932 88.3092 106.363 86.417C101.795 84.5248 97.8908 81.3205 95.1437 77.2093C92.3967 73.098 90.9305 68.2645 90.9305 63.32C90.9305 56.6896 93.5644 50.3307 98.2528 45.6423C102.941 40.9539 109.3 38.32 115.93 38.32ZM115.93 35.09C110.354 35.088 104.902 36.7402 100.264 39.8374C95.6266 42.9346 92.0119 47.3378 89.8773 52.4899C87.7427 57.6419 87.1842 63.3113 88.2724 68.7808C89.3606 74.2504 92.0466 79.2742 95.9907 83.2169C99.9347 87.1595 104.96 89.8438 110.429 90.93C115.899 92.0163 121.569 91.4558 126.72 89.3194C131.871 87.183 136.273 83.5667 139.369 78.928C142.464 74.2893 144.114 68.8367 144.11 63.26C144.103 55.7877 141.131 48.6236 135.849 43.339C130.566 38.0543 123.403 35.0806 115.93 35.07V35.09Z" fill="#3C2415"/>
<path d="M127.68 41.24C132.306 45.231 135.311 50.7781 136.127 56.8336C136.942 62.889 135.512 69.0335 132.106 74.1062C128.7 79.1789 123.554 82.8287 117.64 84.366C111.727 85.9033 105.455 85.2217 100.01 82.45C102.689 84.7465 105.824 86.4499 109.208 87.4481C112.593 88.4463 116.151 88.7167 119.647 88.2415C123.144 87.7663 126.5 86.5562 129.495 84.6909C132.491 82.8257 135.057 80.3474 137.026 77.4191C138.995 74.4908 140.322 71.1789 140.92 67.7011C141.517 64.2233 141.371 60.6585 140.492 57.241C139.613 53.8236 138.02 50.631 135.819 47.8731C133.618 45.1152 130.857 42.8547 127.72 41.24H127.68Z" fill="#D1D3D4"/>
<path d="M131.301 63.26C131.301 66.3023 130.399 69.2763 128.708 71.8057C127.018 74.3352 124.615 76.3065 121.804 77.4702C118.993 78.634 115.901 78.938 112.917 78.3438C109.933 77.7495 107.193 76.2837 105.042 74.1318C102.892 71.9798 101.428 69.2385 100.835 66.2544C100.243 63.2703 100.549 60.1776 101.715 57.3674C102.88 54.5573 104.853 52.1559 107.384 50.4671C109.914 48.7784 112.889 47.878 115.931 47.88C117.95 47.88 119.95 48.2779 121.815 49.0509C123.681 49.824 125.375 50.957 126.803 52.3853C128.23 53.8136 129.362 55.5092 130.134 57.3751C130.906 59.241 131.302 61.2408 131.301 63.26Z" fill="#00A79D"/>
<path d="M131.301 63.26C131.301 66.3023 130.399 69.2763 128.708 71.8057C127.018 74.3352 124.615 76.3065 121.804 77.4702C118.993 78.634 115.901 78.938 112.917 78.3438C109.933 77.7495 107.193 76.2837 105.042 74.1318C102.892 71.9798 101.428 69.2385 100.835 66.2544C100.243 63.2703 100.549 60.1776 101.715 57.3674C102.88 54.5573 104.853 52.1559 107.384 50.4671C109.914 48.7784 112.889 47.878 115.931 47.88C117.95 47.88 119.95 48.2779 121.815 49.0509C123.681 49.824 125.375 50.957 126.803 52.3853C128.23 53.8136 129.362 55.5092 130.134 57.3751C130.906 59.241 131.302 61.2408 131.301 63.26Z" fill="#8DC63F"/>
<path d="M124.41 63.26C124.412 64.94 123.915 66.5829 122.983 67.9806C122.051 69.3783 120.725 70.468 119.173 71.1118C117.622 71.7556 115.914 71.9246 114.266 71.5974C112.618 71.2701 111.104 70.4613 109.916 69.2733C108.728 68.0854 107.92 66.5717 107.592 64.9239C107.265 63.276 107.434 61.5682 108.078 60.0164C108.722 58.4646 109.811 57.1388 111.209 56.2067C112.607 55.2745 114.25 54.778 115.93 54.78C118.179 54.78 120.336 55.6734 121.926 57.2637C123.516 58.854 124.41 61.011 124.41 63.26Z" fill="#3C2415"/>
<path d="M116.541 53.89C116.535 55.1826 116.146 56.4445 115.423 57.5163C114.701 58.588 113.677 59.4216 112.481 59.9117C111.284 60.4018 109.97 60.5265 108.703 60.2699C107.436 60.0134 106.274 59.3872 105.362 58.4703C104.451 57.5535 103.832 56.3872 103.583 55.1188C103.334 53.8503 103.467 52.5366 103.964 51.3435C104.462 50.1503 105.302 49.1314 106.378 48.4153C107.454 47.6992 108.718 47.3181 110.011 47.32C110.871 47.3213 111.723 47.4924 112.517 47.8236C113.312 48.1547 114.033 48.6393 114.64 49.2497C115.246 49.86 115.726 50.5841 116.053 51.3804C116.379 52.1766 116.545 53.0295 116.541 53.89Z" fill="white"/>
<path d="M124.941 69.99C124.941 70.5501 124.775 71.0977 124.464 71.5633C124.152 72.0289 123.71 72.3916 123.192 72.6055C122.674 72.8194 122.105 72.8749 121.555 72.7649C121.006 72.6549 120.502 72.3843 120.107 71.9875C119.711 71.5908 119.442 71.0856 119.334 70.5359C119.226 69.9863 119.284 69.417 119.5 68.9C119.715 68.3831 120.08 67.9418 120.546 67.6321C121.013 67.3223 121.561 67.158 122.121 67.16C122.87 67.1626 123.587 67.462 124.116 67.9924C124.644 68.5229 124.941 69.2412 124.941 69.99Z" fill="white"/>
<path d="M86.7616 137.2C64.0616 137.2 45.6016 123.71 45.6016 107.12C45.6016 104.96 45.6016 98.39 51.5316 98.39C53.8516 98.39 56.7216 99.39 60.3516 100.74C66.5516 102.98 75.0316 106.05 86.0816 106.05C97.1316 106.05 105.872 103.05 112.262 100.8C116.152 99.45 119.262 98.39 121.692 98.39C127.912 98.39 127.912 104.96 127.912 107.12C127.912 123.71 109.452 137.2 86.7616 137.2Z" fill="#F7B9D4"/>
<path d="M121.69 100.53C124.4 100.53 125.77 102.21 125.77 107.12C125.77 122.55 108.3 135.06 86.7702 135.06C65.2402 135.06 47.7702 122.55 47.7702 107.12C47.7702 102.21 49.0202 100.53 51.5602 100.53C57.0002 100.53 68.3602 108.19 86.1102 108.19C103.86 108.19 115.93 100.53 121.72 100.53M121.72 96.25C118.9 96.25 115.67 97.36 111.59 98.78C105.34 100.94 96.7802 103.91 86.1102 103.91C75.4402 103.91 67.1602 100.91 61.1102 98.73C57.2802 97.34 54.2502 96.25 51.5602 96.25C47.8802 96.25 43.4902 98.13 43.4902 107.12C43.4902 116.11 48.1502 124.26 56.6802 130.32C64.7602 136.11 75.4502 139.32 86.7602 139.32C98.0702 139.32 108.76 136.13 116.84 130.32C125.36 124.22 130.05 115.96 130.05 107.08C130.05 103.76 129.5 101.38 128.33 99.59C127.612 98.4983 126.623 97.6125 125.458 97.0198C124.294 96.4272 122.995 96.148 121.69 96.21L121.72 96.25Z" fill="#3C2415"/>
<path d="M86.7602 116.74C84.9001 116.813 83.0618 116.318 81.4902 115.32C80.2536 115.952 78.8786 116.265 77.4902 116.23C77.026 116.231 76.562 116.208 76.1002 116.16C74.2385 116.032 72.4614 115.333 71.0102 114.16C70.0726 114.536 69.0702 114.722 68.0602 114.71C67.2085 114.703 66.36 114.603 65.5302 114.41C63.6852 114.076 61.9861 113.186 60.6602 111.86C60.0097 112.044 59.3363 112.135 58.6602 112.13C57.466 112.114 56.2828 111.898 55.1602 111.49C54.0416 111.196 52.9959 110.674 52.0889 109.956C51.182 109.239 50.4334 108.341 49.8902 107.32C49.5336 106.479 49.3599 105.571 49.3806 104.657C49.4012 103.743 49.6159 102.845 50.0102 102.02C50.4275 101.058 50.9615 100.151 51.6002 99.32C51.8005 99.0562 52.0591 98.8422 52.3557 98.6948C52.6523 98.5473 52.979 98.4704 53.3102 98.47C53.4549 98.4724 53.5989 98.4891 53.7402 98.52C55.9887 99.0692 58.1971 99.7708 60.3502 100.62C66.5502 102.86 75.0302 105.93 86.0802 105.93C97.1302 105.93 105.87 102.93 112.26 100.68C114.712 99.7395 117.233 98.9906 119.8 98.44C119.92 98.4301 120.04 98.4301 120.16 98.44C120.487 98.4381 120.81 98.512 121.103 98.6561C121.396 98.8001 121.652 99.0103 121.85 99.27C122.512 100.115 123.066 101.039 123.5 102.02C123.895 102.846 124.11 103.747 124.13 104.662C124.151 105.578 123.977 106.487 123.62 107.33C123.082 108.358 122.336 109.263 121.431 109.99C120.526 110.716 119.48 111.247 118.36 111.55C117.236 111.95 116.054 112.163 114.86 112.18C114.184 112.184 113.511 112.093 112.86 111.91C111.536 113.238 109.836 114.128 107.99 114.46C107.161 114.654 106.312 114.754 105.46 114.76C104.45 114.772 103.448 114.586 102.51 114.21C101.059 115.383 99.282 116.082 97.4202 116.21C96.9585 116.258 96.4945 116.281 96.0302 116.28C94.642 116.314 93.2673 116.001 92.0302 115.37C90.4623 116.368 88.6272 116.863 86.7702 116.79L86.7602 116.74Z" fill="white"/>
<path d="M120.16 100.53C120.707 101.235 121.167 102.004 121.53 102.82C122.95 106.17 120.88 108.38 117.67 109.47C116.768 109.794 115.819 109.97 114.86 109.99C113.857 110.024 112.874 109.705 112.08 109.09C111.49 110.78 109.72 111.83 107.52 112.32C106.845 112.475 106.154 112.556 105.46 112.56C104.831 112.601 104.2 112.512 103.607 112.299C103.013 112.085 102.47 111.752 102.01 111.32C101.25 112.94 99.3904 113.78 97.1604 114.03C96.775 114.069 96.3878 114.089 96.0004 114.09C95.2265 114.157 94.4476 114.043 93.7255 113.756C93.0034 113.47 92.358 113.019 91.8404 112.44C90.9104 113.96 88.9704 114.6 86.7304 114.6C84.4904 114.6 82.5504 113.96 81.6204 112.44C81.1028 113.019 80.4574 113.47 79.7353 113.756C79.0132 114.043 78.2343 114.157 77.4604 114.09C77.0763 114.09 76.6925 114.07 76.3104 114.03C74.0804 113.78 72.2104 112.94 71.4504 111.32C70.9946 111.748 70.4562 112.079 69.8682 112.292C69.2802 112.506 68.6548 112.597 68.0304 112.56C67.3504 112.553 66.6731 112.472 66.0104 112.32C63.8104 111.83 62.0104 110.78 61.4504 109.09C60.6588 109.708 59.6742 110.027 58.6704 109.99C57.7118 109.97 56.7629 109.794 55.8604 109.47C52.6604 108.38 50.5804 106.17 52.0004 102.82C52.3521 102.026 52.7987 101.277 53.3304 100.59C59.3304 101.82 70.0904 108.05 86.1004 108.05C102.52 108.05 113.93 101.58 120.18 100.53M120.18 96.25C119.942 96.2497 119.705 96.2698 119.47 96.31C116.784 96.8785 114.147 97.6542 111.58 98.63C105.33 100.8 96.7704 103.77 86.1004 103.77C75.4304 103.77 67.1004 100.77 61.1004 98.58C58.8495 97.6966 56.5408 96.9682 54.1904 96.4C53.4002 96.2347 52.5793 96.2973 51.8233 96.5806C51.0673 96.8639 50.4074 97.3561 49.9204 98C49.1574 98.9535 48.5158 99.9982 48.0104 101.11C47.4979 102.203 47.2231 103.392 47.2042 104.598C47.1852 105.805 47.4225 107.002 47.9004 108.11C48.9904 110.54 51.2404 112.39 54.4204 113.47C55.7659 113.95 57.1818 114.204 58.6104 114.22C59.0619 114.221 59.513 114.19 59.9604 114.13C61.4419 115.289 63.1752 116.084 65.0204 116.45C66.0046 116.676 67.0106 116.793 68.0204 116.8C68.8802 116.807 69.7373 116.703 70.5704 116.49C72.1631 117.476 73.9645 118.075 75.8304 118.24C76.3684 118.299 76.9092 118.329 77.4504 118.33C78.7693 118.341 80.0796 118.117 81.3204 117.67C83.0216 118.434 84.8654 118.83 86.7304 118.83C88.5954 118.83 90.4392 118.434 92.1404 117.67C93.3777 118.117 94.6848 118.341 96.0004 118.33C96.545 118.329 97.0891 118.299 97.6304 118.24C99.4928 118.074 101.291 117.474 102.88 116.49C103.714 116.703 104.571 116.807 105.43 116.8C106.44 116.793 107.446 116.676 108.43 116.45C110.276 116.084 112.009 115.289 113.49 114.13C113.938 114.19 114.389 114.221 114.84 114.22C116.272 114.203 117.691 113.95 119.04 113.47C122.21 112.39 124.47 110.54 125.55 108.11C126.032 107.003 126.272 105.806 126.255 104.599C126.237 103.392 125.963 102.203 125.45 101.11C124.949 99.9601 124.304 98.8782 123.53 97.89C123.131 97.3702 122.618 96.9492 122.03 96.6596C121.442 96.37 120.796 96.2196 120.14 96.22L120.18 96.25Z" fill="#3C2415"/>
<path d="M63.0098 104.96C61.3898 106.81 59.8598 108.81 57.7598 109.96C58.3932 110.081 59.0447 110.068 59.6731 109.924C60.3014 109.779 60.8929 109.505 61.4098 109.12C61.6519 109.719 62.0161 110.262 62.4792 110.713C62.9423 111.164 63.4942 111.514 64.0998 111.74C63.3121 109.569 62.9423 107.269 63.0098 104.96Z" fill="#D1D3D4"/>
<path d="M72.4004 108.68C71.8388 109.866 71.1693 110.997 70.4004 112.06C70.7731 111.872 71.1112 111.621 71.4004 111.32C71.6175 111.779 71.9274 112.187 72.3104 112.52C72.2106 111.24 72.2408 109.954 72.4004 108.68Z" fill="#D1D3D4"/>
<path d="M79.9004 113.69C80.5847 113.442 81.187 113.009 81.6404 112.44C81.881 112.825 82.1893 113.164 82.5504 113.44C82.3504 112.2 82.3204 110.91 82.2504 109.81C81.6308 111.196 80.8414 112.499 79.9004 113.69Z" fill="#D1D3D4"/>
<path d="M91.1309 113.32C91.4193 113.072 91.6687 112.782 91.8709 112.46C92.4499 113.171 93.2481 113.67 94.1409 113.88C93.3112 112.535 92.7318 111.051 92.4309 109.5C91.8478 110.717 91.4115 112 91.1309 113.32Z" fill="#D1D3D4"/>
<path d="M100.521 112.98C101.168 112.583 101.686 112.006 102.011 111.32C102.712 112.009 103.632 112.43 104.611 112.51C103.818 111.379 103.084 110.207 102.411 109C101.741 110.32 101.161 111.67 100.521 112.98Z" fill="#D1D3D4"/>
<path d="M111.651 106.25C111.923 107.648 111.791 109.094 111.271 110.42C111.632 110.039 111.908 109.586 112.081 109.09C112.893 109.722 113.904 110.041 114.931 109.99C113.551 108.95 112.181 107.95 111.651 106.25Z" fill="#D1D3D4"/>
<path d="M86.7612 136.63C78.3012 136.63 68.8512 134.43 62.7012 131.02C62.421 130.866 62.1945 130.631 62.0518 130.345C61.9091 130.059 61.8572 129.736 61.9028 129.419C61.9485 129.103 62.0896 128.808 62.3073 128.574C62.525 128.34 62.809 128.178 63.1212 128.11C78.7287 125.043 94.7838 125.043 110.391 128.11C110.703 128.178 110.987 128.34 111.205 128.574C111.423 128.808 111.564 129.103 111.61 129.419C111.655 129.736 111.603 130.059 111.461 130.345C111.318 130.631 111.091 130.866 110.811 131.02C104.661 134.43 95.2112 136.63 86.7612 136.63Z" fill="#F37F94"/>
<path d="M86.7598 127.38C94.5653 127.364 102.353 128.121 110.01 129.64C103.95 133 94.7398 135.06 86.7198 135.06C78.6998 135.06 69.4798 133 63.4198 129.64C71.0926 128.118 78.8975 127.361 86.7198 127.38M86.7198 124.24C78.6619 124.211 70.6215 124.991 62.7198 126.57C62.096 126.709 61.5293 127.035 61.095 127.504C60.6606 127.973 60.3792 128.563 60.2881 129.195C60.1969 129.828 60.3004 130.473 60.5847 131.046C60.8689 131.618 61.3206 132.09 61.8798 132.4C68.2498 135.92 77.9898 138.21 86.6998 138.21C95.4098 138.21 105.14 135.92 111.51 132.4C112.069 132.09 112.521 131.618 112.805 131.046C113.089 130.473 113.193 129.828 113.101 129.195C113.01 128.563 112.729 127.973 112.295 127.504C111.86 127.035 111.294 126.709 110.67 126.57C102.768 124.991 94.7276 124.21 86.6698 124.24H86.7198Z" fill="#3C2415"/>
<g style="mix-blend-mode:multiply">
<path d="M87.2702 132.39C86.9148 133.309 86.4867 134.199 85.9902 135.05H87.6002C87.3075 134.196 87.1951 133.29 87.2702 132.39Z" fill="#BCBEC0"/>
</g>
</g>
<defs>
<clipPath id="clip0_3247_2875">
<rect width="173.37" height="173.37" fill="white"/>
</clipPath>
</defs>
</svg>
