<svg width="174" height="186" viewBox="0 0 174 186" fill="none" xmlns="http://www.w3.org/2000/svg">
<g clip-path="url(#clip0_3247_2837)">
<path d="M88.7578 170.209C134.881 169.058 171.338 130.734 170.187 84.6105C169.036 38.487 130.712 2.02992 84.5882 3.18132C38.4647 4.33272 2.00761 42.6566 3.15901 88.7801C4.31041 134.904 42.6343 171.361 88.7578 170.209Z" fill="#27AAE1"/>
<path d="M86.6798 6.32C102.581 6.32 118.126 11.0354 131.348 19.8698C144.569 28.7043 154.874 41.2611 160.96 55.9523C167.045 70.6434 168.637 86.8092 165.535 102.405C162.433 118.001 154.775 132.327 143.531 143.571C132.287 154.816 117.961 162.473 102.365 165.575C86.769 168.677 70.6032 167.085 55.9121 161C41.2209 154.915 28.6641 144.61 19.8296 131.388C10.9952 118.166 6.2798 102.622 6.2798 86.72C6.28245 65.3974 14.754 44.9489 29.8313 29.8715C44.9087 14.7942 65.3572 6.32265 86.6798 6.32ZM86.6798 0.0400009C69.5365 0.0419787 52.7788 5.12735 38.5257 14.6531C24.2726 24.1788 13.1641 37.7171 6.60505 53.5559C0.0459838 69.3948 -1.66914 86.8229 1.67656 103.637C5.02225 120.45 13.2785 135.894 25.4013 148.016C37.5241 160.137 52.9691 168.391 69.7831 171.735C86.5971 175.079 104.025 173.362 119.863 166.801C135.701 160.24 149.238 149.13 158.762 134.876C168.286 120.622 173.37 103.863 173.37 86.72C173.343 63.7374 164.201 41.7039 147.949 25.4537C131.697 9.20348 109.662 0.063821 86.6798 0.0400009Z" fill="#3C2415"/>
<g opacity="0.3">
<path d="M22.5888 94.98C22.594 80.968 26.6751 67.2601 34.3347 55.5271C41.9944 43.794 52.9019 34.5426 65.7276 28.9003C78.5534 23.258 92.7435 21.4686 106.568 23.7502C120.393 26.0318 133.256 32.2858 143.589 41.75C137.496 33.7881 129.813 27.1819 121.028 22.3518C112.243 17.5217 102.548 14.5737 92.5615 13.6952C82.5747 12.8168 72.5144 14.0273 63.021 17.2496C53.5275 20.472 44.809 25.6355 37.4203 32.4117C30.0317 39.1878 24.1347 47.4281 20.1049 56.6079C16.0751 65.7877 14.0007 75.706 14.0137 85.7314C14.0268 95.7567 16.1269 105.67 20.1806 114.839C24.2343 124.008 30.1526 132.233 37.5588 138.99C27.8292 126.385 22.5634 110.904 22.5888 94.98Z" fill="white"/>
</g>
<g style="mix-blend-mode:multiply" opacity="0.75">
<path d="M138.65 25.32C151.691 40.7138 158.467 60.4477 157.635 80.6055C156.803 100.763 148.422 119.871 134.157 134.138C119.892 148.404 100.785 156.786 80.627 157.62C60.4693 158.454 40.7348 151.679 25.3398 138.64C32.5259 147.123 41.3932 154.023 51.3814 158.905C61.3697 163.787 72.2618 166.544 83.3698 167.003C94.4778 167.461 105.56 165.611 115.917 161.569C126.273 157.527 135.679 151.381 143.54 143.52C151.401 135.658 157.546 126.252 161.587 115.895C165.628 105.538 167.477 94.4554 167.018 83.3475C166.558 72.2395 163.8 61.3476 158.917 51.3598C154.034 41.372 147.133 32.5053 138.65 25.32Z" fill="#27AAE1"/>
</g>
<path d="M57.5591 95.5C52.2804 95.5 47.1201 93.9347 42.731 91.0019C38.3418 88.0692 34.9209 83.9008 32.9008 79.0238C30.8807 74.1469 30.3522 68.7804 31.382 63.603C32.4118 58.4257 34.9538 53.67 38.6865 49.9373C42.4191 46.2047 47.1749 43.6627 52.3522 42.6328C57.5296 41.603 62.896 42.1316 67.773 44.1517C72.6499 46.1718 76.8183 49.5927 79.7511 53.9818C82.6838 58.371 84.2491 63.5312 84.2491 68.81C84.2412 75.8862 81.4267 82.6703 76.4231 87.6739C71.4194 92.6775 64.6353 95.4921 57.5591 95.5Z" fill="white"/>
<path d="M57.56 43.74C62.5184 43.74 67.3654 45.2103 71.4882 47.9651C75.6109 50.7198 78.8242 54.6352 80.7217 59.2161C82.6191 63.7971 83.1156 68.8378 82.1483 73.7009C81.181 78.564 78.7933 83.0311 75.2872 86.5372C71.7811 90.0433 67.314 92.431 62.4509 93.3983C57.5878 94.3656 52.5471 93.8691 47.9661 91.9717C43.3852 90.0742 39.4698 86.8609 36.7151 82.7381C33.9603 78.6154 32.49 73.7684 32.49 68.81C32.49 62.161 35.1313 55.7844 39.8328 51.0828C44.5344 46.3813 50.911 43.74 57.56 43.74ZM57.56 40.5C51.9608 40.5 46.4874 42.1604 41.8318 45.2711C37.1763 48.3818 33.5477 52.8033 31.405 57.9762C29.2623 63.1492 28.7016 68.8414 29.794 74.333C30.8863 79.8246 33.5826 84.869 37.5418 88.8282C41.501 92.7874 46.5454 95.4837 52.037 96.576C57.5286 97.6684 63.2208 97.1077 68.3938 94.965C73.5668 92.8223 77.9882 89.1937 81.0989 84.5382C84.2097 79.8826 85.87 74.4092 85.87 68.81C85.8621 61.3042 82.8769 54.108 77.5694 48.8006C72.262 43.4931 65.0658 40.5079 57.56 40.5Z" fill="#3C2415"/>
<path d="M69.3591 46.69C74.1311 50.6587 77.2612 56.2565 78.1438 62.4001C79.0264 68.5437 77.5987 74.7963 74.1369 79.9479C70.6751 85.0995 65.4255 88.7838 59.4038 90.2878C53.3821 91.7919 47.0166 91.0088 41.5391 88.09C44.236 90.3329 47.3735 91.985 50.7489 92.9393C54.1243 93.8936 57.6625 94.1289 61.1345 93.6301C64.6066 93.1314 67.9353 91.9095 70.9056 90.0436C73.8758 88.1776 76.4214 85.7091 78.3779 82.7977C80.3343 79.8863 81.658 76.5967 82.2633 73.1416C82.8687 69.6865 82.7423 66.1429 81.8923 62.7397C81.0423 59.3365 79.4875 56.1496 77.3286 53.385C75.1697 50.6204 72.4547 48.3396 69.3591 46.69Z" fill="#D1D3D4"/>
<path d="M65.8195 73C65.8195 76.0537 64.9139 79.0389 63.2174 81.578C61.5208 84.1171 59.1094 86.0961 56.2881 87.2647C53.4668 88.4333 50.3623 88.7391 47.3673 88.1433C44.3722 87.5476 41.6211 86.077 39.4617 83.9177C37.3024 81.7584 35.8319 79.0073 35.2361 76.0122C34.6404 73.0171 34.9461 69.9127 36.1148 67.0914C37.2834 64.2701 39.2624 61.8587 41.8015 60.1621C44.3406 58.4655 47.3257 57.56 50.3795 57.56C54.4744 57.56 58.4016 59.1867 61.2972 62.0823C64.1927 64.9778 65.8195 68.9051 65.8195 73Z" fill="#00A79D"/>
<path d="M65.8195 73C65.8195 76.0537 64.9139 79.0389 63.2174 81.578C61.5208 84.1171 59.1094 86.0961 56.2881 87.2647C53.4668 88.4333 50.3623 88.7391 47.3673 88.1433C44.3722 87.5476 41.6211 86.077 39.4617 83.9177C37.3024 81.7584 35.8319 79.0073 35.2361 76.0122C34.6404 73.0171 34.9461 69.9127 36.1148 67.0914C37.2834 64.2701 39.2624 61.8587 41.8015 60.1621C44.3406 58.4655 47.3257 57.56 50.3795 57.56C54.4744 57.56 58.4016 59.1867 61.2972 62.0823C64.1927 64.9778 65.8195 68.9051 65.8195 73Z" fill="#27AAE1"/>
<path d="M58.8994 73C58.8994 74.6851 58.3997 76.3324 57.4635 77.7335C56.5273 79.1346 55.1967 80.2266 53.6398 80.8715C52.083 81.5163 50.3699 81.685 48.7172 81.3563C47.0645 81.0275 45.5464 80.2161 44.3548 79.0245C43.1633 77.833 42.3518 76.3149 42.0231 74.6622C41.6943 73.0094 41.8631 71.2964 42.5079 69.7395C43.1528 68.1827 44.2448 66.8521 45.6459 65.9159C47.047 64.9797 48.6943 64.48 50.3794 64.48C51.4986 64.4787 52.6071 64.6982 53.6414 65.1259C54.6757 65.5536 55.6155 66.1811 56.4069 66.9725C57.1983 67.7639 57.8258 68.7037 58.2535 69.738C58.6812 70.7723 58.9007 71.8808 58.8994 73Z" fill="#3C2415"/>
<path d="M50.9994 63.59C50.9994 64.8894 50.6141 66.1597 49.8921 67.2401C49.1702 68.3205 48.1441 69.1626 46.9436 69.6599C45.7431 70.1572 44.4221 70.2873 43.1476 70.0338C41.8732 69.7803 40.7025 69.1545 39.7837 68.2357C38.8649 67.3169 38.2391 66.1462 37.9856 64.8717C37.7321 63.5973 37.8622 62.2763 38.3595 61.0758C38.8568 59.8753 39.6989 58.8492 40.7793 58.1272C41.8597 57.4053 43.13 57.02 44.4294 57.02C45.2922 57.02 46.1465 57.1899 46.9436 57.5201C47.7407 57.8503 48.465 58.3342 49.0751 58.9443C49.6851 59.5544 50.1691 60.2787 50.4993 61.0758C50.8294 61.8729 50.9994 62.7272 50.9994 63.59Z" fill="white"/>
<path d="M59.4398 79.76C59.4398 80.3217 59.2732 80.8708 58.9611 81.3378C58.6491 81.8049 58.2055 82.1689 57.6866 82.3838C57.1676 82.5988 56.5966 82.655 56.0457 82.5454C55.4948 82.4359 54.9888 82.1654 54.5916 81.7682C54.1944 81.371 53.9239 80.865 53.8143 80.3141C53.7048 79.7632 53.761 79.1921 53.976 78.6732C54.1909 78.1542 54.5549 77.7107 55.0219 77.3986C55.489 77.0866 56.0381 76.92 56.5998 76.92C57.353 76.92 58.0753 77.2192 58.6079 77.7518C59.1405 78.2844 59.4398 79.0068 59.4398 79.76Z" fill="white"/>
<path d="M116.29 95.5C111.011 95.5 105.851 93.9347 101.461 91.0019C97.0723 88.0692 93.6514 83.9008 91.6313 79.0238C89.6112 74.1469 89.0826 68.7804 90.1125 63.603C91.1423 58.4257 93.6843 53.67 97.4169 49.9373C101.15 46.2047 105.905 43.6627 111.083 42.6328C116.26 41.603 121.626 42.1316 126.503 44.1517C131.38 46.1718 135.549 49.5927 138.482 53.9818C141.414 58.371 142.98 63.5312 142.98 68.81C142.974 75.887 140.161 82.6726 135.156 87.6768C130.152 92.681 123.367 95.4947 116.29 95.5Z" fill="white"/>
<path d="M116.29 43.74C121.249 43.738 126.097 45.2067 130.221 47.9602C134.345 50.7137 137.56 54.6284 139.459 59.2092C141.358 63.79 141.856 68.831 140.89 73.6948C139.924 78.5585 137.537 83.0265 134.031 86.5336C130.525 90.0407 126.058 92.4294 121.195 93.3976C116.331 94.3657 111.29 93.8698 106.709 91.9726C102.127 90.0754 98.2112 86.8621 95.456 82.7392C92.7008 78.6162 91.2303 73.7688 91.2303 68.81C91.2303 62.1628 93.8702 55.7876 98.5696 51.0864C103.269 46.3851 109.643 43.7426 116.29 43.74ZM116.29 40.5C110.691 40.502 105.219 42.164 100.565 45.276C95.9106 48.3879 92.2835 52.81 90.1423 57.9832C88.0012 63.1563 87.442 68.8482 88.5354 74.3391C89.6289 79.8301 92.326 84.8735 96.2856 88.8317C100.245 92.79 105.29 95.4852 110.781 96.5768C116.272 97.6683 121.964 97.1071 127.136 94.9641C132.309 92.8211 136.73 89.1925 139.84 84.5372C142.95 79.8818 144.61 74.4088 144.61 68.81C144.602 61.3024 141.616 54.1048 136.306 48.7971C130.997 43.4893 123.798 40.5053 116.29 40.5Z" fill="#3C2415"/>
<path d="M128.1 46.69C132.879 50.6573 136.015 56.2576 136.901 62.4055C137.787 68.5535 136.358 74.8113 132.893 79.9663C129.428 85.1212 124.172 88.8062 118.145 90.3071C112.117 91.808 105.748 91.0179 100.27 88.09C102.967 90.3289 106.104 91.9774 109.477 92.9288C112.851 93.8803 116.387 94.1137 119.857 93.6139C123.326 93.1141 126.652 91.8922 129.62 90.0272C132.588 88.1622 135.132 85.6954 137.088 82.7863C139.044 79.8771 140.367 76.5901 140.974 73.1376C141.58 69.685 141.456 66.1437 140.609 62.7422C139.762 59.3407 138.211 56.1546 136.056 53.3896C133.902 50.6247 131.191 48.3424 128.1 46.69Z" fill="#D1D3D4"/>
<path d="M135.16 59.61C135.162 62.6666 134.257 65.6551 132.56 68.1973C130.863 70.7396 128.45 72.7214 125.627 73.892C122.803 75.0626 119.696 75.3694 116.698 74.7736C113.7 74.1778 110.946 72.7061 108.785 70.5448C106.624 68.3835 105.152 65.6296 104.556 62.6317C103.96 59.6338 104.267 56.5264 105.438 53.7029C106.608 50.8794 108.59 48.4665 111.132 46.7696C113.675 45.0727 116.663 44.168 119.72 44.17C123.815 44.17 127.742 45.7967 130.637 48.6923C133.533 51.5878 135.16 55.5151 135.16 59.61Z" fill="#27AAE1"/>
<path d="M128.159 59.61C128.159 61.2955 127.659 62.9432 126.723 64.3445C125.786 65.7458 124.455 66.8378 122.897 67.4824C121.34 68.127 119.626 68.2951 117.973 67.9656C116.32 67.636 114.802 66.8235 113.611 65.631C112.42 64.4385 111.609 62.9194 111.282 61.266C110.954 59.6127 111.124 57.8993 111.771 56.3426C112.417 54.786 113.511 53.456 114.913 52.521C116.315 51.586 117.964 51.088 119.649 51.09C121.907 51.0926 124.072 51.9915 125.667 53.589C127.263 55.1865 128.159 57.3521 128.159 59.61Z" fill="#3C2415"/>
<path d="M120.3 50.2C120.3 51.4994 119.915 52.7697 119.193 53.8501C118.471 54.9305 117.445 55.7726 116.244 56.2699C115.044 56.7672 113.723 56.8973 112.448 56.6438C111.174 56.3903 110.003 55.7645 109.084 54.8457C108.166 53.9269 107.54 52.7562 107.286 51.4817C107.033 50.2073 107.163 48.8863 107.66 47.6858C108.158 46.4853 109 45.4592 110.08 44.7372C111.16 44.0153 112.431 43.63 113.73 43.63C115.473 43.63 117.144 44.3222 118.376 45.5543C119.608 46.7864 120.3 48.4575 120.3 50.2Z" fill="white"/>
<path d="M128.731 66.37C128.731 66.9321 128.564 67.4816 128.251 67.9489C127.939 68.4161 127.495 68.7801 126.975 68.9948C126.456 69.2094 125.884 69.2651 125.333 69.1547C124.782 69.0443 124.276 68.7728 123.879 68.3746C123.482 67.9764 123.213 67.4695 123.104 66.9179C122.996 66.3663 123.053 65.795 123.27 65.2762C123.486 64.7575 123.852 64.3146 124.32 64.0038C124.789 63.6929 125.339 63.528 125.901 63.53C126.652 63.5326 127.372 63.833 127.903 64.3653C128.433 64.8977 128.731 65.6185 128.731 66.37Z" fill="white"/>
<path d="M87.0002 143.07C64.2102 143.07 45.6602 129.52 45.6602 112.86C45.6602 110.69 45.6602 104.09 51.6602 104.09C53.9902 104.09 56.8701 105.09 60.5201 106.45C66.7401 108.71 75.2602 111.79 86.3602 111.79C97.4602 111.79 106.23 108.74 112.66 106.51C116.56 105.16 119.66 104.09 122.13 104.09C128.37 104.09 128.37 110.69 128.37 112.86C128.33 129.52 109.79 143.07 87.0002 143.07Z" fill="#F7B9D4"/>
<path d="M122.09 106.24C124.81 106.24 126.18 107.92 126.18 112.86C126.18 128.36 108.64 140.92 86.9998 140.92C65.3598 140.92 47.8198 128.32 47.8198 112.86C47.8198 107.92 49.0698 106.24 51.6198 106.24C57.0798 106.24 68.4898 113.94 86.3198 113.94C104.15 113.94 116.26 106.24 122.09 106.24ZM122.09 101.94C119.25 101.94 116.01 103.06 111.91 104.48C105.63 106.66 97.0298 109.64 86.3198 109.64C75.6098 109.64 67.3197 106.64 61.2097 104.43C57.3597 103.04 54.3198 101.94 51.6198 101.94C47.9198 101.94 43.5098 103.83 43.5098 112.86C43.5098 121.89 48.2298 130.07 56.7898 136.2C64.9098 142.02 75.6398 145.2 86.9998 145.2C98.3598 145.2 109.08 141.99 117.21 136.2C125.77 130.07 130.48 121.78 130.48 112.86C130.48 109.52 129.93 107.13 128.75 105.33C128.029 104.236 127.036 103.348 125.869 102.753C124.701 102.159 123.399 101.879 122.09 101.94Z" fill="#3C2415"/>
<path d="M86.9905 122.52C85.1263 122.59 83.2848 122.091 81.7105 121.09C80.4753 121.727 79.0999 122.043 77.7105 122.01C77.2463 122.011 76.7823 121.988 76.3206 121.94C74.4509 121.806 72.6658 121.109 71.2006 119.94C70.2627 120.315 69.2604 120.502 68.2506 120.49C67.3921 120.484 66.537 120.383 65.7006 120.19C63.8493 119.851 62.1443 118.958 60.8106 117.63C60.1598 117.813 59.4866 117.904 58.8106 117.9C57.6107 117.883 56.4217 117.671 55.2906 117.27C54.1665 116.967 53.1177 116.433 52.2105 115.703C51.3034 114.973 50.5576 114.063 50.0205 113.03C49.6594 112.186 49.4824 111.276 49.5014 110.358C49.5203 109.441 49.7349 108.538 50.1306 107.71C50.5539 106.749 51.091 105.843 51.7306 105.01C51.9309 104.746 52.1894 104.532 52.486 104.385C52.7826 104.237 53.1093 104.16 53.4406 104.16C53.5869 104.145 53.7343 104.145 53.8806 104.16C56.139 104.713 58.3574 105.417 60.5205 106.27C66.7405 108.52 75.2606 111.6 86.3606 111.6C97.4606 111.6 106.231 108.6 112.661 106.33C115.101 105.403 117.608 104.664 120.161 104.12H120.511C120.841 104.12 121.167 104.196 121.463 104.341C121.76 104.487 122.019 104.699 122.221 104.96C122.885 105.807 123.439 106.734 123.871 107.72C124.267 108.549 124.483 109.453 124.504 110.372C124.525 111.291 124.35 112.204 123.991 113.05C123.451 114.083 122.704 114.994 121.795 115.723C120.886 116.453 119.836 116.987 118.711 117.29C117.583 117.69 116.397 117.902 115.201 117.92C114.525 117.922 113.852 117.831 113.201 117.65C111.87 118.982 110.164 119.875 108.311 120.21C107.478 120.404 106.626 120.504 105.771 120.51C104.744 120.527 103.724 120.34 102.771 119.96C101.312 121.134 99.5285 121.832 97.6606 121.96C97.1988 122.008 96.7348 122.031 96.2705 122.03C94.8812 122.063 93.5058 121.747 92.2705 121.11C90.6962 122.111 88.8548 122.61 86.9905 122.54V122.52Z" fill="white"/>
<path d="M120.54 106.24C121.095 106.945 121.559 107.718 121.92 108.54C123.35 111.91 121.27 114.12 118.04 115.22C117.138 115.544 116.189 115.72 115.23 115.74C114.22 115.78 113.228 115.461 112.43 114.84C111.84 116.54 110.06 117.59 107.86 118.08C107.178 118.238 106.481 118.322 105.78 118.33C105.153 118.366 104.526 118.274 103.936 118.059C103.346 117.844 102.807 117.511 102.35 117.08C101.58 118.7 99.7102 119.55 97.4802 119.8C97.0802 119.8 96.6902 119.86 96.3202 119.86C95.5411 119.925 94.7575 119.809 94.0306 119.521C93.3038 119.233 92.6533 118.781 92.1302 118.2C91.2002 119.73 89.2502 120.37 87.0102 120.37C84.7702 120.37 82.8302 119.73 81.8902 118.2C81.3715 118.784 80.7233 119.238 79.9974 119.527C79.2715 119.815 78.4882 119.929 77.7102 119.86C77.3227 119.86 76.9356 119.84 76.5502 119.8C74.3202 119.55 72.4402 118.7 71.6802 117.08C71.2227 117.509 70.6829 117.842 70.0933 118.057C69.5037 118.271 68.8767 118.364 68.2502 118.33C67.5498 118.322 66.8524 118.238 66.1702 118.08C63.9602 117.59 62.1702 116.54 61.5902 114.84C60.7964 115.461 59.8075 115.78 58.8002 115.74C57.8384 115.72 56.8861 115.544 55.9802 115.22C52.7602 114.12 50.6702 111.91 52.1002 108.54C52.4539 107.747 52.9004 106.998 53.4302 106.31C59.4302 107.53 70.2702 113.79 86.3502 113.79C102.84 113.79 114.35 107.3 120.57 106.24M120.57 101.94C120.329 101.94 120.088 101.96 119.85 102C117.156 102.571 114.511 103.354 111.94 104.34C105.65 106.51 97.0502 109.49 86.3402 109.49C75.6302 109.49 67.3402 106.49 61.2302 104.29C58.9693 103.401 56.6506 102.665 54.2902 102.09C53.4961 101.924 52.6711 101.987 51.9116 102.273C51.1521 102.558 50.4892 103.053 50.0002 103.7C49.2552 104.667 48.6306 105.722 48.1402 106.84C47.6233 107.942 47.3462 109.141 47.3272 110.358C47.3083 111.575 47.5479 112.782 48.0302 113.9C49.1202 116.34 51.3902 118.2 54.5802 119.29C55.9328 119.77 57.3552 120.023 58.7902 120.04C59.2417 120.041 59.6928 120.01 60.1402 119.95C61.6326 121.112 63.3754 121.91 65.2302 122.28C66.2147 122.505 67.2205 122.622 68.2302 122.63C69.0925 122.634 69.9522 122.533 70.7902 122.33C72.3915 123.313 74.1987 123.912 76.0702 124.08C76.6081 124.14 77.149 124.17 77.6902 124.17C79.0124 124.182 80.3262 123.958 81.5702 123.51C83.28 124.275 85.1321 124.67 87.0052 124.67C88.8783 124.67 90.7304 124.275 92.4402 123.51C93.6879 123.957 95.0048 124.181 96.3302 124.17C96.8751 124.17 97.4194 124.137 97.9602 124.07C99.8287 123.91 101.634 123.314 103.23 122.33C104.068 122.534 104.928 122.635 105.79 122.63C106.8 122.622 107.806 122.505 108.79 122.28C110.642 121.91 112.381 121.112 113.87 119.95C114.321 120.011 114.775 120.041 115.23 120.04C116.665 120.023 118.088 119.77 119.44 119.29C120.846 118.897 122.154 118.215 123.28 117.286C124.406 116.358 125.326 115.205 125.98 113.9C126.458 112.792 126.697 111.597 126.682 110.39C126.666 109.184 126.396 107.995 125.89 106.9C125.382 105.745 124.734 104.657 123.96 103.66C123.558 103.138 123.041 102.716 122.45 102.425C121.859 102.134 121.209 101.981 120.55 101.98L120.57 101.94Z" fill="#3C2415"/>
<path d="M63.1606 110.69C61.5306 112.55 59.9906 114.56 57.8906 115.69C58.5256 115.811 59.1788 115.799 59.8088 115.654C60.4388 115.509 61.0319 115.236 61.5506 114.85C61.7948 115.451 62.1608 115.995 62.6254 116.448C63.0901 116.9 63.6434 117.252 64.2506 117.48C63.4654 115.305 63.0957 113.002 63.1606 110.69Z" fill="#D1D3D4"/>
<path d="M72.5801 114.42C72.0206 115.613 71.3511 116.751 70.5801 117.82C70.9523 117.631 71.2903 117.381 71.5801 117.08C71.7938 117.541 72.1042 117.95 72.4901 118.28C72.3951 116.993 72.4253 115.701 72.5801 114.42Z" fill="#D1D3D4"/>
<path d="M80.1602 119.46C80.8498 119.212 81.4561 118.775 81.9102 118.2C82.1523 118.587 82.4642 118.926 82.8302 119.2C82.6302 117.95 82.5901 116.66 82.5201 115.55C81.9003 116.947 81.1074 118.261 80.1602 119.46Z" fill="#D1D3D4"/>
<path d="M91.3906 119.06C91.6813 118.814 91.9311 118.524 92.1306 118.2C92.7117 118.916 93.5135 119.418 94.4106 119.63C93.5808 118.282 93.0015 116.794 92.7006 115.24C92.1129 116.456 91.6731 117.739 91.3906 119.06Z" fill="#D1D3D4"/>
<path d="M100.82 118.75C101.481 118.352 102.012 117.772 102.35 117.08C103.057 117.768 103.978 118.192 104.96 118.28C104.163 117.143 103.425 115.964 102.75 114.75C102.05 116.06 101.47 117.43 100.82 118.75Z" fill="#D1D3D4"/>
<path d="M111.999 111.99C112.27 113.395 112.138 114.847 111.619 116.18C111.98 115.795 112.256 115.339 112.429 114.84C113.245 115.471 114.259 115.79 115.289 115.74C113.909 114.7 112.539 113.69 111.999 111.99Z" fill="#D1D3D4"/>
<path d="M104.98 183.92C98.6798 183.92 93.8998 181.36 91.8698 176.92C89.9409 172.833 88.4299 168.561 87.3598 164.17C87.0998 163.26 86.8499 162.36 86.5799 161.45C85.5695 157.431 84.001 153.574 81.9198 149.99C80.9589 148.509 79.8389 147.138 78.5799 145.9C77.8874 145.197 77.1598 144.529 76.3998 143.9C75.1398 142.83 74.3998 142.19 74.1898 141.32C74.0065 140.688 73.9625 140.023 74.0609 139.372C74.1593 138.722 74.3978 138.1 74.7598 137.55C76.1998 135.32 79.3598 134.42 81.7598 134.05C83.083 133.843 84.4206 133.743 85.7598 133.75C86.5898 133.75 87.2598 133.75 87.8098 133.81C88.6598 132.18 90.7499 131.37 94.0499 131.37C96.1443 131.405 98.2319 131.619 100.29 132.01L100.51 132.06C107.17 134.26 111.02 145.52 112.36 150.26C113.247 153.733 114.592 157.072 116.36 160.19L117.17 161.95C120.45 169.08 123.55 175.82 117.05 180.44C113.462 182.775 109.26 183.987 104.98 183.92Z" fill="#F37F94"/>
<path d="M94.0189 132.96C96.0325 132.993 98.0397 133.197 100.019 133.57C105.969 135.57 109.729 146.78 110.839 150.7C111.741 154.274 113.116 157.711 114.929 160.92C118.539 168.92 121.929 175 116.099 179.16C112.784 181.285 108.916 182.384 104.979 182.32C100.059 182.32 95.2789 180.57 93.3089 176.23C90.9089 171.62 89.6189 166.23 88.0989 160.98C87.0475 156.815 85.4148 152.819 83.2489 149.11C82.2166 147.522 81.0164 146.051 79.6689 144.72C77.9689 142.98 75.8689 141.59 75.7289 140.96C74.8489 137.72 78.4689 136.14 81.9889 135.6C83.2264 135.41 84.4768 135.316 85.7289 135.32C86.7885 135.274 87.8497 135.358 88.8889 135.57C89.0689 135.45 88.3489 132.94 94.0189 132.94M94.0189 129.78C90.1689 129.78 88.0889 130.87 87.0189 132.17H85.7689C84.346 132.166 82.9251 132.273 81.5189 132.49C78.8389 132.91 75.2389 133.97 73.4689 136.68C72.9863 137.421 72.6679 138.257 72.5351 139.132C72.4023 140.006 72.4582 140.899 72.6989 141.75C73.0389 143.09 74.0389 143.94 75.4189 145.1C76.0689 145.66 76.8189 146.29 77.4189 146.94L77.5089 147.02C78.6795 148.182 79.7222 149.466 80.6189 150.85C82.6009 154.296 84.1016 157.997 85.0789 161.85C85.3389 162.75 85.5889 163.66 85.8489 164.56C86.9531 169.037 88.5043 173.393 90.4789 177.56C92.7989 182.56 98.0789 185.42 104.989 185.42C109.575 185.476 114.073 184.163 117.909 181.65C119.535 180.592 120.816 179.082 121.595 177.305C122.373 175.528 122.614 173.562 122.289 171.65C121.849 168.42 120.289 165.1 118.549 161.25L117.779 159.57C117.76 159.518 117.736 159.468 117.709 159.42C115.993 156.397 114.697 153.154 113.859 149.78C112.449 144.78 108.369 132.96 100.989 130.52L100.539 130.41C98.3913 130.007 96.2136 129.787 94.0289 129.75L94.0189 129.78Z" fill="#3C2415"/>
<path d="M88.7305 135.59C89.091 135.71 89.4419 135.857 89.7805 136.03C90.6674 136.499 91.4992 137.066 92.2605 137.72C92.7823 138.145 93.2735 138.606 93.7305 139.1C94.2305 139.61 94.7305 140.2 95.1905 140.81C95.6505 141.42 96.1305 142.08 96.5405 142.81C96.9743 143.509 97.3715 144.23 97.7305 144.97C98.0705 145.73 98.4505 146.46 98.7305 147.23C99.0193 147.97 99.2697 148.724 99.4805 149.49C99.7005 150.23 99.8805 150.95 100.03 151.64C100.18 152.33 100.27 152.98 100.36 153.59C100.46 154.138 100.52 154.693 100.54 155.25C100.54 155.75 100.59 156.19 100.6 156.54C100.6 157.26 100.6 157.67 100.6 157.67C100.6 157.67 100.42 157.29 100.14 156.67C99.8605 156.05 99.5405 155.06 99.0705 153.96C98.8405 153.41 98.6005 152.81 98.3705 152.17C98.1405 151.53 97.8105 150.89 97.5505 150.17C97.2905 149.45 96.9305 148.81 96.6405 148.1C96.3505 147.39 95.9905 146.7 95.6405 146C95.2905 145.3 94.9205 144.62 94.5905 143.93C94.2605 143.24 93.8604 142.61 93.4904 141.93C93.1204 141.25 92.7605 140.7 92.3705 140.16C91.9805 139.62 91.6405 139.08 91.3005 138.6C90.9605 138.12 90.6205 137.7 90.3005 137.33C89.9805 136.96 89.7204 136.63 89.4904 136.33C89.0304 135.88 88.7305 135.59 88.7305 135.59Z" fill="#3C2415"/>
<path opacity="0.3" d="M87.0607 138.21C85.2907 137.33 77.6707 138.38 80.4107 141.65C83.1507 144.92 89.0607 151.02 89.8807 155.55C90.7007 160.08 96.0207 161.9 95.3907 155.05C94.7607 148.2 89.7707 139.56 87.0607 138.21Z" fill="white"/>
<g style="mix-blend-mode:multiply" opacity="0.2">
<path d="M90.1602 136.62C90.1602 136.62 94.2701 136.62 97.4301 141.05C100.59 145.48 100.16 155.32 100.16 155.32C100.16 155.32 98.3602 143.21 90.1602 136.62Z" fill="#F37F94"/>
</g>
</g>
<defs>
<clipPath id="clip0_3247_2837">
<rect width="173.37" height="185.5" fill="white"/>
</clipPath>
</defs>
</svg>
