<svg width="1224" height="548" viewBox="0 0 1224 548" fill="none" xmlns="http://www.w3.org/2000/svg">
<ellipse cx="612" cy="274" rx="612" ry="274" fill="white" fill-opacity="0.09"/>
<path d="M126.22 209.389L124.65 256.144L99.0083 254.039L102.821 144.354L128.608 145.657L126.878 192.415L140.45 190.733L138.047 145.489L163.771 143.272L169.234 252.632L143.684 255.646L141.232 207.682L126.22 209.389ZM204.278 254.57L178.842 255.022L172.251 145.201L197.81 142.667L204.278 254.57ZM276.874 253.28L212.647 250.1L207.13 146.662L255.688 141.639L279.24 188.268L276.874 253.28ZM238.86 167.222L235.194 168.087L238.619 234.757L250.8 235.821L252.292 193.707L238.86 167.222ZM349.299 251.994L288.668 253.071L282.131 146.29L307.687 143.596L348.124 140.797L345.796 162.922L309.034 165.335L310.226 187.398L337.416 186.595L337.134 206.763L311.361 206.26L312.718 228.64L345.791 225.652L349.299 251.994ZM418.418 250.606L413.195 163.805L391.781 165.466L391.318 139.39L462.347 138.128L462.733 159.885L438.603 161.754L443.854 250.154L418.418 250.606ZM492.099 202.89L490.529 249.645L464.888 247.54L468.701 137.855L494.488 139.158L492.758 185.916L506.33 184.234L503.926 138.99L529.651 136.773L535.114 246.133L509.564 249.147L507.111 201.183L492.099 202.89ZM605.352 247.446L544.722 248.523L538.184 141.742L563.741 139.048L604.177 136.249L601.85 158.374L565.087 160.787L566.279 182.849L593.469 182.046L593.187 202.215L567.414 201.712L568.772 224.092L601.844 221.104L605.352 247.446ZM682.953 246.067L657.314 244.122L650.993 140.538L676.552 138.004L697.478 135.872L723.517 133.329L720.88 192.105L680.197 199.069L682.953 246.067ZM696.742 157.488L677.893 159.423L679.091 181.806L695.834 178.468L696.742 157.488ZM753.621 198.245L752.051 245L726.409 242.895L730.222 133.21L756.009 134.512L765.459 134.984L791.252 136.607L796.635 241.488L771.085 244.502L768.633 196.538L753.621 198.245ZM755.348 151.327L754.279 181.27L767.692 179.592L766.4 151.93L755.348 151.327ZM831.679 243.426L806.243 243.877L799.652 134.057L825.211 131.523L831.679 243.426ZM866.361 242.809L840.765 243.264L834.359 134.881L864.372 130.827L884.369 193.522L884.714 131.906L907.408 130.223L905.669 239.551L880.279 242.562L862.93 184.781L866.361 242.809Z" fill="white"/>
<path d="M624.22 369.782L622.65 416.538L597.008 414.433L600.821 304.748L626.608 306.05L624.878 352.808L638.45 351.127L636.047 305.882L661.771 303.665L667.234 413.025L641.684 416.039L639.232 368.075L624.22 369.782ZM699.052 368.453L697.482 415.208L671.84 413.103L675.653 303.418L701.44 304.721L710.89 305.193L736.683 306.815L742.066 411.696L716.516 414.71L714.064 366.746L699.052 368.453ZM700.779 321.535L699.71 351.479L713.122 349.8L711.831 322.139L700.779 321.535ZM777.07 411.394L751.674 414.086L745.151 308.105L770.71 305.571L791.635 303.439L817.674 300.896L815.038 359.672L799.243 362.353L818.845 366.805L816.784 412.929L791.148 411.144L792.656 378.952L774.994 375.585L777.07 411.394ZM790.899 325.055L772.05 326.99L773.408 349.37L789.991 346.034L790.899 325.055ZM850.115 412.337L824.359 412.795L828.289 300.707L854.236 302.007L863.846 302.476L889.473 303.781L894.908 411.542L888.189 411.661L881.47 411.78L869.152 411.999L850.115 412.337ZM853.343 323.786L850.848 390.561L868.125 390.254L864.875 324.381L853.343 323.786ZM964.937 410.298L904.306 411.375L897.718 301.714L923.274 299.02L928.35 386.624L961.414 383.156L964.937 410.298ZM1033.74 409.075L969.513 405.896L963.995 302.457L1012.55 297.434L1036.11 344.063L1033.74 409.075ZM995.725 323.017L992.06 323.882L995.484 390.552L1007.67 391.616L1009.16 349.503L995.725 323.017Z" fill="white"/>
<g clip-path="url(#clip0_2700_369)">
<path d="M471.993 436.464C458.649 436.464 445.605 432.507 434.509 425.093C423.414 417.679 414.767 407.142 409.66 394.813C404.554 382.484 403.218 368.918 405.822 355.83C408.426 342.743 414.853 330.721 424.289 321.286C433.726 311.85 445.748 305.425 458.836 302.823C471.924 300.22 485.49 301.558 497.818 306.665C510.146 311.773 520.682 320.422 528.095 331.518C535.508 342.614 539.463 355.66 539.461 369.004C539.442 386.891 532.328 404.04 519.679 416.687C507.03 429.334 489.88 436.447 471.993 436.464Z" fill="#8DC63F"/>
<path d="M471.994 304.079C484.835 304.079 497.387 307.887 508.064 315.021C518.741 322.155 527.062 332.295 531.976 344.158C536.89 356.022 538.176 369.076 535.671 381.67C533.166 394.264 526.982 405.833 517.902 414.913C508.823 423.993 497.254 430.176 484.66 432.681C472.066 435.186 459.012 433.901 447.148 428.987C435.285 424.073 425.145 415.751 418.011 405.074C410.877 394.397 407.07 381.845 407.07 369.004C407.07 351.785 413.91 335.271 426.085 323.095C438.261 310.92 454.775 304.079 471.994 304.079ZM471.994 299C458.148 299 444.614 303.106 433.102 310.798C421.59 318.49 412.617 329.423 407.319 342.215C402.021 355.006 400.634 369.082 403.335 382.661C406.036 396.241 412.704 408.714 422.494 418.504C432.284 428.295 444.757 434.962 458.337 437.663C471.916 440.364 485.992 438.978 498.783 433.679C511.575 428.381 522.508 419.408 530.2 407.896C537.892 396.384 541.998 382.85 541.998 369.004C541.976 350.444 534.594 332.651 521.47 319.527C508.347 306.404 490.553 299.021 471.994 299Z" fill="#3C2415"/>
<g opacity="0.3">
<path d="M420.241 375.698C420.247 364.384 423.543 353.316 429.729 343.842C435.915 334.369 444.723 326.899 455.08 322.344C465.437 317.789 476.895 316.345 488.058 318.187C499.221 320.03 509.607 325.08 517.951 332.722C513.031 326.293 506.826 320.958 499.732 317.058C492.638 313.157 484.81 310.777 476.745 310.067C468.681 309.358 460.557 310.335 452.891 312.938C445.225 315.54 438.184 319.709 432.218 325.181C426.251 330.653 421.489 337.307 418.235 344.72C414.981 352.133 413.306 360.142 413.316 368.238C413.327 376.334 415.023 384.339 418.296 391.743C421.57 399.147 426.349 405.789 432.33 411.246C424.475 401.062 420.223 388.559 420.241 375.698Z" fill="white"/>
</g>
<g style="mix-blend-mode:multiply" opacity="0.75">
<path d="M513.961 319.463C524.48 331.895 529.943 347.827 529.267 364.098C528.59 380.37 521.822 395.793 510.307 407.309C498.791 418.825 483.368 425.592 467.096 426.269C450.825 426.946 434.893 421.483 422.461 410.963C428.262 417.818 435.422 423.396 443.488 427.343C451.555 431.29 460.352 433.521 469.325 433.894C478.298 434.267 487.25 432.775 495.617 429.511C503.983 426.248 511.582 421.284 517.932 414.934C524.282 408.584 529.246 400.985 532.509 392.619C535.773 384.252 537.265 375.3 536.892 366.327C536.518 357.354 534.288 348.557 530.341 340.49C526.394 332.424 520.816 325.264 513.961 319.463Z" fill="#27AAE1"/>
</g>
<path d="M448.544 371.798C444.326 371.803 440.202 370.557 436.693 368.217C433.184 365.877 430.448 362.55 428.831 358.655C427.214 354.759 426.788 350.472 427.608 346.335C428.428 342.198 430.456 338.397 433.437 335.414C436.417 332.43 440.216 330.397 444.352 329.572C448.488 328.748 452.775 329.169 456.672 330.781C460.569 332.394 463.9 335.127 466.244 338.633C468.587 342.139 469.838 346.262 469.838 350.479C469.834 356.128 467.59 361.544 463.598 365.541C459.606 369.537 454.192 371.787 448.544 371.798Z" fill="white"/>
<path d="M448.544 330.469C452.504 330.469 456.374 331.643 459.667 333.843C462.959 336.043 465.524 339.17 467.039 342.829C468.554 346.487 468.95 350.513 468.177 354.396C467.404 358.279 465.497 361.846 462.696 364.646C459.896 367.445 456.328 369.351 452.445 370.122C448.561 370.894 444.536 370.496 440.878 368.98C437.22 367.463 434.094 364.896 431.896 361.603C429.697 358.31 428.524 354.439 428.526 350.479C428.526 347.851 429.044 345.248 430.05 342.82C431.056 340.392 432.53 338.185 434.389 336.327C436.248 334.469 438.455 332.995 440.884 331.99C443.313 330.985 445.916 330.468 448.544 330.469ZM448.544 327.877C444.072 327.877 439.701 329.203 435.982 331.688C432.264 334.172 429.366 337.703 427.655 341.835C425.943 345.966 425.496 350.513 426.368 354.899C427.24 359.285 429.394 363.314 432.556 366.476C435.718 369.638 439.747 371.791 444.133 372.664C448.519 373.536 453.065 373.088 457.197 371.377C461.328 369.666 464.86 366.768 467.344 363.049C469.828 359.331 471.155 354.96 471.155 350.488C471.155 344.491 468.772 338.74 464.532 334.499C460.292 330.259 454.541 327.877 448.544 327.877Z" fill="#3C2415"/>
<path d="M457.969 332.795C461.845 335.943 464.404 340.427 465.145 345.365C465.885 350.304 464.753 355.341 461.971 359.487C459.189 363.634 454.957 366.591 450.106 367.778C445.256 368.965 440.137 368.297 435.754 365.903C437.914 367.658 440.416 368.942 443.1 369.676C445.784 370.409 448.591 370.574 451.343 370.162C454.095 369.749 456.73 368.767 459.081 367.279C461.433 365.791 463.448 363.829 464.998 361.518C466.548 359.208 467.6 356.599 468.086 353.86C468.571 351.12 468.481 348.309 467.819 345.606C467.158 342.903 465.94 340.368 464.244 338.162C462.548 335.956 460.411 334.128 457.969 332.795Z" fill="#D1D3D4"/>
<path d="M495.452 371.798C491.235 371.8 487.112 370.551 483.605 368.209C480.099 365.868 477.365 362.539 475.75 358.643C474.135 354.748 473.712 350.461 474.534 346.325C475.355 342.189 477.385 338.39 480.366 335.408C483.347 332.426 487.146 330.394 491.281 329.571C495.417 328.748 499.704 329.17 503.6 330.783C507.496 332.396 510.826 335.129 513.169 338.635C515.511 342.141 516.762 346.263 516.762 350.479C516.755 356.13 514.509 361.548 510.514 365.544C506.519 369.54 501.102 371.789 495.452 371.798Z" fill="white"/>
<path d="M495.452 330.469C499.412 330.469 503.283 331.643 506.575 333.843C509.867 336.043 512.433 339.17 513.948 342.829C515.463 346.487 515.858 350.513 515.085 354.396C514.312 358.279 512.405 361.846 509.605 364.646C506.804 367.445 503.236 369.351 499.353 370.122C495.469 370.894 491.444 370.496 487.786 368.98C484.128 367.463 481.002 364.896 478.804 361.603C476.605 358.31 475.432 354.439 475.434 350.479C475.433 347.851 475.95 345.247 476.956 342.819C477.961 340.39 479.436 338.183 481.295 336.325C483.154 334.466 485.362 332.993 487.791 331.988C490.22 330.983 492.824 330.467 495.452 330.469ZM495.452 327.877C490.98 327.877 486.609 329.203 482.891 331.688C479.172 334.172 476.274 337.703 474.563 341.835C472.852 345.966 472.404 350.513 473.276 354.899C474.149 359.285 476.302 363.314 479.464 366.476C482.626 369.638 486.655 371.791 491.041 372.664C495.427 373.536 499.973 373.088 504.105 371.377C508.236 369.666 511.768 366.768 514.252 363.049C516.737 359.331 518.063 354.96 518.063 350.488C518.063 344.491 515.681 338.74 511.44 334.499C507.2 330.259 501.449 327.877 495.452 327.877Z" fill="#3C2415"/>
<path d="M504.877 332.795C508.76 335.942 511.325 340.427 512.069 345.37C512.812 350.312 511.68 355.354 508.894 359.504C506.109 363.654 501.872 366.611 497.016 367.796C492.161 368.98 487.038 368.305 482.654 365.903C484.814 367.654 487.315 368.935 489.998 369.666C492.681 370.397 495.486 370.56 498.236 370.147C500.985 369.733 503.618 368.752 505.968 367.264C508.317 365.777 510.33 363.816 511.88 361.508C513.429 359.199 514.481 356.593 514.968 353.855C515.454 351.118 515.366 348.309 514.707 345.608C514.048 342.907 512.834 340.372 511.141 338.166C509.449 335.96 507.316 334.131 504.877 332.795Z" fill="#D1D3D4"/>
<path d="M448.357 351.691C448.357 350.964 449.092 351.206 449.577 350.964C449.819 350.964 450.312 351.206 450.312 351.448C450.451 352.158 450.331 352.893 449.972 353.521C449.613 354.148 449.04 354.625 448.357 354.864C448.104 355.02 447.821 355.122 447.527 355.164C447.232 355.205 446.932 355.186 446.645 355.107C445.943 354.847 445.312 354.425 444.803 353.875C444.295 353.325 443.925 352.662 443.722 351.941C443.604 351.252 443.624 350.545 443.781 349.864C443.939 349.182 444.23 348.539 444.639 347.971C445.048 347.403 445.566 346.923 446.163 346.558C446.76 346.193 447.424 345.95 448.115 345.844C449.536 345.705 450.969 345.956 452.258 346.571C454.454 347.548 455.431 349.987 455.431 352.183C455.431 353.152 455.674 354.129 455.181 355.107C454.841 355.994 454.347 356.815 453.719 357.529C452.823 358.489 451.721 359.233 450.496 359.704C449.27 360.176 447.954 360.362 446.645 360.25C445.092 360.008 443.62 359.394 442.354 358.46C441.089 357.527 440.068 356.301 439.378 354.888C438.678 353.187 438.444 351.33 438.701 349.509C438.958 347.688 439.695 345.968 440.838 344.526C441.981 343.085 443.487 341.974 445.202 341.309C446.917 340.643 448.778 340.447 450.594 340.741C451.744 340.946 452.871 341.259 453.962 341.677C455.602 342.462 457.027 343.634 458.112 345.093C460.081 347.661 460.952 350.905 460.535 354.113C460.29 356.015 459.619 357.838 458.574 359.445C457.528 361.053 456.134 362.405 454.495 363.4C448.398 366.808 441.082 365.588 436.729 359.984C435.305 357.926 434.309 355.603 433.798 353.152C433.677 351.774 433.677 350.388 433.798 349.01C434.03 347.328 434.523 345.694 435.259 344.165C436.209 342.296 437.538 340.646 439.16 339.319C446.718 332.738 458.912 335.661 463.547 344.439" stroke="#3C2415" stroke-width="2.51946" stroke-miterlimit="10" stroke-linecap="round"/>
<path d="M495.258 351.691C495.258 350.964 495.993 351.206 496.477 350.964C496.72 350.964 497.204 351.206 497.204 351.448C497.348 352.157 497.23 352.893 496.872 353.522C496.514 354.15 495.941 354.627 495.258 354.864C495.006 355.02 494.725 355.122 494.431 355.164C494.138 355.205 493.839 355.186 493.554 355.107C492.851 354.846 492.22 354.424 491.71 353.874C491.201 353.324 490.828 352.662 490.623 351.941C490.505 351.252 490.526 350.546 490.684 349.865C490.842 349.183 491.134 348.54 491.543 347.973C491.952 347.406 492.469 346.925 493.065 346.56C493.662 346.194 494.325 345.951 495.016 345.844C496.437 345.705 497.869 345.956 499.158 346.571C501.355 347.548 502.332 349.987 502.332 352.183C502.332 353.152 502.574 354.129 502.081 355.107C501.742 355.994 501.247 356.815 500.62 357.529C499.721 358.481 498.619 359.217 497.395 359.681C496.171 360.146 494.858 360.327 493.554 360.21C491.992 359.975 490.51 359.364 489.236 358.43C487.961 357.496 486.933 356.267 486.238 354.848C485.628 353.31 485.377 351.653 485.503 350.003C485.862 347.19 487.322 344.635 489.562 342.897C491.802 341.159 494.641 340.381 497.454 340.733C498.621 340.949 499.765 341.277 500.87 341.71C502.507 342.496 503.929 343.668 505.013 345.126C506.981 347.694 507.852 350.937 507.435 354.146C507.178 356.048 506.496 357.867 505.439 359.469C504.382 361.072 502.978 362.415 501.33 363.4C495.234 366.808 487.918 365.588 483.565 359.984C482.141 357.926 481.145 355.603 480.634 353.152C480.513 351.774 480.513 350.388 480.634 349.01C480.869 347.329 481.362 345.695 482.095 344.165C483.046 342.294 484.377 340.644 486.004 339.319C493.562 332.738 505.748 335.661 510.383 344.439" stroke="#3C2415" stroke-width="2.51946" stroke-miterlimit="10" stroke-linecap="round"/>
<path d="M457.403 409.227C453.897 409.227 450.534 407.834 448.055 405.355C445.576 402.876 444.184 399.513 444.184 396.007C444.184 392.502 445.576 389.139 448.055 386.66C450.534 384.181 453.897 382.788 457.403 382.788H485.593C489.099 382.788 492.461 384.181 494.94 386.66C497.419 389.139 498.812 392.502 498.812 396.007C498.812 399.513 497.419 402.876 494.94 405.355C492.461 407.834 489.099 409.227 485.593 409.227H457.403Z" fill="#F7B9D4"/>
<path d="M485.593 384.476C488.652 384.476 491.585 385.691 493.747 387.854C495.91 390.016 497.125 392.949 497.125 396.008C497.125 399.066 495.91 401.999 493.747 404.162C491.585 406.324 488.652 407.539 485.593 407.539H457.403C454.345 407.539 451.412 406.324 449.249 404.162C447.086 401.999 445.872 399.066 445.872 396.008C445.872 392.949 447.086 390.016 449.249 387.854C451.412 385.691 454.345 384.476 457.403 384.476H485.593ZM485.593 381.101H457.403C453.449 381.101 449.658 382.671 446.862 385.467C444.067 388.263 442.496 392.054 442.496 396.008C442.496 399.961 444.067 403.753 446.862 406.548C449.658 409.344 453.449 410.915 457.403 410.915H485.593C489.547 410.915 493.338 409.344 496.134 406.548C498.93 403.753 500.5 399.961 500.5 396.008C500.5 392.054 498.93 388.263 496.134 385.467C493.338 382.671 489.547 381.101 485.593 381.101Z" fill="#3C2415"/>
<path d="M496.148 393.537C494.961 393.588 493.784 393.308 492.748 392.729C491.714 393.308 490.54 393.588 489.356 393.537C488.108 393.588 486.874 393.264 485.811 392.608C484.73 393.216 483.511 393.536 482.27 393.536C481.03 393.536 479.81 393.216 478.729 392.608C477.648 393.216 476.429 393.536 475.188 393.536C473.948 393.536 472.728 393.216 471.647 392.608C470.566 393.216 469.347 393.536 468.106 393.536C466.866 393.536 465.647 393.216 464.566 392.608C463.485 393.216 462.265 393.536 461.025 393.536C459.784 393.536 458.565 393.216 457.484 392.608C456.4 393.213 455.18 393.531 453.939 393.531C452.697 393.531 451.477 393.213 450.394 392.608C449.334 393.263 448.102 393.587 446.857 393.537H446.582C446.315 393.528 446.054 393.455 445.82 393.324C445.587 393.194 445.389 393.009 445.242 392.786C445.092 392.561 444.999 392.303 444.969 392.035C444.94 391.767 444.975 391.495 445.072 391.243C446.018 388.769 447.689 386.639 449.866 385.13C452.043 383.622 454.625 382.806 457.274 382.788H457.451C457.518 382.781 457.586 382.781 457.653 382.788H485.577H485.819H486.037C488.628 382.875 491.136 383.722 493.248 385.224C495.36 386.726 496.984 388.817 497.916 391.235C498.011 391.487 498.045 391.759 498.016 392.027C497.986 392.295 497.894 392.552 497.746 392.778C497.599 393.002 497.399 393.187 497.164 393.318C496.929 393.449 496.666 393.521 496.398 393.528L496.148 393.537Z" fill="white"/>
<path d="M485.618 384.476C485.691 384.64 485.755 384.807 485.811 384.977C485.868 384.807 485.933 384.646 485.997 384.484C488.255 384.562 490.441 385.302 492.283 386.611C494.125 387.92 495.541 389.742 496.358 391.849H496.148C495.51 391.906 494.869 391.809 494.277 391.566C493.685 391.323 493.161 390.941 492.748 390.452C492.336 390.939 491.813 391.321 491.223 391.564C490.632 391.807 489.992 391.905 489.356 391.849C487.838 391.849 486.514 391.405 485.811 390.234C485.109 391.413 483.785 391.849 482.266 391.849C480.748 391.849 479.432 391.405 478.73 390.234C478.027 391.413 476.703 391.849 475.185 391.849C473.666 391.849 472.35 391.405 471.648 390.234C470.937 391.413 469.621 391.849 468.103 391.849C466.584 391.849 465.268 391.405 464.566 390.234C463.855 391.413 462.539 391.849 461.021 391.849C459.503 391.849 458.186 391.405 457.484 390.234C456.773 391.413 455.457 391.849 453.939 391.849C452.421 391.849 451.104 391.405 450.394 390.234C449.691 391.413 448.375 391.849 446.857 391.849H446.647C447.479 389.696 448.939 387.842 450.836 386.528C452.734 385.213 454.982 384.499 457.29 384.476L457.484 384.977C457.54 384.807 457.605 384.638 457.67 384.476H464.372L464.566 384.977C464.622 384.807 464.687 384.64 464.76 384.476H471.454C471.526 384.638 471.583 384.807 471.648 384.977C471.704 384.807 471.769 384.638 471.833 384.476H478.536L478.73 384.977C478.786 384.807 478.85 384.64 478.923 384.476H485.618ZM485.618 381.101H457.258C454.276 381.124 451.372 382.045 448.922 383.745C446.473 385.445 444.594 387.844 443.53 390.629C443.338 391.132 443.268 391.674 443.327 392.209C443.386 392.744 443.572 393.257 443.869 393.706C444.164 394.154 444.562 394.524 445.03 394.785C445.498 395.047 446.022 395.192 446.558 395.208H446.889C448.105 395.232 449.312 394.992 450.426 394.505C452.694 395.442 455.24 395.442 457.508 394.505C459.779 395.442 462.328 395.442 464.598 394.505C466.866 395.442 469.412 395.442 471.68 394.505C473.948 395.442 476.494 395.442 478.762 394.505C481.03 395.442 483.576 395.442 485.844 394.505C486.961 394.993 488.17 395.232 489.389 395.208C490.55 395.227 491.703 395.013 492.78 394.578C493.86 395.014 495.016 395.228 496.18 395.208H496.503C497.041 395.192 497.567 395.047 498.037 394.785C498.507 394.523 498.907 394.152 499.204 393.703C499.5 393.255 499.685 392.741 499.742 392.206C499.799 391.671 499.727 391.131 499.531 390.629C498.483 387.904 496.654 385.547 494.275 383.854C491.895 382.161 489.07 381.206 486.151 381.109H485.925H485.65L485.618 381.101Z" fill="#3C2415"/>
<path d="M457.402 409.227C454.894 409.221 452.439 408.504 450.322 407.159C448.205 405.814 446.513 403.896 445.443 401.628C445.316 401.371 445.257 401.086 445.272 400.8C445.286 400.513 445.374 400.236 445.526 399.993C445.678 399.75 445.89 399.55 446.141 399.412C446.392 399.275 446.674 399.203 446.961 399.205C448.091 399.179 449.207 399.458 450.191 400.013C451.229 399.436 452.405 399.157 453.591 399.205C454.838 399.154 456.073 399.478 457.136 400.134C458.217 399.526 459.436 399.206 460.677 399.206C461.917 399.206 463.137 399.526 464.218 400.134C465.299 399.526 466.518 399.206 467.759 399.206C468.999 399.206 470.218 399.526 471.299 400.134C472.38 399.526 473.6 399.206 474.84 399.206C476.081 399.206 477.3 399.526 478.381 400.134C479.462 399.526 480.682 399.206 481.922 399.206C483.163 399.206 484.382 399.526 485.463 400.134C486.544 399.526 487.764 399.206 489.004 399.206C490.245 399.206 491.464 399.526 492.545 400.134C493.567 399.501 494.751 399.178 495.953 399.205C496.239 399.209 496.519 399.285 496.767 399.427C497.016 399.568 497.225 399.769 497.374 400.013C497.528 400.251 497.618 400.524 497.636 400.807C497.655 401.089 497.601 401.372 497.479 401.628C496.406 403.896 494.713 405.813 492.595 407.158C490.477 408.503 488.021 409.22 485.512 409.227H457.402Z" fill="white"/>
<path d="M489.065 400.909C490.583 400.909 491.9 401.353 492.602 402.524C492.982 401.977 493.499 401.54 494.101 401.256C494.704 400.973 495.371 400.853 496.034 400.909C495.103 402.891 493.626 404.566 491.777 405.739C489.928 406.912 487.783 407.533 485.593 407.531H457.402C455.213 407.531 453.069 406.909 451.22 405.736C449.371 404.564 447.894 402.89 446.961 400.909C447.581 400.865 448.202 400.968 448.775 401.209C449.347 401.451 449.855 401.824 450.256 402.298C450.667 401.81 451.19 401.428 451.781 401.185C452.371 400.942 453.012 400.844 453.647 400.901C455.166 400.901 456.49 401.345 457.192 402.516C457.895 401.337 459.211 400.901 460.729 400.901C462.248 400.901 463.572 401.345 464.274 402.516C464.977 401.337 466.301 400.901 467.811 400.901C469.321 400.901 470.654 401.345 471.356 402.516C472.059 401.337 473.383 400.901 474.893 400.901C476.403 400.901 477.736 401.345 478.438 402.516C479.141 401.337 480.465 400.901 481.983 400.901C483.501 400.901 484.818 401.345 485.52 402.516C486.223 401.337 487.547 400.901 489.065 400.901M489.065 397.534C487.847 397.511 486.638 397.751 485.52 398.236C483.252 397.3 480.706 397.3 478.438 398.236C476.17 397.3 473.624 397.3 471.356 398.236C469.089 397.3 466.542 397.3 464.274 398.236C462.007 397.3 459.46 397.3 457.192 398.236C456.075 397.751 454.866 397.511 453.647 397.534C452.484 397.514 451.327 397.728 450.248 398.164C449.221 397.75 448.125 397.536 447.018 397.534H446.969C446.403 397.536 445.846 397.681 445.35 397.955C444.854 398.229 444.435 398.624 444.132 399.103C443.828 399.581 443.65 400.129 443.614 400.694C443.578 401.26 443.685 401.825 443.925 402.339C445.135 404.894 447.044 407.054 449.43 408.571C451.817 410.087 454.583 410.896 457.411 410.906H485.601C488.429 410.897 491.197 410.088 493.585 408.571C495.973 407.055 497.883 404.894 499.095 402.339C499.335 401.825 499.442 401.258 499.405 400.692C499.369 400.126 499.19 399.578 498.886 399.099C498.582 398.62 498.162 398.226 497.664 397.952C497.167 397.679 496.609 397.535 496.042 397.534H495.994C494.83 397.534 493.678 397.773 492.61 398.236C491.496 397.75 490.289 397.51 489.073 397.534H489.065Z" fill="#3C2415"/>
</g>
<defs>
<clipPath id="clip0_2700_369">
<rect width="139.999" height="140" fill="white" transform="translate(402 299)"/>
</clipPath>
</defs>
</svg>
